<svg width="95" height="95" viewBox="0 0 95 95" fill="none" xmlns="http://www.w3.org/2000/svg">
<g clip-path="url(#clip0_782_7900)">
<path d="M14.8454 15.1422C14.895 15.0926 14.9427 15.0411 14.9942 14.9915C19.2175 10.7682 24.1333 7.45286 29.6079 5.139C35.2753 2.7412 41.2955 1.52609 47.5027 1.52609C47.8442 1.52609 48.1837 1.53181 48.5232 1.53944C49.3111 1.03203 50.1161 0.558959 50.9001 0.124037C49.7784 0.0439193 48.6453 0.00195312 47.5027 0.00195312C34.806 0.00195312 23.273 4.98448 14.75 13.0992C14.8206 13.6505 14.8606 14.3201 14.8454 15.1441V15.1422Z" fill="#FFFFFF"/>
<path d="M1.52604 47.4991C1.52604 41.2919 2.74116 35.2717 5.13895 29.6043C7.03124 25.1292 9.59309 21.028 12.7711 17.3712C12.8836 16.4021 12.9313 15.5952 12.9351 14.9219C4.91577 23.4277 0 34.8882 0 47.4991C0 54.5856 1.55466 61.306 4.33587 67.3472C4.45986 66.401 4.59148 65.4053 4.72883 64.3924C2.60381 59.0188 1.52604 53.3419 1.52604 47.4991Z" fill="#FFFFFF"/>
<path d="M55.0905 2.14985C55.8116 1.71302 56.5002 1.32197 57.1373 0.978614C56.2141 0.787858 55.2813 0.627624 54.3389 0.492188C53.595 0.854623 52.7747 1.27238 51.9297 1.73782C52.9903 1.83892 54.0433 1.97817 55.0905 2.15176V2.14985Z" fill="#FFFFFF"/>
<path d="M65.3945 5.13976C69.1333 6.72112 72.6108 8.76984 75.7868 11.2535C76.403 11.1066 77.0382 10.9654 77.6925 10.83C72.5841 6.62002 66.581 3.45921 60.0133 1.66992C59.4315 1.94652 58.7314 2.29751 57.9531 2.71908C60.4902 3.30851 62.9757 4.11541 65.3964 5.13976H65.3945Z" fill="#FFFFFF"/>
<path d="M80.0081 14.9913C84.2314 19.2146 87.5467 24.1303 89.8606 29.605C92.2584 35.2724 93.4735 41.2926 93.4735 47.4998C93.4735 48.444 93.4411 49.3845 93.3858 50.3192C93.8207 51.437 94.2403 52.5148 94.6238 53.5029C94.8717 51.5362 94.9995 49.5332 94.9995 47.4998C94.9995 33.6052 89.0327 21.1031 79.5217 12.418C78.9208 12.5286 78.2932 12.6526 77.6484 12.7899C78.4572 13.4938 79.2451 14.2282 80.0081 14.9913Z" fill="#FFFFFF"/>
<path d="M6.20673 67.7363C6.08274 68.6824 5.96829 69.5752 5.86719 70.3859C7.99983 74.2582 10.6571 77.8005 13.7435 80.9175C13.9571 80.4311 14.1803 79.9275 14.4073 79.4124C11.0615 75.9464 8.31076 72.0283 6.20673 67.7344V67.7363Z" fill="#FFFFFF"/>
<path d="M19.1478 83.6973C18.9322 84.2238 18.73 84.7121 18.5469 85.1546C20.9275 86.9878 23.4855 88.5997 26.1924 89.9617C26.2076 89.4314 26.2286 88.8667 26.2534 88.2811C23.745 86.9744 21.372 85.4446 19.1478 83.6992V83.6973Z" fill="#FFFFFF"/>
<path d="M80.0124 80.0094C75.789 84.2328 70.8733 87.5481 65.3986 89.862C61.5663 91.4834 57.5719 92.5611 53.4688 93.0914C53.8522 93.5798 54.2299 94.0433 54.5904 94.4744C68.2065 92.4372 79.9322 84.62 87.1924 73.6001C87.2325 72.7645 87.2592 71.7574 87.2649 70.5938C85.2753 74.0178 82.8489 77.1691 80.0105 80.0075L80.0124 80.0094Z" fill="#FFFFFF"/>
<path d="M47.4967 93.4737C44.3435 93.4737 41.238 93.1589 38.2031 92.5352C38.3195 93.1017 38.4454 93.6434 38.5751 94.1585C41.465 94.7079 44.4465 94.9978 47.4967 94.9978C49.1334 94.9978 50.751 94.9158 52.3438 94.7536C51.9776 94.2977 51.6037 93.817 51.2317 93.3211C49.9956 93.4203 48.75 93.4718 47.4967 93.4718V93.4737Z" fill="#FFFFFF"/>
<path d="M92.9495 54.4668C92.381 58.219 91.349 61.8757 89.8592 65.3952C89.6227 65.9541 89.3747 66.5035 89.1172 67.0509C89.1534 68.2069 89.1687 69.3018 89.1687 70.3148C91.391 66.265 93.0391 61.8567 94.0062 57.1965C93.7144 56.4392 93.3539 55.5083 92.9495 54.4668Z" fill="#FFFFFF"/>
<path d="M29.6061 89.8631C29.1082 89.6533 28.6161 89.4301 28.1277 89.2031C28.1048 89.8002 28.0896 90.3553 28.0781 90.8608C30.7621 92.0645 33.5795 93.0259 36.5 93.7183C36.3798 93.1899 36.2673 92.6405 36.1623 92.0683C33.9324 91.5017 31.7444 90.7673 29.6061 89.8631Z" fill="#FFFFFF"/>
<path d="M15.8555 80.8535C15.6304 81.3628 15.413 81.8569 15.2031 82.33C15.7868 82.8717 16.3839 83.3982 16.9924 83.9094C17.1813 83.4535 17.3854 82.9556 17.6009 82.4292C17.0077 81.9198 16.424 81.3953 15.8555 80.8535Z" fill="#FFFFFF"/>
<path d="M84.9798 42.4722C84.8291 42.1709 84.6689 41.8294 84.4991 41.467C83.3279 38.9681 81.7217 35.5478 78.6334 34.9679C75.4153 34.3651 71.4419 34.9355 68.7446 36.3891C68.1514 36.7076 67.5009 37.0109 66.8123 37.3295C64.6567 38.329 62.2113 39.464 59.8287 41.8466C58.9837 42.6916 58.1329 43.4165 57.3089 44.1204C55.2029 45.9173 53.0264 47.7752 50.7907 51.6876C47.4582 57.519 45.73 61.8206 44.822 66.5341C43.8358 71.6655 44.0609 74.8034 44.822 78.7997C45.6308 83.044 46.5007 85.438 48.702 89.4725C49.4059 90.762 50.31 92.0915 51.2314 93.3238C51.9772 93.2647 52.7212 93.1865 53.4613 93.0911C52.3511 91.6776 51.2028 90.0733 50.3768 88.5588C48.2613 84.6807 47.4697 82.5061 46.6971 78.4411C45.9799 74.6775 45.7682 71.7227 46.6971 66.8928C47.5613 62.4005 49.2265 58.2687 52.4484 52.6319C54.52 49.0075 56.4772 47.3384 58.5488 45.5701C59.3995 44.8433 60.2808 44.0918 61.1774 43.1952C63.3215 41.0511 65.6029 39.9943 67.6154 39.0596C68.3307 38.7277 69.006 38.4149 69.6507 38.0677C71.957 36.8259 75.5069 36.3223 78.2843 36.8431C80.4131 37.2417 81.779 40.1527 82.7747 42.2777C82.9502 42.6516 83.1161 43.0045 83.2764 43.3268C84.3026 45.3794 86.172 52.8989 86.8664 61.1262C87.1792 64.8288 87.2727 68.0697 87.2613 70.5972C87.9308 69.447 88.5489 68.2643 89.1192 67.053C89.0601 65.1569 88.9494 63.0986 88.7682 60.966C88.1044 53.105 86.2751 45.057 84.9836 42.4742L84.9798 42.4722Z" fill="#FFFFFF"/>
<path d="M87.26 70.595C87.2543 71.7567 87.2257 72.7658 87.1875 73.6013C87.8895 72.535 88.5533 71.4382 89.1695 70.3146C89.1695 69.3036 89.1542 68.2087 89.1179 67.0508C88.5495 68.2621 87.9295 69.4429 87.26 70.595Z" fill="#FFFFFF"/>
<path d="M51.2344 93.3226C51.6063 93.8185 51.9802 94.2992 52.3465 94.7551C53.0981 94.6788 53.8439 94.5835 54.5859 94.4728C54.2254 94.0417 53.8477 93.5782 53.4643 93.0898C52.7242 93.1852 51.9821 93.2634 51.2344 93.3226Z" fill="#FFFFFF"/>
<path d="M73.7456 54.4282C73.7456 48.5129 73.7456 45.8137 71.014 45.0087C68.7249 44.3334 66.2737 45.1442 64.4558 47.1776C64.3051 47.3455 64.1296 47.5381 63.9331 47.7556C62.0275 49.852 58.0598 54.2127 56.4841 58.621C56.1389 59.5863 55.7879 60.4733 55.4483 61.3336C54.1703 64.5707 53.0658 67.3672 53.7468 70.9705C54.609 75.5315 55.9653 80.6151 59.4828 83.7378C62.594 86.4999 64.8717 87.4747 66.02 87.4747C66.062 87.4747 66.1039 87.4747 66.1421 87.4709C66.4034 87.4537 67.0997 87.4079 69.1541 85.1189L69.2438 85.0197L69.3029 84.8995C69.4612 84.5771 73.1714 76.8897 73.7437 68.6719C74.108 63.4586 74.0107 61.6521 73.8887 59.365C73.8219 58.1098 73.7456 56.6849 73.7456 54.4301V54.4282ZM71.84 68.5365C71.3306 75.8405 68.1088 82.9481 67.6433 83.9438C66.989 84.661 66.2432 85.3611 65.9284 85.5595C65.3772 85.4908 63.5783 84.8194 60.7494 82.309C57.663 79.5679 56.425 74.86 55.6219 70.6138C55.042 67.5522 55.9577 65.2364 57.2224 62.0317C57.5676 61.1581 57.9224 60.2558 58.2792 59.262C59.727 55.2141 63.5211 51.0423 65.3447 49.0375C65.5469 48.8162 65.7262 48.6178 65.8788 48.4461C66.9108 47.2902 68.1488 46.6778 69.3926 46.6778C69.755 46.6778 70.1174 46.7293 70.4741 46.8362C71.6473 47.1814 71.838 48.2458 71.838 54.4263C71.838 56.7326 71.9163 58.1842 71.983 59.4642C72.1013 61.6865 72.1948 63.4395 71.84 68.5365Z" fill="#FFFFFF"/>
<path d="M90.3329 42.519C87.3704 35.0261 83.3016 29.4675 80.8142 27.8518C77.2032 25.5055 71.2306 23.5636 66.2767 25.8126C65.3153 26.2494 64.3081 26.6576 63.3314 27.0544C59.1615 28.7483 54.8486 30.4995 51.6343 35.1444C50.959 36.121 50.2609 37.1053 49.5208 38.1488C46.0814 42.9997 42.5258 48.0146 41.0932 52.4325C40.891 53.0563 40.6888 53.6705 40.4885 54.279C39.012 58.7751 37.6157 63.0213 37.1102 67.8303C36.95 69.3487 36.7611 70.724 36.578 72.0555C36.1145 75.4224 35.6357 78.9055 35.5575 85.0937C35.525 87.6193 35.7806 89.9808 36.1621 92.0696C36.8393 92.2413 37.5222 92.3977 38.207 92.5369C37.755 90.3566 37.4307 87.8272 37.465 85.1165C37.5413 79.0467 38.0125 75.6246 38.4684 72.315C38.6534 70.9701 38.8461 69.5795 39.0082 68.0306C39.4927 63.4238 40.8566 59.2711 42.3026 54.8761C42.5029 54.2638 42.707 53.6476 42.9092 53.0219C44.2521 48.8826 47.7219 43.9878 51.0792 39.2532C51.8213 38.206 52.5232 37.2179 53.2042 36.2317C56.0942 32.0541 59.9589 30.4861 64.0487 28.8246C65.0425 28.4221 66.0688 28.0044 67.0645 27.5523C69.0751 26.6386 71.4347 26.4764 74.0767 27.0697C76.8674 27.6954 78.9906 28.9467 79.7726 29.456C82.2925 31.0946 86.1515 37.1435 88.5569 43.2248C89.9456 46.7366 91.6701 51.1602 92.9538 54.4698C93.1618 53.1002 93.3048 51.7172 93.3888 50.3228C92.3778 47.7247 91.2771 44.9129 90.331 42.5247L90.3329 42.519Z" fill="#FFFFFF"/>
<path d="M92.9531 54.4673C93.3575 55.5089 93.7181 56.4417 94.0099 57.197C94.2617 55.9819 94.4677 54.7497 94.626 53.504C94.2426 52.5159 93.8249 51.4381 93.388 50.3203C93.3041 51.7147 93.161 53.0977 92.9531 54.4673Z" fill="#FFFFFF"/>
<path d="M36.1641 92.0684C36.269 92.6387 36.3815 93.19 36.5017 93.7184C37.1884 93.8805 37.8828 94.0293 38.5809 94.1609C38.4512 93.6459 38.3253 93.1023 38.209 92.5376C37.5241 92.3965 36.8432 92.2419 36.1641 92.0703V92.0684Z" fill="#FFFFFF"/>
<path d="M32.2285 57.9393L32.3582 57.4967C33.5637 53.3612 34.4374 51.7798 35.6487 49.5899C36.3984 48.2337 37.2472 46.6981 38.3651 44.2469C40.5683 39.415 42.823 37.126 46.9147 32.9694C48.147 31.7181 49.5433 30.2988 51.1438 28.6011C56.6833 22.722 59.3787 21.133 63.8462 18.5006C64.8286 17.9207 65.9426 17.2645 67.171 16.511C70.0801 14.7256 74.1145 13.5448 77.6511 12.7875C77.0426 12.2572 76.4227 11.7441 75.7894 11.25C71.7759 12.2095 68.5464 13.4284 66.1734 14.8858C64.9602 15.6297 63.9034 16.2535 62.879 16.8563C58.4249 19.4811 55.4815 21.2151 49.757 27.2906C48.1718 28.9731 46.7831 30.3847 45.5565 31.6284C41.4515 35.7983 38.9755 38.3144 36.6311 43.4514C35.5438 45.8359 34.714 47.339 33.9815 48.6648C32.7607 50.8756 31.7954 52.621 30.5307 56.9588L30.401 57.4014C28.524 63.8355 27.9574 65.7755 27.3985 72.0647C27.3508 72.6103 26.5325 81.8619 26.2578 88.277C26.874 88.5975 27.4977 88.9046 28.131 89.1984C28.3103 84.4657 28.8597 77.1713 29.2985 72.2326C29.8402 66.1303 30.3476 64.3945 32.2323 57.9355L32.2285 57.9393Z" fill="#FFFFFF"/>
<path d="M26.2564 88.2793C26.2316 88.8668 26.2106 89.4296 26.1953 89.9599C26.8153 90.2727 27.4429 90.5722 28.08 90.8583C28.0895 90.3528 28.1067 89.7977 28.1296 89.2006C27.4982 88.9069 26.8725 88.5998 26.2564 88.2793Z" fill="#FFFFFF"/>
<path d="M77.6508 12.791C78.2956 12.6537 78.9232 12.5297 79.5241 12.4191C78.927 11.8735 78.3185 11.3432 77.6947 10.8301C77.0404 10.9655 76.4052 11.1067 75.7891 11.2536C76.4224 11.7495 77.0423 12.2607 77.6508 12.791Z" fill="#FFFFFF"/>
<path d="M8.807 48.6583C9.07597 46.0373 9.35447 43.3267 10.003 39.3647C10.6898 35.1624 11.325 32.7245 12.0575 29.9013C12.645 27.6409 13.3107 25.079 14.0795 21.2372C14.6136 18.5685 14.8196 16.6114 14.8463 15.1426C14.1291 15.8655 13.4385 16.6095 12.7747 17.3725C12.6603 18.3568 12.481 19.5071 12.2101 20.8633C11.4528 24.6517 10.8214 27.0762 10.2129 29.4225C9.49754 32.1713 8.82417 34.7694 8.12219 39.0576C7.46409 43.0749 7.18367 45.8141 6.91089 48.4637C6.65337 50.9703 6.41112 53.3394 5.86937 56.6548C5.48977 58.9782 5.093 61.746 4.73438 64.3937C4.8679 64.7294 5.00334 65.0633 5.1445 65.3952C5.48023 66.1868 5.83885 66.967 6.21464 67.7357C6.661 64.306 7.22564 60.1971 7.75403 56.9619C8.30532 53.5893 8.54948 51.1934 8.81082 48.6583H8.807Z" fill="#FFFFFF"/>
<path d="M14.8391 15.1426C14.8544 14.3185 14.8143 13.6489 14.7438 13.0977C14.1219 13.689 13.5191 14.2994 12.9297 14.9232C12.9259 15.5985 12.8782 16.4034 12.7656 17.3725C13.4295 16.6095 14.12 15.8655 14.8372 15.1426H14.8391Z" fill="#FFFFFF"/>
<path d="M5.13902 65.394C4.99786 65.0621 4.86242 64.7264 4.72889 64.3926C4.59155 65.4055 4.45993 66.4012 4.33594 67.3474C4.81092 68.3794 5.32214 69.3942 5.86961 70.3842C5.97262 69.5754 6.08707 68.6808 6.20916 67.7346C5.83146 66.9659 5.47284 66.1857 5.13902 65.394Z" fill="#FFFFFF"/>
<path d="M21.8667 61.7186C21.9335 60.1544 22.0021 58.5349 22.2501 56.6503C22.5324 54.5081 22.6354 52.9 22.727 51.4808C22.8663 49.3329 22.975 47.6351 23.635 45.0809C24.2855 42.5591 24.9836 40.808 25.8687 38.5933C26.4868 37.0444 27.1888 35.2876 28.0147 32.9088C29.7525 27.9168 31.9538 24.1837 34.7427 19.4587C35.1261 18.8101 35.5191 18.1425 35.9235 17.45C38.3785 13.2572 40.4081 11.3191 42.9795 8.86412C43.8684 8.01525 44.7879 7.13778 45.8065 6.09053C47.3974 4.45385 49.7418 2.94307 51.9297 1.7394C50.8005 1.63258 49.6636 1.56581 48.5209 1.54102C47.0159 2.51005 45.57 3.59927 44.4388 4.76097C43.4449 5.78342 42.5389 6.64945 41.6633 7.48495C39.09 9.94188 36.8696 12.0631 34.2791 16.4867C33.8747 17.1772 33.4837 17.8411 33.1003 18.4896C30.2599 23.3062 28.0147 27.1118 26.214 32.2812C25.3995 34.6199 24.707 36.3539 24.0966 37.8856C23.1867 40.1633 22.4695 41.964 21.7885 44.604C21.0846 47.3338 20.9625 49.1993 20.8233 51.3587C20.7336 52.7493 20.6306 54.3249 20.3578 56.4023C20.0984 58.3709 20.0259 60.1067 19.961 61.6385C19.8485 64.3167 19.7493 66.6287 18.725 69.2744C17.8837 71.4491 16.0334 75.7163 14.4062 79.4131C14.5989 79.6134 14.7916 79.8118 14.9881 80.0082C15.2742 80.2944 15.5641 80.5748 15.856 80.8533C17.5518 77.0077 19.5853 72.3303 20.5028 69.9631C21.6397 67.0235 21.7446 64.5666 21.8648 61.7186H21.8667Z" fill="#FFFFFF"/>
<path d="M14.9878 80.0092C14.7913 79.8127 14.5987 79.6124 14.406 79.4141C14.179 79.9291 13.9577 80.4327 13.7422 80.9191C14.2191 81.3998 14.7074 81.871 15.2034 82.3326C15.4132 81.8595 15.6307 81.3655 15.8558 80.8562C15.5639 80.5777 15.274 80.2973 14.9878 80.0111V80.0092Z" fill="#FFFFFF"/>
<path d="M51.9322 1.73875C52.7754 1.27521 53.5956 0.855548 54.3415 0.493112C53.2065 0.329063 52.0581 0.205072 50.9002 0.123047C50.1162 0.557969 49.3113 1.03295 48.5234 1.53845C49.6661 1.56325 50.803 1.63001 51.9322 1.73684V1.73875Z" fill="#FFFFFF"/>
<path d="M25.3176 63.7701C25.1116 63.0166 24.8999 62.2364 25.0677 60.5635C25.2756 58.4823 25.6591 57.1585 26.1894 55.3272C26.7006 53.5608 27.3377 51.3633 28.0492 47.6818C29.1022 42.2414 29.4646 41.2686 30.6721 38.0467C31.1013 36.9003 31.6354 35.4734 32.3393 33.4724C34.3003 27.8985 35.607 25.9318 37.5832 22.956C38.2451 21.9603 38.9929 20.8329 39.8532 19.4366C42.3998 15.2991 43.7961 14.0287 46.8558 11.2475C47.7485 10.4368 48.7595 9.51732 49.9727 8.36706C52.609 5.86817 55.6248 3.97397 57.9482 2.71689C57.0021 2.49752 56.0483 2.30867 55.0869 2.14844C53.0496 3.38453 50.7587 4.99451 48.6604 6.98218C47.4624 8.11717 46.4571 9.03089 45.572 9.83588C42.4723 12.6552 40.9157 14.0687 38.2279 18.437C37.3848 19.8067 36.6466 20.9188 35.9942 21.9012C34.0122 24.8846 32.5797 27.0401 30.5386 32.8391C29.8404 34.8229 29.3101 36.2383 28.8847 37.3771C27.6677 40.6257 27.2595 41.7206 26.176 47.3174C25.4798 50.9131 24.8579 53.0649 24.3562 54.7931C23.8183 56.6492 23.3948 58.1161 23.1678 60.3708C22.9656 62.3947 23.2479 63.4343 23.4768 64.2679C23.7305 65.1988 23.9137 65.8722 23.2098 68.0563C22.3189 70.8204 19.5015 77.7963 17.6016 82.4259C18.1071 82.8609 18.6202 83.2843 19.1448 83.6945C21.0466 79.0667 24.0682 71.6101 25.0258 68.64C25.9051 65.9161 25.619 64.8707 25.3176 63.7643V63.7701Z" fill="#FFFFFF"/>
<path d="M17.6085 82.4297C17.393 82.9562 17.1869 83.454 17 83.91C17.5074 84.3353 18.0244 84.7512 18.5508 85.1556C18.734 84.713 18.9343 84.2247 19.1517 83.6982C18.6291 83.2881 18.1159 82.8627 17.6085 82.4297Z" fill="#FFFFFF"/>
<path d="M57.9551 2.7182C58.7334 2.29664 59.4334 1.94565 60.0152 1.66905C59.0691 1.41153 58.1115 1.17881 57.1406 0.978516C56.5034 1.32188 55.8148 1.71292 55.0938 2.14975C56.0532 2.30808 57.0089 2.49693 57.9551 2.7182Z" fill="#FFFFFF"/>
</g>
<defs>
<clipPath id="clip0_782_7900">
<rect width="95" height="95" fill="white"/>
</clipPath>
</defs>
</svg>
