<svg width="390" height="223" viewBox="0 0 390 223" fill="none" xmlns="http://www.w3.org/2000/svg">
<g clip-path="url(#clip0_1057_7253)">
<path d="M322.738 222.34C321.148 222.32 319.568 222.33 317.978 222.27C317.018 222.24 316.058 222.17 315.118 222.01C312.838 221.62 311.858 220.23 311.718 217.19C311.658 215.94 311.648 214.69 311.648 213.44C311.648 205.01 311.678 196.58 311.628 188.15C311.618 185.91 311.538 183.65 311.168 181.45C310.438 177.14 307.288 173.89 302.918 173.39C299.578 173.01 296.128 173.13 292.768 173.42C289.878 173.67 288.538 175.48 288.328 178.58C288.188 180.63 288.088 182.69 288.088 184.75C288.068 196.79 288.078 208.82 288.078 220.86V222.31C285.188 222.31 282.378 222.58 279.668 221.72C278.038 221.2 277.438 219.75 277.338 218.15C277.198 215.73 277.068 213.3 277.058 210.87C277.038 202.44 277.088 194.01 277.058 185.58C277.058 183.3 276.808 181.03 275.868 178.9C274.528 175.86 272.168 173.9 268.918 173.56C265.488 173.19 261.988 173.16 258.548 173.35C255.168 173.54 253.748 175.33 253.508 179.16C253.368 181.32 253.458 183.49 253.458 185.66C253.458 197.59 253.468 209.51 253.468 221.44C253.468 221.69 253.438 221.94 253.418 222.34C250.568 222.3 247.748 222.62 245.048 221.71C243.298 221.12 242.908 219.47 242.758 217.86C242.598 216.14 242.528 214.41 242.528 212.68C242.508 197.26 242.518 181.83 242.518 166.41C242.518 164.93 242.758 164.68 244.258 164.82C245.618 164.95 246.978 165.12 248.318 165.36C250.798 165.82 252.488 167.15 252.898 169.77C252.928 169.94 253.038 170.09 253.128 170.3C253.308 170.23 253.478 170.22 253.558 170.13C255.998 167.19 259.298 165.85 262.918 165.11C267.498 164.18 272.068 164.08 276.598 165.46C280.508 166.65 283.058 169.3 284.748 172.89C284.998 173.42 285.238 173.95 285.538 174.61C285.728 174.35 285.878 174.2 285.948 174.03C287.888 169.24 291.698 166.71 296.488 165.41C301.088 164.16 305.738 164.03 310.388 165.21C314.958 166.37 318.128 169.19 320.028 173.45C321.258 176.2 321.908 179.07 321.838 182.11C321.778 184.61 321.888 187.11 321.938 189.62C321.938 189.86 322.018 190.1 322.058 190.33C322.148 190.33 322.238 190.35 322.338 190.36C322.378 190.01 322.448 189.66 322.458 189.31C322.498 187.36 322.508 185.41 322.558 183.46C322.568 183.03 322.688 182.6 322.768 182.17V222.37L322.738 222.34ZM322.328 215.33C322.238 215.33 322.158 215.34 322.068 215.35V218.96C322.158 218.96 322.238 218.96 322.328 218.96V215.35V215.33Z" fill="black"/>
<path d="M129.347 141.27C129.157 143.52 129.137 145.7 128.767 147.82C128.327 150.37 126.657 151.56 123.707 151.6C118.647 151.68 113.587 151.7 108.527 151.71C102.947 151.71 97.3673 151.61 91.7873 151.69C88.9573 151.73 86.0973 151.86 83.2973 152.28C79.4873 152.85 77.1373 155.24 76.5573 159.02C76.1673 161.59 76.0073 164.2 75.9573 166.8C75.8573 171.84 75.8573 176.88 75.9073 181.92C75.9673 187.89 76.3773 193.81 78.5173 199.48C80.5573 204.89 83.8973 209.09 89.5373 211.09C92.3473 212.09 95.2873 212.4 98.2473 212.41C107.077 212.44 115.907 212.41 124.747 212.49C126.057 212.5 127.427 212.72 128.627 213.19C129.407 213.5 130.347 214.36 130.507 215.12C130.957 217.26 131.057 219.48 131.267 221.66C131.337 222.41 130.767 222.33 130.277 222.33C127.547 222.33 124.807 222.36 122.077 222.35C113.207 222.33 104.337 222.46 95.4773 222.22C87.7473 222.02 80.6573 219.68 74.8373 214.37C70.8073 210.7 68.0673 206.15 66.2473 201.05C64.3573 195.75 63.4273 190.28 63.0573 184.68C62.7373 179.86 62.8173 175.05 63.3273 170.25C63.9373 164.52 65.1073 158.93 68.1173 153.89C71.3573 148.46 76.2073 145.15 82.1673 143.3C87.1473 141.75 92.2773 141.28 97.4573 141.27C107.437 141.25 117.417 141.25 127.387 141.25C127.937 141.25 128.487 141.25 129.337 141.25L129.347 141.27Z" fill="black"/>
<path d="M188.961 211.54C188.641 211.97 188.281 212.37 188.001 212.83C185.921 216.34 182.661 218.4 179.011 219.84C171.341 222.86 163.491 223.21 155.581 220.92C149.491 219.15 145.081 215.47 143.791 209.02C142.031 200.28 145.731 191.71 155.401 188.39C158.881 187.19 162.501 186.67 166.171 186.63C172.531 186.57 178.881 186.58 185.241 186.6C186.091 186.6 186.421 186.38 186.421 185.49C186.381 179.75 184.141 175.64 177.911 174.12C175.391 173.51 172.761 173.16 170.161 173.08C164.881 172.92 159.591 173.03 154.311 173.01C153.721 173.01 153.131 172.95 152.551 172.87C150.101 172.51 149.301 171.63 149.161 169.2C149.101 168.14 149.061 167.07 148.931 166.01C148.811 164.99 149.281 164.76 150.191 164.77C155.141 164.79 160.091 164.79 165.051 164.75C169.821 164.71 174.581 164.77 179.291 165.64C184.681 166.64 189.611 168.53 192.981 173.17C195.111 176.1 196.241 179.45 196.481 183.02C196.771 187.34 196.901 191.69 196.931 196.02C197.001 204.19 196.931 212.36 196.971 220.53C196.971 221.61 196.641 222 195.591 221.86C194.311 221.69 193.021 221.64 191.761 221.41C190.341 221.15 189.621 220.15 189.541 218.76C189.421 216.71 189.391 214.65 189.321 212.59C189.311 212.27 189.291 211.96 189.271 211.64C189.181 211.61 189.091 211.58 188.991 211.55L188.961 211.54ZM174.251 194.67C174.251 194.74 174.251 194.82 174.251 194.89C169.901 194.89 165.541 194.81 161.191 194.92C158.381 194.99 156.271 196.3 155.281 199.08C154.411 201.52 154.221 204.02 154.491 206.57C154.791 209.31 156.251 211.31 158.661 212.55C159.721 213.1 160.901 213.5 162.081 213.75C166.751 214.76 171.471 214.58 176.181 213.99C180.551 213.44 183.601 211.19 185.081 206.95C186.351 203.32 186.161 199.57 186.201 195.83C186.201 194.9 185.901 194.63 185.001 194.64C181.421 194.68 177.831 194.66 174.251 194.66V194.67Z" fill="black"/>
<path d="M224.265 188.96C224.265 199.59 224.265 210.22 224.265 220.86C224.265 222.53 224.265 222.57 222.545 222.49C220.855 222.41 219.145 222.36 217.475 222.08C214.695 221.61 213.725 220.41 213.685 217.55C213.635 213.83 213.635 210.12 213.625 206.4C213.625 189.07 213.625 171.75 213.605 154.42C213.605 152.62 213.525 150.82 213.455 149.02C213.425 148.25 213.725 147.9 214.485 148C216.235 148.23 218.025 148.32 219.735 148.74C222.515 149.42 223.875 151.27 223.975 154.33C224.115 158.44 224.215 162.56 224.235 166.68C224.275 174.11 224.245 181.54 224.245 188.97H224.265V188.96Z" fill="black"/>
<path d="M322.33 215.33V218.94C322.24 218.94 322.16 218.94 322.07 218.94V215.33C322.16 215.33 322.24 215.32 322.33 215.31V215.33Z" fill="white"/>
<path d="M59.05 -9.76585e-06C59.05 -9.76585e-06 59.14 0.0299902 59.2 0.0799902C60.7867 1.44666 60.85 2.85999 59.39 4.31999C57.57 6.13999 55.79 7.99999 53.9 9.74999C53.46 10.16 52.65 10.42 52.04 10.37C41.25 9.54999 30.44 9.40999 19.62 9.45999C19.5 9.45999 19.38 9.51999 18.92 9.63999C18.71 20.22 18.89 30.88 18.81 41.62C19.28 41.67 19.64 41.75 20 41.75C29.15 41.7 38.31 41.65 47.46 41.57C52.25 41.52 56.81 40.69 60.62 37.5C60.65 37.47 60.7 37.47 60.9 37.39C61.51 38.06 62.22 38.75 62.78 39.54C62.94 39.76 62.78 40.43 62.54 40.66C59.99 43.15 57.42 45.63 54.77 48.03C54.29 48.47 53.45 48.74 52.78 48.73C46.92 48.62 41.06 48.38 35.19 48.28C30.07 48.19 24.95 48.24 19.84 48.23C19.56 48.23 19.27 48.26 18.67 48.3C18.67 51.53 18.67 54.75 18.67 57.96C18.67 58.74 18.78 59.53 18.79 60.31C18.98 68.92 19.17 77.53 19.33 86.14C19.35 87.23 19.76 87.72 20.87 87.72C22.66 87.73 24.45 87.81 26.23 87.89C27.05 87.93 27.86 88.04 28.72 88.12V92.88H0C0.07 91.48 0.11 90.09 0.26 88.72C0.29 88.5 0.83 88.19 1.16 88.16C2.86 88.01 4.56 87.91 6.26 87.87C7.19 87.84 7.64 87.47 7.68 86.54C7.76 84.85 7.94 83.15 7.96 81.46C8.01 77.9 7.97 74.34 7.99 70.78C8.07 56.62 8.18 42.45 8.22 28.29C8.23 23.57 8.08 18.85 7.94 14.13C7.89 12.56 7.62 11.01 7.46 9.43999C7.39 8.75999 7.06 8.40999 6.34 8.37999C4.81 8.31999 3.27 8.16999 1.74 8.16999C0.66 8.16999 0.08 7.85999 0.23 6.66999C0.31 6.05999 0.31 5.41999 0.23 4.80999C0.07 3.57999 0.61 3.27999 1.78 3.27999C16.22 3.31999 30.66 3.31999 45.1 3.32999C48.34 3.32999 51.61 3.43999 54.67 2.12999C56.11 1.50999 57.49 0.74999 59.04 -0.0100098L59.05 -9.76585e-06Z" fill="black"/>
<path d="M383.253 50.37C380.083 52.75 376.983 55.12 373.813 57.39C373.303 57.76 372.473 57.8 371.793 57.78C364.063 57.61 356.333 57.42 348.603 57.19C347.643 57.16 347.403 57.46 347.413 58.38C347.453 65.01 347.423 71.64 347.473 78.26C347.483 80.2 347.683 82.15 347.773 84.09C347.823 85.05 348.213 85.63 349.233 85.74C352.243 86.08 355.243 86.57 358.253 86.8C362.853 87.15 367.463 87.3 372.073 86.69C377.793 85.93 382.823 83.68 387.263 80.07C387.363 79.99 387.463 79.93 387.563 79.86C387.653 79.9 387.743 79.92 387.793 79.98C390.143 82.34 390.113 82.4 387.673 84.7C385.073 87.15 382.513 89.64 379.953 92.12C379.143 92.91 378.243 93.28 377.053 93.27C362.533 93.19 348.013 93.16 333.493 93.12C332.003 93.12 330.513 93.12 328.873 93.12C328.873 91.53 328.823 90.17 328.913 88.83C328.933 88.59 329.493 88.21 329.833 88.19C331.483 88.05 333.153 87.97 334.813 87.94C335.673 87.92 335.993 87.49 336.063 86.73C336.233 84.8 336.553 82.86 336.563 80.93C336.693 67.84 336.813 54.76 336.813 41.67C336.813 36.25 336.523 30.83 336.313 25.41C336.203 22.64 336.153 22.63 333.343 22.45C332.303 22.38 331.263 22.35 330.223 22.41C329.273 22.47 328.923 21.99 328.893 21.19C328.853 20.04 328.893 18.88 328.893 17.49C329.923 17.49 330.903 17.49 331.883 17.49C344.073 17.49 356.263 17.49 368.463 17.51C372.653 17.51 376.663 16.88 380.153 14.33C380.373 14.17 380.973 14.21 381.183 14.39C381.743 14.87 382.273 15.44 382.643 16.07C382.823 16.38 382.793 17.08 382.553 17.31C380.373 19.53 378.113 21.67 375.923 23.89C375.103 24.72 374.163 24.69 373.153 24.61C369.683 24.3 366.213 23.87 362.723 23.73C358.613 23.56 354.493 23.64 350.373 23.62C349.913 23.62 349.443 23.69 349.003 23.61C347.923 23.4 347.643 23.84 347.633 24.86C347.583 33.14 347.513 41.42 347.403 49.71C347.393 50.66 347.723 50.9 348.633 50.89C354.713 50.85 360.783 50.96 366.853 50.82C370.953 50.73 375.083 50.67 378.893 48.71C381.563 47.34 381.723 47.46 383.253 50.4V50.37Z" fill="black"/>
<path d="M74.3263 17.5499C74.9363 17.5499 75.4263 17.5499 75.9263 17.5499C87.9963 17.5499 100.066 17.5699 112.126 17.5299C114.406 17.5299 116.686 17.2899 118.966 17.1099C121.266 16.9199 123.286 15.9399 125.116 14.6099C125.906 14.0399 126.346 14.1399 126.986 14.7699C128.696 16.4499 128.716 16.4299 127.006 18.1099C125.026 20.0599 123.036 22.0099 121.076 23.9799C120.446 24.6099 119.796 24.7399 118.866 24.6799C112.606 24.2699 106.346 23.9599 100.076 23.6699C98.1663 23.5799 96.2463 23.6699 94.3363 23.6699C93.5063 23.6699 93.0163 23.8999 93.0063 24.8599C92.9463 33.1399 92.8563 41.4299 92.7563 49.7099C92.7563 50.5099 93.0463 50.8399 93.8363 50.8299C101.736 50.7399 109.646 50.7299 117.546 50.5399C120.296 50.4699 122.976 49.6999 125.346 48.2199C126.416 47.5499 127.066 47.6399 127.756 48.7399C128.806 50.3899 128.876 50.3599 127.316 51.5299C124.756 53.4499 122.216 55.3899 119.606 57.2299C119.016 57.6499 118.136 57.9299 117.436 57.8699C109.676 57.1499 101.896 57.2999 94.1164 57.2899C93.0564 57.2899 92.7563 57.6299 92.7763 58.6599C92.8963 65.9499 92.9563 73.2399 93.0563 80.5299C93.0763 81.7299 93.2364 82.9299 93.2264 84.1199C93.2064 85.2699 93.7663 85.7599 94.8363 85.8899C97.5963 86.2099 100.356 86.6999 103.126 86.8199C107.186 86.9999 111.266 87.0099 115.336 86.9099C121.526 86.7599 126.976 84.4599 131.906 80.8299C133.126 79.9299 133.236 79.5099 134.296 81.0799C134.456 81.3199 134.656 81.5399 134.876 81.7299C135.486 82.2699 135.426 82.7399 134.836 83.2699C133.966 84.0399 133.146 84.8599 132.296 85.6599C129.876 87.9399 127.476 90.2299 125.016 92.4599C124.566 92.8699 123.896 93.2899 123.326 93.2799C108.476 93.2599 93.6163 93.1799 78.7663 93.1099C77.6063 93.1099 76.4263 93.1099 75.2763 92.9899C74.9363 92.9499 74.4063 92.4899 74.3763 92.1999C74.2763 90.9299 74.3363 89.6399 74.3363 88.1399C75.8463 88.1399 77.2463 88.1699 78.6363 88.1399C81.2063 88.0699 81.5564 87.9299 81.6864 85.4999C81.8864 81.5799 82.2463 77.6499 82.2763 73.7299C82.3563 61.5899 82.3563 49.4499 82.2763 37.3199C82.2463 32.9399 81.8463 28.5599 81.6463 24.1799C81.5963 23.0699 81.2363 22.5499 79.9963 22.5999C78.3763 22.6499 76.7563 22.5099 75.1463 22.3599C74.8563 22.3299 74.3864 21.8599 74.3664 21.5699C74.2764 20.2999 74.3263 19.0199 74.3263 17.5699V17.5499Z" fill="black"/>
<path d="M267.111 52.8899C266.971 58.2099 267.241 63.4799 268.781 68.6199C271.601 78.0099 277.911 83.5599 287.541 85.3699C294.761 86.7299 301.761 86.2399 308.361 82.6899C311.201 81.1599 313.801 79.3199 316.001 76.9599C316.701 76.2099 317.151 76.2499 317.771 77.0399C319.601 79.3699 319.641 79.4499 317.621 81.6499C311.701 88.0999 304.311 91.8599 295.711 93.2299C289.091 94.2899 282.521 94.0099 276.131 91.8599C266.541 88.6399 260.881 81.7599 258.211 72.2699C256.431 65.9099 256.131 59.4099 256.591 52.8299C256.921 48.1099 257.481 43.4599 258.981 38.9499C261.371 31.7799 266.061 26.5399 272.381 22.5299C278.221 18.8299 284.561 17.0599 291.441 16.7399C298.971 16.3899 306.251 17.3999 313.321 20.0099C314.861 20.5799 315.791 21.2399 315.851 23.1399C315.971 27.3099 316.381 31.4799 316.721 35.6399C316.811 36.6899 316.561 37.0899 315.391 37.0699C311.831 37.0199 311.831 37.0699 310.841 33.7099C310.551 32.7199 310.171 31.7399 309.991 30.7299C309.661 28.8399 308.531 27.7299 306.851 26.8999C303.661 25.3199 300.351 24.2399 296.811 23.7499C292.091 23.0899 287.381 22.8499 282.681 23.8099C274.561 25.4699 269.281 30.8499 268.081 39.0499C267.411 43.6199 267.171 48.2499 266.741 52.8499C266.861 52.8499 266.981 52.8699 267.101 52.8799L267.111 52.8899Z" fill="black"/>
<path d="M148.313 17.61C148.833 17.59 149.193 17.56 149.563 17.56C158.213 17.56 166.863 17.58 175.523 17.53C176.663 17.53 177.133 17.83 177.023 18.98C176.943 19.8 176.933 20.64 176.973 21.46C177.013 22.33 176.613 22.61 175.773 22.62C173.403 22.67 171.043 22.8 168.673 22.86C167.943 22.88 167.663 23.15 167.633 23.9C167.443 28.2 167.043 32.49 167.013 36.79C166.933 49.54 166.973 62.3 167.033 75.05C167.043 78.19 167.303 81.33 167.403 84.48C167.433 85.37 167.843 85.74 168.663 85.86C176.663 87.02 184.703 87.65 192.753 86.59C197.803 85.93 202.263 83.71 206.283 80.65C207.153 79.99 207.563 80.13 208.153 80.93C209.523 82.79 209.563 82.76 207.983 84.43C205.503 87.05 202.993 89.65 200.533 92.28C199.703 93.17 198.783 93.42 197.543 93.38C192.143 93.2 186.733 93.1 181.333 93.07C172.643 93.02 163.943 93.04 155.253 93.05C153.383 93.05 151.513 93.12 149.643 93.21C148.703 93.25 148.233 92.98 148.323 91.96C148.393 91.1 148.363 90.22 148.323 89.35C148.293 88.6 148.593 88.34 149.353 88.33C150.973 88.31 152.593 88.17 154.213 88.14C155.133 88.12 155.593 87.72 155.673 86.82C155.853 84.64 156.183 82.46 156.213 80.27C156.353 66.94 156.483 53.61 156.503 40.27C156.503 35.02 156.233 29.76 156.063 24.51C156.003 22.75 155.933 22.7 154.163 22.6C152.583 22.51 151.013 22.4 149.433 22.38C148.653 22.37 148.283 22.17 148.323 21.32C148.373 20.13 148.333 18.93 148.333 17.59L148.313 17.61Z" fill="black"/>
<path d="M216.737 22.2701V17.6101H244.407C244.407 18.9101 244.407 20.1401 244.407 21.3701C244.407 22.0601 244.127 22.3801 243.357 22.3901C241.487 22.4101 239.617 22.5901 237.747 22.6001C236.747 22.6001 236.337 22.9501 236.307 23.9701C236.167 28.3901 235.857 32.8201 235.837 37.2401C235.797 50.7001 235.837 64.1501 235.907 77.6101C235.927 80.5401 236.217 83.4801 236.327 86.4101C236.367 87.5801 236.817 88.1401 238.047 88.1101C240.157 88.0601 242.277 88.1001 244.477 88.1001V92.9301C244.097 92.9601 243.707 93.0101 243.307 93.0101C234.947 93.0301 226.587 93.0101 218.227 93.0801C216.917 93.0901 216.557 92.6501 216.667 91.4401C216.757 90.4701 216.687 89.4801 216.687 88.3701C218.997 88.2701 221.147 88.1501 223.297 88.1001C224.227 88.0801 224.747 87.8801 224.777 86.7901C224.887 82.7401 225.207 78.6901 225.217 74.6401C225.257 60.4801 225.227 46.3201 225.167 32.1601C225.157 29.2701 224.857 26.3801 224.747 23.4901C224.717 22.7001 224.287 22.6701 223.697 22.6401C221.427 22.5401 219.157 22.4101 216.757 22.2801L216.737 22.2701Z" fill="black"/>
</g>
<defs>
<clipPath id="clip0_1057_7253">
<rect width="389.52" height="222.51" fill="white"/>
</clipPath>
</defs>
</svg>
