<svg width="160" height="162" viewBox="0 0 160 162" fill="none" xmlns="http://www.w3.org/2000/svg">
<circle cx="79.7266" cy="81.6367" r="34.5" stroke="black"/>
<circle cx="79.7266" cy="81.6367" r="42.5" stroke="black"/>
<circle cx="79.7266" cy="81.6367" r="46.3" stroke="black" stroke-width="1.4"/>
<circle cx="79.7266" cy="81.6367" r="57.4" stroke="black" stroke-width="1.2"/>
<circle cx="79.7266" cy="81.6367" r="63.1" stroke="black" stroke-width="1.8"/>
<path d="M145.727 81.1367C145.727 117.304 116.184 146.637 79.7266 146.637C43.2687 146.637 13.7266 117.304 13.7266 81.1367C13.7266 44.9691 43.2687 15.6367 79.7266 15.6367C116.184 15.6367 145.727 44.9691 145.727 81.1367Z" stroke="black" stroke-width="2"/>
<path fill-rule="evenodd" clip-rule="evenodd" d="M71.7266 2.6427C53.267 0.631119 48.4155 7.145 35.234 13.1412C31.3743 20.6384 26.3888 21.7323 22.6527 23.1412C19.1698 24.4546 12.9036 37.8474 7.86968 44.6412L4.7262 51.1413C4.7262 59.1413 4.25362 56.6402 0.672895 65.0165C-1.9487 71.1491 3.87728 77.079 4.72358 89.6413C5.04319 94.3854 7.87267 102.715 7.87267 105.141C7.87267 109.805 9.8912 117.714 14.2266 124.141C18.1191 129.912 24.6382 133.67 26.7266 140.141C37.6263 150.672 30.7266 146.641 45.2266 151.141C50.7041 152.173 58.7267 155.855 62.2266 157.141C74.2654 161.567 95.7532 162.442 106.73 158.641C109.488 155.876 119.291 151.54 128.262 145.321C136.685 136.641 146.424 133.505 150.73 124.141C153.941 119.313 162.641 78.2968 158.227 68.6413C156.929 65.8022 152.465 52.4542 150.73 47.1413C146.566 34.3848 139.309 21.1057 132.227 15.1413C125.276 9.28836 126.812 12.1551 116.727 9.09372C112.254 7.73604 108.7 6.77743 100.227 3.13672C97.8933 2.13422 91.9985 1.13526 90.2266 0.241233C82.2384 -0.988587 78.4009 2.89678 71.7266 2.6427ZM79.3001 152.318C118.75 152.318 150.73 120.256 150.73 80.7059C150.73 41.1556 118.75 9.09372 79.3001 9.09372C39.8502 9.09372 7.86968 41.1556 7.86968 80.7059C7.86968 120.256 39.8502 152.318 79.3001 152.318Z" fill="black"/>
</svg>
