<?xml version="1.0" encoding="utf-8"?>
<!-- Generator: Adobe Illustrator 27.4.1, SVG Export Plug-In . SVG Version: 6.00 Build 0)  -->
<svg version="1.1" id="Layer_1" xmlns="http://www.w3.org/2000/svg" xmlns:xlink="http://www.w3.org/1999/xlink" x="0px" y="0px"
	 viewBox="0 0 236 212.8" style="enable-background:new 0 0 236 212.8;" xml:space="preserve">
<style type="text/css">
	.st0{fill:#FFFFFF;}
</style>
<path class="st0" d="M231.9,166.7c-9.1,9.6-23.9,11.7-35.2,4.9c-5.2-3.1-9-8.1-11.3-13.6c-1.9-4.7-3.1-9.8-4.1-14.7
	c-1.9-9-3.1-18.2-3.9-27.3c0.3-0.4,0.6-0.8,0.9-1.2c6.5-9.1,9.5-19.7,10.4-30.8c0.8-10.3-0.1-22.3-6.8-30.8
	c-0.7-0.9-1.4-1.7-2.3-2.4c-1.1-1-2.7-0.8-3.5,0.5c-1.4,2.3-2,5.1-2.5,7.8c-0.8,4.2-1.2,8.5-1.5,12.8c-0.8,11.4-0.6,22.9,0.1,34.3
	c0.2,2.9,0.4,5.7,0.6,8.6c-7.6,9.8-17.8,17.6-28,24.3c-5.1,3.4-10.4,6.4-15.7,9.5c0.2-1.2,0.4-2.4,0.7-3.6
	c4.1-22.2,6.6-44.6,8.1-67.1c1-14,1.6-28.1,1.8-42.1c0,0,0-0.1,0-0.1c0.6-7.4,0-15-2.4-22C135,7,130.6,0.2,123.1,0
	c-6.1-0.2-11.4,4.1-14.9,8.6c-3,3.9-5.7,8-8.1,12.2c-5.4,9.2-10,18.9-14,28.8C80.3,63.9,76,78.7,73,93.8c-1.9,9.3-3.2,18.8-4.1,28.2
	c0,0.5-0.1,0.9-0.1,1.4c-3.2,2-6.5,4-9.8,5.9c-3.8,2.1-7.6,4.2-11.5,6.1c-2.6,1.3-0.3,5.2,2.3,3.9c5.9-3,12.1-5.5,18.4-7.5
	c-0.1,1.9-0.2,3.9-0.1,5.8c0.2,9.6,1.2,19.3,2.7,28.8c0.4,2.6,0.9,5.2,1.4,7.8c-0.9,0.2-1.9,0.3-2.8,0.5c-7,1.2-14.1,2.1-21.2,2.1
	c-7.1,0-14.1-0.7-21.1-1.9c-6.6-1.2-13.2-2.9-19.3-5.6c-1.4-0.6-2.7-1.3-4-2c-2.5-1.4-4.8,2.5-2.3,3.9c6.1,3.4,12.8,5.5,19.5,7
	c7.5,1.7,15.2,2.7,22.9,3c7.5,0.3,14.8-0.4,22.3-1.5c2.3-0.3,4.7-0.7,7-1.1c2.2,9.1,5.4,18.1,10.4,26c1.7,2.6,3.5,5.1,5.7,7.3
	c2,2.1,5.2-1.1,3.2-3.2c-7.9-8.2-12-19.8-14.8-31c4.2-0.9,8.3-1.9,12.3-3.2c6.7-2.1,13.2-4.9,19.3-8.5c-3,4.7-5,10.1-4.8,15.7
	c0.2,4.9,2.2,9.6,5.7,13.1c0.8,0.8,1.7,1.5,2.6,2.2c1.3,1,2.8-0.2,3.3-1.3c5.4-13.3,9-27.3,11.9-41.4c0.9-0.5,1.7-1.1,2.6-1.6
	c5.8-3.4,11.6-6.7,17.2-10.4c9.3-6.1,18.3-13.1,25.7-21.5c0.8,7.3,1.8,14.5,3.2,21.7c1,5.1,2.2,10.2,4,15.2
	c2.3,6.5,6.2,12.2,11.8,16.3c11.3,8.3,27.5,7.9,38.7-0.5c1.5-1.1,2.9-2.3,4.1-3.7C237.1,167.8,233.9,164.6,231.9,166.7L231.9,166.7z
	 M127.2,132.1c-0.8-1.1-1.7-2.1-2.7-3c-5.8-5-13.8-5.8-21.1-6.2c-10.1-0.6-20.1,0.4-29.8,2.6c7.6-4.9,14.9-10.2,21.8-16.1
	C109.1,97.9,121,84,129.2,68.1c1.9-3.7,3.7-7.4,5.2-11.3c-0.7,17.2-2,34.4-4,51.5C129.5,116.3,128.5,124.2,127.2,132.1z M74.9,109.4
	c2.3-16.1,6.1-32,11.3-47.3c3.8-11,8.3-21.7,13.8-32c3.1-5.8,6.4-11.5,10.2-16.8c0.4-0.6,0.8-1.1,1.2-1.6c0,0,0-0.1,0.1-0.1
	c0,0,0-0.1,0.1-0.1c2.5-3.1,5.6-6,9.6-6.8c3-0.6,5.8,0.7,7.8,2.9c4.5,5,5.8,12.9,6.2,19.4c0.6,9.5-1.3,18.9-4.7,27.7
	c-6.3,16.5-16.7,31.2-29.2,43.5c-8.5,8.4-17.9,15.7-27.8,22.3C73.9,116.7,74.4,113,74.9,109.4L74.9,109.4z M76.5,173.3
	c-2.2-10.3-3.4-20.6-4-31.2c-0.2-3.9-0.1-7.8,0.1-11.6c7.6-2,15.3-3.1,23.2-3.2c4.2-0.1,8.3,0.1,12.4,0.6c3.2,0.3,6.6,0.9,9.5,2.3
	c2.5,1.2,4.9,3,6.3,5.5c1.4,2.5,1.3,5.3,0.6,7.9c-1.9,6.3-7.3,11.7-12.7,15.3c-6.4,4.3-13.2,7.7-20.5,10.3
	C86.7,170.9,81.6,172.2,76.5,173.3z M119.9,168.6c-2,7.6-4.2,15.2-7,22.6c-0.7-0.8-1.1-1.3-1.7-2.2c-1.2-1.9-1.9-3.9-2.2-6.1
	c-0.8-5.9,2.1-11.9,5.5-16.7c2.2-3.1,4.9-5.7,7.9-8C121.6,161.6,120.8,165.1,119.9,168.6L119.9,168.6z M176.3,75.3
	c0.1-2.3,0.3-4.7,0.5-7c0.1-1,0.2-2.1,0.3-3.1c0.1-0.5,0.1-0.9,0.2-1.4c0-0.1,0.1-0.4,0.1-0.5c0-0.2,0.1-0.4,0.1-0.6
	c0.2-1.6,0.5-3.3,0.9-4.9c0.1-0.5,0.2-0.9,0.4-1.4c5.2,6.8,5.9,16.9,5.6,25.2c-0.2,5.4-1.1,10.8-2.6,16.1c-1.1,4-2.7,7.6-4.8,11
	C176,97.6,175.8,86.4,176.3,75.3L176.3,75.3z"/>
</svg>
