<svg width="236" height="213" viewBox="0 0 236 213" fill="none" xmlns="http://www.w3.org/2000/svg">
<g clip-path="url(#clip0_1001_6762)">
<path d="M231.689 166.67C222.619 176.23 207.819 178.39 196.489 171.57C191.289 168.44 187.459 163.52 185.149 157.95C183.209 153.27 182.059 148.16 181.009 143.22C179.089 134.21 177.889 125.05 177.079 115.88C177.379 115.48 177.679 115.09 177.969 114.69C184.489 105.6 187.469 94.9497 188.329 83.8897C189.129 73.5697 188.219 61.5497 181.539 53.1297C180.849 52.2597 180.089 51.4497 179.249 50.7097C178.149 49.7297 176.519 49.8797 175.719 51.1697C174.289 53.4597 173.699 56.3197 173.219 58.9397C172.439 63.1597 172.029 67.4597 171.749 71.7397C170.999 83.1397 171.179 94.6197 171.859 106.02C172.029 108.87 172.229 111.73 172.469 114.58C164.869 124.35 154.689 132.15 144.429 138.89C139.309 142.26 133.979 145.25 128.709 148.37C128.939 147.18 129.159 145.99 129.379 144.8C133.429 122.63 135.929 100.17 137.499 77.6897C138.479 63.6697 139.069 49.6297 139.309 35.5897C139.309 35.5497 139.309 35.5097 139.309 35.4697C139.909 28.0897 139.329 20.4597 136.959 13.4897C134.749 7.01967 130.329 0.229674 122.799 -0.000326263C116.749 -0.180326 111.449 4.05967 107.919 8.58967C104.909 12.4597 102.269 16.6197 99.779 20.8297C94.349 30.0197 89.769 39.6897 85.799 49.5897C80.069 63.8897 75.759 78.7397 72.749 93.8397C70.889 103.16 69.519 112.59 68.609 122.06C68.569 122.51 68.519 122.96 68.479 123.41C65.239 125.43 61.959 127.4 58.629 129.27C54.839 131.4 50.999 133.44 47.119 135.4C44.539 136.72 46.809 140.59 49.389 139.29C55.309 136.27 61.459 133.75 67.759 131.81C67.649 133.75 67.589 135.69 67.639 137.62C67.859 147.24 68.809 156.88 70.369 166.37C70.799 168.96 71.279 171.56 71.819 174.17C70.879 174.34 69.939 174.51 68.999 174.66C61.989 175.83 54.929 176.75 47.809 176.75C40.739 176.75 33.659 176.09 26.709 174.82C20.129 173.62 13.489 171.95 7.35902 169.22C5.99902 168.62 4.66902 167.95 3.36902 167.23C0.829017 165.83 -1.44098 169.71 1.09902 171.12C7.16902 174.48 13.889 176.62 20.629 178.16C28.139 179.87 35.849 180.86 43.549 181.16C51.049 181.45 58.389 180.75 65.809 179.68C68.149 179.34 70.479 178.96 72.809 178.54C75.009 187.67 78.179 196.65 83.169 204.5C84.819 207.1 86.709 209.58 88.849 211.8C90.859 213.89 94.039 210.71 92.029 208.62C84.129 200.4 79.999 188.78 77.279 177.66C81.439 176.78 85.569 175.74 89.629 174.44C96.329 172.3 102.829 169.5 108.909 165.98C105.949 170.68 103.879 176.12 104.139 181.71C104.369 186.62 106.379 191.28 109.789 194.81C110.579 195.63 111.449 196.34 112.349 197.03C113.629 198.01 115.179 196.86 115.659 195.69C121.019 182.39 124.649 168.39 127.519 154.32C128.369 153.78 129.229 153.25 130.099 152.74C135.879 149.31 141.719 146.05 147.319 142.34C156.599 136.19 165.649 129.24 173.039 120.84C173.799 128.11 174.829 135.35 176.269 142.5C177.289 147.61 178.489 152.75 180.229 157.66C182.529 164.14 186.479 169.9 192.039 174C203.369 182.33 219.549 181.95 230.709 173.53C232.189 172.41 233.579 171.2 234.859 169.85C236.849 167.75 233.679 164.56 231.679 166.67H231.689ZM126.989 132.13C126.209 131.04 125.299 130.04 124.279 129.17C118.479 124.2 110.469 123.42 103.149 123C93.079 122.41 83.089 123.36 73.389 125.64C81.009 120.74 88.329 115.39 95.239 109.5C108.849 97.8997 120.729 84.0497 128.989 68.1297C130.889 64.4697 132.639 60.6897 134.149 56.8297C133.409 74.0397 132.139 91.2297 130.179 108.35C129.269 116.29 128.219 124.22 126.989 132.13ZM74.629 109.41C76.949 93.3397 80.679 77.4597 85.949 62.0997C89.739 51.0497 94.249 40.4297 99.749 30.0997C102.839 24.3097 106.189 18.6297 109.999 13.2797C110.389 12.7297 110.799 12.1797 111.209 11.6397C111.239 11.5997 111.249 11.5797 111.269 11.5597C111.289 11.5297 111.309 11.5097 111.349 11.4597C113.799 8.37967 116.939 5.44967 120.929 4.63967C123.979 4.02967 126.689 5.30967 128.699 7.50967C133.209 12.4597 134.449 20.4197 134.869 26.8897C135.479 36.3897 133.579 45.7397 130.209 54.5997C123.939 71.0697 113.469 85.7697 100.999 98.1097C92.539 106.48 83.139 113.81 73.209 120.36C73.609 116.69 74.099 113.03 74.629 109.4V109.41ZM76.279 173.28C74.039 162.97 72.839 152.71 72.319 142.12C72.129 138.25 72.179 134.37 72.379 130.49C79.939 128.53 87.719 127.42 95.629 127.32C99.779 127.27 103.949 127.45 108.069 127.89C111.279 128.23 114.649 128.8 117.599 130.17C120.139 131.35 122.519 133.16 123.919 135.63C125.319 138.09 125.259 140.92 124.469 143.57C122.559 149.92 117.159 155.24 111.799 158.87C105.449 163.17 98.549 166.6 91.319 169.14C86.409 170.87 81.369 172.2 76.279 173.28ZM119.609 168.61C117.649 176.25 115.399 183.84 112.609 191.22C111.909 190.46 111.509 189.92 110.929 188.98C109.769 187.1 109.019 185.12 108.739 182.83C107.989 176.89 110.789 170.92 114.239 166.12C116.459 163.03 119.159 160.43 122.109 158.13C121.329 161.64 120.509 165.13 119.619 168.61H119.609ZM176.049 75.2997C176.159 72.9797 176.309 70.6497 176.509 68.3397C176.599 67.2897 176.709 66.2397 176.819 65.1997C176.869 64.7197 176.929 64.2497 176.989 63.7797C176.999 63.6897 177.049 63.3597 177.049 63.2997C177.079 63.0997 177.099 62.9097 177.129 62.7097C177.369 61.0697 177.649 59.4397 178.029 57.8297C178.139 57.3597 178.279 56.8897 178.409 56.4197C183.619 63.1897 184.349 73.3297 183.959 81.6097C183.709 87.0397 182.849 92.4597 181.329 97.6797C180.179 101.65 178.599 105.23 176.509 108.71C175.769 97.5997 175.509 86.4297 176.029 75.3097L176.049 75.2997Z" fill="black"/>
</g>
<defs>
<clipPath id="clip0_1001_6762">
<rect width="235.51" height="212.49" fill="white"/>
</clipPath>
</defs>
</svg>
