<svg width="31" height="28" viewBox="0 0 31 28" fill="none" xmlns="http://www.w3.org/2000/svg">
<g clip-path="url(#clip0_777_6380)">
<path d="M11.6582 28.0013C10.694 26.8959 9.90938 25.5971 9.32474 24.1624C8.86062 24.2643 8.39009 24.3466 7.91699 24.4054C5.39253 24.7243 1.96675 24.2369 0 22.4337L0.857728 21.4629C2.2783 22.7656 5.1156 23.4424 7.76058 23.1092C8.13623 23.0622 8.50933 22.9995 8.87985 22.9224C8.43881 21.5112 8.17854 19.9955 8.11572 18.4223C8.11572 18.4001 8.11444 18.3792 8.11316 18.357C7.73237 18.5177 7.35928 18.6954 6.99516 18.8888C6.95542 18.9097 6.91567 18.9319 6.87721 18.9528L6.27718 17.7977C6.31821 17.7755 6.35924 17.7533 6.40026 17.7311C6.99131 17.411 7.5657 17.0791 8.12085 16.7355C8.23367 14.1365 8.83498 11.3952 9.94528 8.40693C11.0812 5.34939 12.4262 2.99351 14.057 1.20472C14.4673 0.755238 15.2763 0 16.0917 0C17.2507 0 18.211 0.759158 18.661 2.03052C19.5226 4.46218 18.4661 7.13948 17.5956 8.94134C16.6276 10.947 15.0737 12.9044 12.9762 14.7572C12.4582 15.2145 11.9082 15.664 11.3312 16.1017C12.5056 15.9227 13.6954 15.8796 14.8686 15.9776C15.4712 16.0286 16.0122 16.2559 16.4314 16.6348C16.9597 17.1118 17.2199 17.7298 17.184 18.4223C17.1174 19.6911 16.0712 20.884 15.1955 21.5191C13.789 22.5395 12.2249 23.3183 10.5774 23.8279C11.0992 25.0614 11.7851 26.1772 12.6159 27.1311L11.6569 27.9987L11.6582 28.0013ZM9.38372 17.8905C9.38629 18.0512 9.39013 18.2106 9.39654 18.3701C9.45552 19.8557 9.70425 21.2839 10.1248 22.6062C11.6684 22.1384 13.1364 21.4132 14.4519 20.4581C15.2737 19.8622 15.8699 18.9986 15.9032 18.357C15.9186 18.0643 15.816 17.8291 15.5814 17.6161C15.3737 17.428 15.0827 17.3104 14.7621 17.2829C12.9659 17.1314 11.1223 17.3443 9.38244 17.8905H9.38372ZM16.0904 1.30795C15.9045 1.30795 15.4442 1.60194 14.9955 2.09454C13.48 3.7579 12.2197 5.97396 11.1428 8.86948C10.2158 11.3652 9.65937 13.6727 9.46321 15.8561C12.7133 13.61 15.184 10.981 16.4456 8.36642C17.2764 6.64427 18.1431 4.41775 17.4546 2.47608C17.3302 2.1246 16.9481 1.30795 16.0904 1.30795Z" fill="black"/>
<path d="M15.0151 26.3978L14.2895 25.7275C13.6561 25.1421 13.0061 24.4091 12.9766 23.4043C12.9522 22.5536 13.3766 21.686 14.2741 20.7518C14.7241 20.284 15.2036 19.8698 15.6959 19.4961C16.8755 14.6276 17.5422 9.62575 17.6819 4.55859L18.964 4.59518C18.8345 9.27949 18.2627 13.9102 17.2601 18.4351C17.4114 18.3423 17.5614 18.2509 17.7114 18.1607L18.1076 17.9242C19.4602 17.118 20.9474 16.2334 22.0193 15.0823C21.7616 12.0548 22.0103 8.92277 22.7795 6.16053C22.8501 5.90966 23.0488 5.7215 23.2988 5.66924C23.5488 5.61697 23.8052 5.70844 23.9668 5.91097C25.7912 8.17929 25.2053 12.3109 24.0796 14.4211C23.8693 14.8157 23.6219 15.1829 23.3462 15.5265C23.5309 17.2448 23.8911 18.916 24.4206 20.4421C24.8104 21.5397 25.7886 22.4086 26.9131 22.6543C28.0375 22.8986 29.2785 22.5118 30.0773 21.6691L31.0004 22.5759C29.9016 23.7362 28.1939 24.268 26.6464 23.9322C25.1002 23.5963 23.7527 22.3995 23.2155 20.8838C22.759 19.5719 22.4231 18.1607 22.2077 16.7038C21.1474 17.6302 19.9064 18.3698 18.755 19.0558L18.3614 19.291C17.8075 19.6229 17.2998 19.943 16.828 20.2775C16.3934 22.0218 15.8934 23.7492 15.3292 25.4544L15.0164 26.4004L15.0151 26.3978ZM15.1113 21.7488C14.5331 22.372 14.2459 22.9143 14.2587 23.3638C14.2651 23.5741 14.3395 23.7754 14.4561 23.9687C14.6869 23.2318 14.9049 22.4922 15.1113 21.7488ZM23.636 8.11788C23.3142 9.77209 23.1706 11.5204 23.2039 13.2634C23.8373 11.7412 24.0552 9.67801 23.636 8.11788Z" fill="black"/>
</g>
<defs>
<clipPath id="clip0_777_6380">
<rect width="31" height="28" fill="white"/>
</clipPath>
</defs>
</svg>
