<svg width="97" height="99" viewBox="0 0 97 99" fill="none" xmlns="http://www.w3.org/2000/svg">
<circle cx="48.7261" cy="50.1968" r="20.6929" stroke="black"/>
<circle cx="48.7264" cy="50.1971" r="25.537" stroke="black"/>
<circle cx="48.7266" cy="50.1973" r="27.759" stroke="black" stroke-width="1.4"/>
<circle cx="48.727" cy="50.1977" r="34.5196" stroke="black" stroke-width="1.2"/>
<circle cx="48.7273" cy="50.198" r="37.8527" stroke="black" stroke-width="1.8"/>
<path d="M88.2966 49.8954C88.2966 71.5746 70.588 89.1618 48.7274 89.1618C26.8669 89.1618 9.1582 71.5746 9.1582 49.8954C9.1582 28.2161 26.8669 10.6289 48.7274 10.6289C70.588 10.6289 88.2966 28.2161 88.2966 49.8954Z" stroke="black" stroke-width="2"/>
<path fill-rule="evenodd" clip-rule="evenodd" d="M43.8824 2.36581C32.7049 1.14777 29.7673 5.092 21.7857 8.72274C19.4486 13.2624 16.4298 13.9248 14.1676 14.7778C12.0587 15.5732 8.26447 23.6827 5.21635 27.7963L3.31293 31.7322C3.31293 36.5763 3.02678 35.0619 0.858617 40.1338C-0.728787 43.8472 2.79891 47.4378 3.31135 55.0444C3.50487 57.917 5.21815 62.9606 5.21815 64.4298C5.21815 67.2537 6.4404 72.043 9.06551 75.9345C11.4225 79.4284 15.3699 81.7042 16.6344 85.6226C23.2343 91.9992 19.0564 89.5584 27.8363 92.2832C31.153 92.9079 36.0108 95.1373 38.13 95.9163C45.4196 98.596 58.4307 99.1259 65.0771 96.8246C66.7473 95.1501 72.6833 92.5247 78.115 88.7589C83.2155 83.5033 89.1124 81.6042 91.72 75.9345C93.6639 73.0112 98.9319 48.1752 96.259 42.3286C95.4731 40.6096 92.7704 32.5272 91.72 29.3102C89.1981 21.586 84.8043 13.5454 80.5157 9.93381C76.3074 6.38982 77.2369 8.12568 71.1303 6.27197C68.4222 5.44988 66.2702 4.86943 61.1394 2.66494C59.7266 2.05792 56.1572 1.45304 55.0843 0.911694C50.2474 0.167025 47.9237 2.51966 43.8824 2.36581ZM48.4682 92.9958C72.3555 92.9958 91.72 73.582 91.72 49.6339C91.72 25.6858 72.3555 6.27197 48.4682 6.27197C24.5809 6.27197 5.21635 25.6858 5.21635 49.6339C5.21635 73.582 24.5809 92.9958 48.4682 92.9958Z" fill="black"/>
</svg>
