<svg width="95" height="95" viewBox="0 0 95 95" fill="none" xmlns="http://www.w3.org/2000/svg">
<path d="M47.4967 93.4698C44.3435 93.4698 41.238 93.155 38.2031 92.5312C38.3195 93.0978 38.4454 93.6395 38.5751 94.1546C41.465 94.704 44.4465 94.9939 47.4967 94.9939C49.1334 94.9939 50.751 94.9119 52.3438 94.7497C51.9776 94.2938 51.6037 93.8131 51.2317 93.3172C49.9956 93.4164 48.75 93.4679 47.4967 93.4679V93.4698Z" fill="black"/>
<path d="M51.2344 93.3187C51.6063 93.8146 51.9802 94.2953 52.3465 94.7512C53.0981 94.6749 53.8439 94.5796 54.5859 94.4689C54.2254 94.0378 53.8477 93.5743 53.4643 93.0859C52.7242 93.1813 51.9821 93.2595 51.2344 93.3187Z" fill="black"/>
<path d="M36.1641 92.0664C36.269 92.6368 36.3815 93.188 36.5017 93.7164C37.1884 93.8786 37.8828 94.0274 38.5809 94.159C38.4512 93.644 38.3253 93.1003 38.209 92.5357C37.5241 92.3945 36.8432 92.24 36.1641 92.0683V92.0664Z" fill="black"/>
<path d="M14.8454 15.1403C14.895 15.0907 14.9427 15.0392 14.9942 14.9896C19.2175 10.7662 24.1333 7.45091 29.6079 5.13704C35.2753 2.73925 41.2955 1.52414 47.5027 1.52414C47.8442 1.52414 48.1837 1.52986 48.5232 1.53749C49.3111 1.03008 50.1161 0.557006 50.9001 0.122083C49.7784 0.0419662 48.6453 0 47.5027 0C34.806 0 23.273 4.98253 14.75 13.0973C14.8206 13.6485 14.8606 14.3181 14.8454 15.1422V15.1403Z" fill="black"/>
<path d="M1.52604 47.4991C1.52604 41.2919 2.74116 35.2717 5.13895 29.6043C7.03124 25.1292 9.59309 21.028 12.7711 17.3712C12.8836 16.4021 12.9313 15.5952 12.9351 14.9219C4.91577 23.4277 0 34.8882 0 47.4991C0 54.5856 1.55466 61.306 4.33587 67.3472C4.45986 66.401 4.59148 65.4053 4.72883 64.3924C2.60381 59.0188 1.52604 53.3419 1.52604 47.4991Z" fill="black"/>
<path d="M55.0905 2.14985C55.8116 1.71302 56.5002 1.32197 57.1373 0.978614C56.2141 0.787858 55.2813 0.627624 54.3389 0.492188C53.595 0.854623 52.7747 1.27238 51.9297 1.73782C52.9903 1.83892 54.0433 1.97817 55.0905 2.15176V2.14985Z" fill="black"/>
<path d="M65.3945 5.13781C69.1333 6.71917 72.6108 8.76788 75.7868 11.2515C76.403 11.1046 77.0382 10.9635 77.6925 10.828C72.5841 6.61807 66.581 3.45725 60.0133 1.66797C59.4315 1.94456 58.7314 2.29555 57.9531 2.71712C60.4902 3.30656 62.9757 4.11345 65.3964 5.13781H65.3945Z" fill="black"/>
<path d="M80.0081 14.9874C84.2314 19.2107 87.5467 24.1264 89.8606 29.6011C92.2584 35.2685 93.4735 41.2887 93.4735 47.4959C93.4735 48.4401 93.4411 49.3806 93.3858 50.3153C93.8207 51.4331 94.2403 52.5108 94.6238 53.499C94.8717 51.5323 94.9995 49.5293 94.9995 47.4959C94.9995 33.6013 89.0327 21.0992 79.5217 12.4141C78.9208 12.5247 78.2932 12.6487 77.6484 12.786C78.4572 13.4899 79.2451 14.2243 80.0081 14.9874Z" fill="black"/>
<path d="M6.20673 67.7363C6.08274 68.6824 5.96829 69.5752 5.86719 70.3859C7.99983 74.2582 10.6571 77.8005 13.7435 80.9175C13.9571 80.4311 14.1803 79.9275 14.4073 79.4124C11.0615 75.9464 8.31076 72.0283 6.20673 67.7344V67.7363Z" fill="black"/>
<path d="M19.1478 83.6953C18.9322 84.2218 18.73 84.7101 18.5469 85.1527C20.9275 86.9858 23.4855 88.5977 26.1924 89.9597C26.2076 89.4294 26.2286 88.8648 26.2534 88.2792C23.745 86.9725 21.372 85.4426 19.1478 83.6972V83.6953Z" fill="black"/>
<path d="M80.0124 80.0094C75.789 84.2328 70.8733 87.5481 65.3986 89.862C61.5663 91.4834 57.5719 92.5611 53.4688 93.0914C53.8522 93.5798 54.2299 94.0433 54.5904 94.4744C68.2065 92.4372 79.9322 84.62 87.1924 73.6001C87.2325 72.7645 87.2592 71.7574 87.2649 70.5938C85.2753 74.0178 82.8489 77.1691 80.0105 80.0075L80.0124 80.0094Z" fill="black"/>
<path d="M92.9495 54.4648C92.381 58.217 91.349 61.8738 89.8592 65.3932C89.6227 65.9521 89.3747 66.5015 89.1172 67.049C89.1534 68.205 89.1687 69.2999 89.1687 70.3128C91.391 66.2631 93.0391 61.8547 94.0062 57.1946C93.7144 56.4373 93.3539 55.5064 92.9495 54.4648Z" fill="black"/>
<path d="M29.6061 89.8631C29.1082 89.6533 28.6161 89.4301 28.1277 89.2031C28.1048 89.8002 28.0896 90.3553 28.0781 90.8608C30.7621 92.0645 33.5795 93.0259 36.5 93.7183C36.3798 93.1899 36.2673 92.6405 36.1623 92.0683C33.9324 91.5017 31.7444 90.7673 29.6061 89.8631Z" fill="black"/>
<path d="M15.8555 80.8516C15.6304 81.3609 15.413 81.8549 15.2031 82.328C15.7868 82.8698 16.3839 83.3962 16.9924 83.9075C17.1813 83.4516 17.3854 82.9537 17.6009 82.4272C17.0077 81.9179 16.424 81.3933 15.8555 80.8516Z" fill="black"/>
<path d="M84.9798 42.4683C84.8291 42.1669 84.6689 41.8255 84.4991 41.4631C83.3279 38.9642 81.7217 35.5439 78.6334 34.964C75.4153 34.3612 71.4419 34.9316 68.7446 36.3852C68.1514 36.7037 67.5009 37.007 66.8123 37.3256C64.6567 38.3251 62.2113 39.4601 59.8287 41.8427C58.9837 42.6877 58.1329 43.4126 57.3089 44.1165C55.2029 45.9134 53.0264 47.7713 50.7907 51.6837C47.4582 57.5151 45.73 61.8167 44.822 66.5302C43.8358 71.6615 44.0609 74.7995 44.822 78.7958C45.6308 83.0401 46.5007 85.4341 48.702 89.4686C49.4059 90.7581 50.31 92.0876 51.2314 93.3199C51.9772 93.2608 52.7212 93.1826 53.4613 93.0872C52.3511 91.6737 51.2028 90.0694 50.3768 88.5548C48.2613 84.6768 47.4697 82.5022 46.6971 78.4372C45.9799 74.6736 45.7682 71.7188 46.6971 66.8888C47.5613 62.3966 49.2265 58.2648 52.4484 52.628C54.52 49.0036 56.4772 47.3345 58.5488 45.5662C59.3995 44.8394 60.2808 44.0879 61.1774 43.1913C63.3215 41.0472 65.6029 39.9904 67.6154 39.0557C68.3307 38.7238 69.006 38.411 69.6507 38.0638C71.957 36.822 75.5069 36.3184 78.2843 36.8391C80.4131 37.2378 81.779 40.1488 82.7747 42.2738C82.9502 42.6477 83.1161 43.0005 83.2764 43.3229C84.3026 45.3755 86.172 52.895 86.8664 61.1223C87.1792 64.8249 87.2727 68.0658 87.2613 70.5933C87.9308 69.4431 88.5489 68.2604 89.1192 67.0491C89.0601 65.153 88.9494 63.0947 88.7682 60.9621C88.1044 53.101 86.2751 45.0531 84.9836 42.4702L84.9798 42.4683Z" fill="black"/>
<path d="M87.26 70.5911C87.2543 71.7528 87.2257 72.7619 87.1875 73.5974C87.8895 72.5311 88.5533 71.4342 89.1695 70.3107C89.1695 69.2997 89.1542 68.2048 89.1179 67.0469C88.5495 68.2582 87.9295 69.4389 87.26 70.5911Z" fill="black"/>
<path d="M73.7456 54.4263C73.7456 48.5109 73.7456 45.8118 71.014 45.0068C68.7249 44.3315 66.2737 45.1422 64.4558 47.1757C64.3051 47.3435 64.1296 47.5362 63.9331 47.7536C62.0275 49.8501 58.0598 54.2107 56.4841 58.6191C56.1389 59.5843 55.7879 60.4713 55.4483 61.3316C54.1703 64.5687 53.0658 67.3652 53.7468 70.9686C54.609 75.5295 55.9653 80.6132 59.4828 83.7358C62.594 86.498 64.8717 87.4727 66.02 87.4727C66.062 87.4727 66.1039 87.4727 66.1421 87.4689C66.4034 87.4518 67.0997 87.406 69.1541 85.1169L69.2438 85.0177L69.3029 84.8975C69.4612 84.5752 73.1714 76.8877 73.7437 68.67C74.108 63.4566 74.0107 61.6502 73.8887 59.363C73.8219 58.1079 73.7456 56.6829 73.7456 54.4282V54.4263ZM71.84 68.5345C71.3306 75.8386 68.1088 82.9461 67.6433 83.9419C66.989 84.6591 66.2432 85.3592 65.9284 85.5576C65.3772 85.4889 63.5783 84.8174 60.7494 82.3071C57.663 79.5659 56.425 74.8581 55.6219 70.6119C55.042 67.5502 55.9577 65.2345 57.2224 62.0298C57.5676 61.1561 57.9224 60.2539 58.2792 59.26C59.727 55.2122 63.5211 51.0404 65.3447 49.0355C65.5469 48.8143 65.7262 48.6159 65.8788 48.4442C66.9108 47.2882 68.1488 46.6759 69.3926 46.6759C69.755 46.6759 70.1174 46.7274 70.4741 46.8342C71.6473 47.1795 71.838 48.2439 71.838 54.4244C71.838 56.7306 71.9163 58.1822 71.983 59.4622C72.1013 61.6845 72.1948 63.4376 71.84 68.5345Z" fill="black"/>
<path d="M90.3329 42.5151C87.3704 35.0222 83.3016 29.4636 80.8142 27.8479C77.2032 25.5016 71.2306 23.5597 66.2767 25.8087C65.3153 26.2455 64.3081 26.6537 63.3314 27.0505C59.1615 28.7444 54.8486 30.4956 51.6343 35.1404C50.959 36.1171 50.2609 37.1014 49.5208 38.1448C46.0814 42.9958 42.5258 48.0107 41.0932 52.4286C40.891 53.0524 40.6888 53.6666 40.4885 54.2751C39.012 58.7712 37.6157 63.0174 37.1102 67.8264C36.95 69.3448 36.7611 70.7201 36.578 72.0516C36.1145 75.4184 35.6357 78.9016 35.5575 85.0897C35.525 87.6153 35.7806 89.9769 36.1621 92.0657C36.8393 92.2374 37.5222 92.3938 38.207 92.533C37.755 90.3527 37.4307 87.8233 37.465 85.1126C37.5413 79.0428 38.0125 75.6207 38.4684 72.311C38.6534 70.9662 38.8461 69.5756 39.0082 68.0267C39.4927 63.4199 40.8566 59.2672 42.3026 54.8722C42.5029 54.2599 42.707 53.6437 42.9092 53.018C44.2521 48.8787 47.7219 43.9839 51.0792 39.2493C51.8213 38.2021 52.5232 37.214 53.2042 36.2278C56.0942 32.0502 59.9589 30.4822 64.0487 28.8207C65.0425 28.4182 66.0688 28.0005 67.0645 27.5484C69.0751 26.6347 71.4347 26.4725 74.0767 27.0658C76.8674 27.6915 78.9906 28.9428 79.7726 29.4521C82.2925 31.0907 86.1515 37.1396 88.5569 43.2208C89.9456 46.7327 91.6701 51.1563 92.9538 54.4659C93.1618 53.0963 93.3048 51.7133 93.3888 50.3189C92.3778 47.7208 91.2771 44.909 90.331 42.5208L90.3329 42.5151Z" fill="black"/>
<path d="M92.9531 54.4673C93.3575 55.5089 93.7181 56.4417 94.0099 57.197C94.2617 55.9819 94.4677 54.7497 94.626 53.504C94.2426 52.5159 93.8249 51.4381 93.388 50.3203C93.3041 51.7147 93.161 53.0977 92.9531 54.4673Z" fill="black"/>
<path d="M32.2285 57.9393L32.3582 57.4967C33.5637 53.3612 34.4374 51.7798 35.6487 49.5899C36.3984 48.2337 37.2472 46.6981 38.3651 44.2469C40.5683 39.415 42.823 37.126 46.9147 32.9694C48.147 31.7181 49.5433 30.2988 51.1438 28.6011C56.6833 22.722 59.3787 21.133 63.8462 18.5006C64.8286 17.9207 65.9426 17.2645 67.171 16.511C70.0801 14.7256 74.1145 13.5448 77.6511 12.7875C77.0426 12.2572 76.4227 11.7441 75.7894 11.25C71.7759 12.2095 68.5464 13.4284 66.1734 14.8858C64.9602 15.6297 63.9034 16.2535 62.879 16.8563C58.4249 19.4811 55.4815 21.2151 49.757 27.2906C48.1718 28.9731 46.7831 30.3847 45.5565 31.6284C41.4515 35.7983 38.9755 38.3144 36.6311 43.4514C35.5438 45.8359 34.714 47.339 33.9815 48.6648C32.7607 50.8756 31.7954 52.621 30.5307 56.9588L30.401 57.4014C28.524 63.8355 27.9574 65.7755 27.3985 72.0647C27.3508 72.6103 26.5325 81.8619 26.2578 88.277C26.874 88.5975 27.4977 88.9046 28.131 89.1984C28.3103 84.4657 28.8597 77.1713 29.2985 72.2326C29.8402 66.1303 30.3476 64.3945 32.2323 57.9355L32.2285 57.9393Z" fill="black"/>
<path d="M26.2564 88.2773C26.2316 88.8649 26.2106 89.4276 26.1953 89.9579C26.8153 90.2707 27.4429 90.5702 28.08 90.8564C28.0895 90.3509 28.1067 89.7958 28.1296 89.1987C27.4982 88.9049 26.8725 88.5978 26.2564 88.2773Z" fill="black"/>
<path d="M77.6508 12.7891C78.2956 12.6517 78.9232 12.5278 79.5241 12.4171C78.927 11.8716 78.3185 11.3413 77.6947 10.8281C77.0404 10.9636 76.4052 11.1047 75.7891 11.2516C76.4224 11.7476 77.0423 12.2588 77.6508 12.7891Z" fill="black"/>
<path d="M8.807 48.6564C9.07597 46.0354 9.35447 43.3247 10.003 39.3627C10.6898 35.1604 11.325 32.7226 12.0575 29.8994C12.645 27.6389 13.3107 25.0771 14.0795 21.2353C14.6136 18.5666 14.8196 16.6094 14.8463 15.1406C14.1291 15.8636 13.4385 16.6075 12.7747 17.3706C12.6603 18.3549 12.481 19.5051 12.2101 20.8614C11.4528 24.6498 10.8214 27.0743 10.2129 29.4206C9.49754 32.1694 8.82417 34.7674 8.12219 39.0556C7.46409 43.0729 7.18367 45.8122 6.91089 48.4618C6.65337 50.9683 6.41112 53.3375 5.86937 56.6528C5.48977 58.9762 5.093 61.7441 4.73438 64.3918C4.8679 64.7275 5.00334 65.0613 5.1445 65.3932C5.48023 66.1849 5.83885 66.965 6.21464 67.7338C6.661 64.304 7.22564 60.1951 7.75403 56.9599C8.30532 53.5874 8.54948 51.1915 8.81082 48.6564H8.807Z" fill="black"/>
<path d="M14.8391 15.1386C14.8544 14.3146 14.8143 13.645 14.7438 13.0938C14.1219 13.6851 13.5191 14.2955 12.9297 14.9193C12.9259 15.5946 12.8782 16.3995 12.7656 17.3686C13.4295 16.6056 14.12 15.8616 14.8372 15.1386H14.8391Z" fill="black"/>
<path d="M5.13902 65.3921C4.99786 65.0602 4.86242 64.7244 4.72889 64.3906C4.59155 65.4035 4.45993 66.3993 4.33594 67.3454C4.81092 68.3774 5.32214 69.3922 5.86961 70.3823C5.97262 69.5734 6.08707 68.6788 6.20916 67.7327C5.83146 66.9639 5.47284 66.1837 5.13902 65.3921Z" fill="black"/>
<path d="M21.8667 61.7167C21.9335 60.1525 22.0021 58.533 22.2501 56.6483C22.5324 54.5061 22.6354 52.898 22.727 51.4788C22.8663 49.3309 22.975 47.6332 23.635 45.079C24.2855 42.5572 24.9836 40.8061 25.8687 38.5914C26.4868 37.0425 27.1888 35.2856 28.0147 32.9069C29.7525 27.9148 31.9538 24.1817 34.7427 19.4567C35.1261 18.8081 35.5191 18.1405 35.9235 17.4481C38.3785 13.2553 40.4081 11.3172 42.9795 8.86216C43.8684 8.0133 44.7879 7.13583 45.8065 6.08858C47.3974 4.4519 49.7418 2.94111 51.9297 1.73745C50.8005 1.63063 49.6636 1.56386 48.5209 1.53906C47.0159 2.5081 45.57 3.59731 44.4388 4.75901C43.4449 5.78146 42.5389 6.64749 41.6633 7.483C39.09 9.93993 36.8696 12.0611 34.2791 16.4847C33.8747 17.1753 33.4837 17.8391 33.1003 18.4877C30.2599 23.3043 28.0147 27.1098 26.214 32.2793C25.3995 34.618 24.707 36.3519 24.0966 37.8837C23.1867 40.1613 22.4695 41.962 21.7885 44.6021C21.0846 47.3318 20.9625 49.1974 20.8233 51.3567C20.7336 52.7473 20.6306 54.323 20.3578 56.4003C20.0984 58.3689 20.0259 60.1048 19.961 61.6366C19.8485 64.3148 19.7493 66.6267 18.725 69.2725C17.8837 71.4471 16.0334 75.7143 14.4062 79.4111C14.5989 79.6114 14.7916 79.8098 14.9881 80.0063C15.2742 80.2924 15.5641 80.5728 15.856 80.8513C17.5518 77.0057 19.5853 72.3284 20.5028 69.9611C21.6397 67.0216 21.7446 64.5646 21.8648 61.7167H21.8667Z" fill="black"/>
<path d="M14.9878 80.0092C14.7913 79.8127 14.5987 79.6124 14.406 79.4141C14.179 79.9291 13.9577 80.4327 13.7422 80.9191C14.2191 81.3998 14.7074 81.871 15.2034 82.3326C15.4132 81.8595 15.6307 81.3655 15.8558 80.8562C15.5639 80.5777 15.274 80.2973 14.9878 80.0111V80.0092Z" fill="black"/>
<path d="M51.9322 1.73679C52.7754 1.27326 53.5956 0.853595 54.3415 0.491159C53.2065 0.32711 52.0581 0.203119 50.9002 0.121094C50.1162 0.556016 49.3113 1.031 48.5234 1.5365C49.6661 1.5613 50.803 1.62806 51.9322 1.73488V1.73679Z" fill="black"/>
<path d="M25.3176 63.7701C25.1116 63.0166 24.8999 62.2364 25.0677 60.5635C25.2756 58.4823 25.6591 57.1585 26.1894 55.3272C26.7006 53.5608 27.3377 51.3633 28.0492 47.6818C29.1022 42.2414 29.4646 41.2686 30.6721 38.0467C31.1013 36.9003 31.6354 35.4734 32.3393 33.4724C34.3003 27.8985 35.607 25.9318 37.5832 22.956C38.2451 21.9603 38.9929 20.8329 39.8532 19.4366C42.3998 15.2991 43.7961 14.0287 46.8558 11.2475C47.7485 10.4368 48.7595 9.51732 49.9727 8.36706C52.609 5.86817 55.6248 3.97397 57.9482 2.71689C57.0021 2.49752 56.0483 2.30867 55.0869 2.14844C53.0496 3.38453 50.7587 4.99451 48.6604 6.98218C47.4624 8.11717 46.4571 9.03089 45.572 9.83588C42.4723 12.6552 40.9157 14.0687 38.2279 18.437C37.3848 19.8067 36.6466 20.9188 35.9942 21.9012C34.0122 24.8846 32.5797 27.0401 30.5386 32.8391C29.8404 34.8229 29.3101 36.2383 28.8847 37.3771C27.6677 40.6257 27.2595 41.7206 26.176 47.3174C25.4798 50.9131 24.8579 53.0649 24.3562 54.7931C23.8183 56.6492 23.3948 58.1161 23.1678 60.3708C22.9656 62.3947 23.2479 63.4343 23.4768 64.2679C23.7305 65.1988 23.9137 65.8722 23.2098 68.0563C22.3189 70.8204 19.5015 77.7963 17.6016 82.4259C18.1071 82.8609 18.6202 83.2843 19.1448 83.6945C21.0466 79.0667 24.0682 71.6101 25.0258 68.64C25.9051 65.9161 25.619 64.8707 25.3176 63.7643V63.7701Z" fill="black"/>
<path d="M17.6085 82.4297C17.393 82.9562 17.1869 83.454 17 83.91C17.5074 84.3353 18.0244 84.7512 18.5508 85.1556C18.734 84.713 18.9343 84.2247 19.1517 83.6982C18.6291 83.2881 18.1159 82.8627 17.6085 82.4297Z" fill="black"/>
<path d="M57.9551 2.71625C58.7334 2.29468 59.4334 1.94369 60.0152 1.6671C59.0691 1.40958 58.1115 1.17686 57.1406 0.976562C56.5034 1.31992 55.8148 1.71097 55.0938 2.1478C56.0532 2.30613 57.0089 2.49498 57.9551 2.71625Z" fill="black"/>
</svg>
