<svg width="48" height="48" viewBox="0 0 48 48" fill="none" xmlns="http://www.w3.org/2000/svg">
<mask id="mask0_778_6676" style="mask-type:alpha" maskUnits="userSpaceOnUse" x="14" y="16" width="20" height="15">
<ellipse cx="24" cy="23.4074" rx="10" ry="7.40741" fill="black" fill-opacity="0.4"/>
</mask>
<g mask="url(#mask0_778_6676)">
<rect x="14" y="25" width="20" height="9.25926" fill="black" fill-opacity="0.4"/>
</g>
<path fill-rule="evenodd" clip-rule="evenodd" d="M23.9848 33C23.4331 33.0077 22.9921 33.4456 23.0001 33.9772V38.0245C22.9965 38.2817 23.1001 38.5295 23.2885 38.7135C23.4768 38.8968 23.7322 39 24 39C24.2678 39 24.5232 38.8968 24.7115 38.7135C24.8999 38.5303 25.0035 38.2817 24.9999 38.0245V33.9772C25.0035 33.7174 24.8981 33.4662 24.7062 33.2822C24.5151 33.0981 24.2553 32.9966 23.9848 33.0009V33Z" fill="#96A496"/>
<path fill-rule="evenodd" clip-rule="evenodd" d="M18.0063 32C17.7499 32.0019 17.504 32.1061 17.3208 32.2901L14.3141 35.2414C14.1212 35.4263 14.0084 35.6837 14.0004 35.9548C13.9925 36.2258 14.0912 36.4895 14.2727 36.6853C14.4551 36.882 14.7054 36.9944 14.9697 36.9999C15.2341 37.0044 15.4888 36.9002 15.6773 36.7107L18.6839 33.7594C18.9827 33.4748 19.0805 33.0306 18.9307 32.6409C18.7809 32.252 18.4143 31.9964 18.0072 32H18.0063Z" fill="#96A496"/>
<path fill-rule="evenodd" clip-rule="evenodd" d="M29.9466 32.0003C29.5523 32.0102 29.2022 32.2652 29.0627 32.645C28.9232 33.0249 29.0211 33.4547 29.3105 33.7311L32.3496 36.7137C32.5351 36.9009 32.7855 37.0035 33.0455 36.9999C33.3054 36.9955 33.5524 36.884 33.7318 36.6905C33.9112 36.497 34.0074 36.2375 33.9996 35.97C33.9918 35.7025 33.88 35.4502 33.6893 35.2683L30.6503 32.2857C30.4631 32.0966 30.2092 31.9932 29.9475 32.0003H29.9466Z" fill="#96A496"/>
<path d="M15.3145 6.58843C15.4763 6.23023 15.8329 6 16.2259 6H31.5467C31.9361 6 32.29 6.22597 32.4539 6.57915L40.3408 23.5791C40.6483 24.2419 40.1643 25 39.4337 25H8.54883C7.8226 25 7.33856 24.2503 7.63745 23.5884L15.3145 6.58843Z" fill="#505650"/>
<line x1="24" y1="6.38281" x2="24" y2="0.382813" stroke="#505650" stroke-width="2"/>
<circle cx="24" cy="24" r="23" stroke="#191919" stroke-width="2"/>
</svg>
