<svg width="224" height="224" viewBox="0 0 224 224" fill="none" xmlns="http://www.w3.org/2000/svg">
<g clip-path="url(#clip0_74_1598)">
<path d="M0.936455 84.8038H0V139.196H0.936455V84.8038Z" fill="#595959"/>
<path d="M5.89935 69.8729H4.96289V154.145H5.89935V69.8729Z" fill="#595959"/>
<path d="M10.8437 59.5403H9.90723V164.478H10.8437V59.5403Z" fill="#595959"/>
<path d="M15.8075 51.278H14.8711V172.722H15.8075V51.278Z" fill="#595959"/>
<path d="M20.7704 44.353H19.834V179.647H20.7704V44.353Z" fill="#595959"/>
<path d="M25.7148 38.4173H24.7783V185.583H25.7148V38.4173Z" fill="#595959"/>
<path d="M29.7422 190.822H30.6786V140.295H30.6412V82.7886H30.6786V33.196H29.7422V190.822Z" fill="#595959"/>
<path d="M35.6415 140.295H34.7051V195.439H35.6415V140.295Z" fill="#595959"/>
<path d="M35.6415 28.5793H34.7051V82.8069H35.6415V28.5793Z" fill="#595959"/>
<path d="M40.5859 24.4756H39.6494V82.7886H40.5859V24.4756Z" fill="#595959"/>
<path d="M40.5859 140.295H39.6494V199.543H40.5859V140.295Z" fill="#595959"/>
<path d="M45.5488 20.7933H44.6123V82.7886H45.5488V20.7933Z" fill="#595959"/>
<path d="M45.5488 140.295H44.6123V203.207H45.5488V140.295Z" fill="#595959"/>
<path d="M50.5126 17.5323H49.5762V82.7886H50.5126V17.5323Z" fill="#595959"/>
<path d="M50.5126 140.295H49.5762V206.486H50.5126V140.295Z" fill="#595959"/>
<path d="M54.5205 82.8619C54.8389 82.8802 55.1386 82.9168 55.457 82.9352V14.6011H54.5205V82.8619Z" fill="#595959"/>
<path d="M54.5205 209.417H55.457V140.167C55.1386 140.185 54.8389 140.222 54.5205 140.24V209.417Z" fill="#595959"/>
<path d="M59.4834 83.558C59.8018 83.6313 60.1202 83.6862 60.4198 83.7778V11.9813H59.4834V83.558Z" fill="#595959"/>
<path d="M59.4834 212.019H60.4198V139.434C60.1202 139.508 59.8018 139.563 59.4834 139.618V212.019Z" fill="#595959"/>
<path d="M64.4473 214.327H65.3837V137.767C65.0841 137.914 64.7657 138.06 64.4473 138.189V214.327Z" fill="#595959"/>
<path d="M64.4473 85.2801C64.7657 85.445 65.0841 85.5916 65.3837 85.7565V9.67303H64.4473V85.2801Z" fill="#595959"/>
<path d="M69.3916 216.361H70.3281V134.396C70.0284 134.689 69.7287 135.001 69.3916 135.276V216.361Z" fill="#595959"/>
<path d="M69.3916 112.174C69.7287 112.412 70.0284 112.687 70.3281 112.943V105.102C70.0471 105.597 69.7475 106.073 69.3916 106.531V112.174Z" fill="#595959"/>
<path d="M69.3916 89.2006C69.7287 89.622 70.0471 90.08 70.3281 90.538V7.63947H69.3916V89.2006Z" fill="#595959"/>
<path d="M74.3545 120.363C74.5231 121.297 74.6354 122.25 74.6354 123.166C74.6354 124.302 74.5231 125.346 74.3545 126.354V218.119H75.2909V5.88074H74.3545V120.363Z" fill="#595959"/>
<path d="M80.2538 4.36017H79.3174V219.64H80.2538V4.36017Z" fill="#595959"/>
<path d="M85.1982 3.05945H84.2617V220.941H85.1982V3.05945Z" fill="#595959"/>
<path d="M90.162 2.0152H89.2256V221.985H90.162V2.0152Z" fill="#595959"/>
<path d="M95.1249 1.1908H94.1885V222.828H95.1249V1.1908Z" fill="#595959"/>
<path d="M100.069 0.586243H99.1328V223.414H100.069V0.586243Z" fill="#595959"/>
<path d="M105.033 0.183228H104.097V223.817H105.033V0.183228Z" fill="#595959"/>
<path d="M109.06 224H109.977V142.732H109.397V80.352H109.977V0H109.06V224Z" fill="#595959"/>
<path d="M224 84.8038H223.063V139.196H224V84.8038Z" fill="#595959"/>
<path d="M219.037 69.8729H218.101V154.145H219.037V69.8729Z" fill="#595959"/>
<path d="M214.093 59.5403H213.156V164.478H214.093V59.5403Z" fill="#595959"/>
<path d="M209.129 51.278H208.192V172.722H209.129V51.278Z" fill="#595959"/>
<path d="M204.166 44.353H203.229V179.647H204.166V44.353Z" fill="#595959"/>
<path d="M199.222 38.4173H198.285V185.583H199.222V38.4173Z" fill="#595959"/>
<path d="M194.258 140.295H193.321V190.822H194.258V140.295Z" fill="#595959"/>
<path d="M194.258 33.196H193.321V133.957L194.258 135.587V33.196Z" fill="#595959"/>
<path d="M189.295 28.5793H188.358V89.3288C188.677 89.7319 189.014 90.1349 189.295 90.5929V28.5793Z" fill="#595959"/>
<path d="M189.295 140.295H188.358V195.439H189.295V140.295Z" fill="#595959"/>
<path d="M189.295 110.855C188.995 111.331 188.696 111.808 188.358 112.247V125.218L189.295 126.848V110.837V110.855Z" fill="#595959"/>
<path d="M184.332 115.93C184.014 116.113 183.733 116.333 183.396 116.498V116.901C183.564 117.12 183.882 117.578 184.332 118.275V115.911V115.93Z" fill="#595959"/>
<path d="M184.351 140.295H183.414V199.543H184.351V140.295Z" fill="#595959"/>
<path d="M184.332 24.4756H183.396V85.1519C183.714 85.3351 184.014 85.5366 184.332 85.7198V24.4756Z" fill="#595959"/>
<path d="M179.388 20.7933H178.451V83.3748C178.77 83.4298 179.088 83.5031 179.388 83.5764V20.7933Z" fill="#595959"/>
<path d="M178.451 135.77V203.207H179.388V137.492L178.451 135.77Z" fill="#595959"/>
<path d="M174.424 17.5323H173.487V82.8619C173.806 82.8619 174.124 82.8985 174.424 82.9168V17.5323Z" fill="#595959"/>
<path d="M173.487 126.555V206.486H174.424V128.296L173.487 126.555Z" fill="#595959"/>
<path d="M169.479 14.6011H168.543V82.7886H169.479V14.6011Z" fill="#595959"/>
<path d="M169.479 120.913H168.543V209.417H169.479V120.913Z" fill="#595959"/>
<path d="M163.711 120.913V140.295H163.58V212.019H164.517V120.913H163.711Z" fill="#595959"/>
<path d="M164.517 11.9813H163.58V82.7886H164.517V11.9813Z" fill="#595959"/>
<path d="M159.554 140.295H158.617V214.327H159.554V140.295Z" fill="#595959"/>
<path d="M159.554 9.67303H158.617V82.7886H159.554V9.67303Z" fill="#595959"/>
<path d="M154.608 7.63947H153.672V82.7886H154.608V7.63947Z" fill="#595959"/>
<path d="M154.608 140.295H153.672V216.361H154.608V140.295Z" fill="#595959"/>
<path d="M149.327 140.295V82.7886H149.645V5.88074H148.709V218.119H149.645V140.295H149.327Z" fill="#595959"/>
<path d="M144.683 4.36017H143.746V219.64H144.683V4.36017Z" fill="#595959"/>
<path d="M139.738 3.05945H138.802V220.941H139.738V3.05945Z" fill="#595959"/>
<path d="M134.774 2.0152H133.838V221.985H134.774V2.0152Z" fill="#595959"/>
<path d="M129.811 1.1908H128.875V222.828H129.811V1.1908Z" fill="#595959"/>
<path d="M124.867 0.586243H123.931V223.414H124.867V0.586243Z" fill="#595959"/>
<path d="M119.903 0.183228H118.967V223.817H119.903V0.183228Z" fill="#595959"/>
<path d="M114.004 0V80.352H114.753V142.732H114.004V224H114.94V0H114.004Z" fill="#595959"/>
<path d="M70.3278 112.943C70.0281 112.669 69.7284 112.412 69.3913 112.174C68.2676 111.368 66.9752 110.672 65.4207 110.214V110.049C67.0127 109.151 68.3425 107.942 69.3913 106.531C69.7284 106.073 70.0468 105.597 70.3278 105.102C71.5826 102.886 72.2569 100.358 72.2569 97.8294C72.2569 95.0081 71.5639 92.5715 70.3278 90.538C70.0468 90.08 69.7284 89.622 69.3913 89.2006C68.305 87.8449 66.9753 86.7091 65.3645 85.7748C65.0649 85.6099 64.7465 85.445 64.4281 85.2984C63.192 84.6756 61.8622 84.1626 60.4013 83.7779C60.1017 83.7046 59.7833 83.6313 59.4649 83.558C58.1913 83.2649 56.8428 83.0634 55.4381 82.9351C55.1197 82.9168 54.8201 82.8802 54.5017 82.8619C53.7712 82.8252 53.0221 82.7886 52.2542 82.7886H30.6221V140.295H52.2542C53.0033 140.295 53.7525 140.277 54.5017 140.24C54.8201 140.24 55.1197 140.185 55.4381 140.167C56.8053 140.057 58.1538 139.892 59.4649 139.636C59.7833 139.581 60.0829 139.526 60.4013 139.453C61.806 139.141 63.1545 138.72 64.4281 138.207C64.7465 138.079 65.0462 137.932 65.3645 137.786C66.8441 137.108 68.2114 136.283 69.3913 135.276C69.7097 135.001 70.0281 134.708 70.3278 134.396C72.388 132.344 73.7926 129.688 74.3545 126.372C74.5231 125.365 74.6354 124.32 74.6354 123.184C74.6354 122.268 74.5231 121.334 74.3545 120.381C73.8676 117.67 72.594 114.995 70.3278 112.962V112.943ZM59.4836 124.595C58.8468 126.244 57.5171 127.526 55.4569 128.003C55.1572 128.076 54.8575 128.113 54.5204 128.149C54.2395 128.186 53.9773 128.222 53.6589 128.222H45.0247V116.314H53.7338C54.0147 116.314 54.2582 116.351 54.5017 116.369C54.8201 116.406 55.1385 116.424 55.4381 116.498C57.5171 116.937 58.8468 118.165 59.4649 119.777C59.7458 120.51 59.8956 121.334 59.8956 122.177C59.8956 123.02 59.7458 123.844 59.4649 124.577L59.4836 124.595ZM54.5204 95.1913C54.8575 95.3012 55.1759 95.4478 55.4569 95.6127C56.9552 96.492 57.6107 98.0309 57.6107 99.7347C57.6107 101.438 56.9177 103.234 55.4569 104.205C55.1759 104.388 54.8575 104.553 54.5204 104.681C53.9211 104.901 53.2281 105.048 52.4415 105.048H45.0435V94.8249H52.198C53.097 94.8249 53.8649 94.9531 54.5391 95.173L54.5204 95.1913Z" fill="#181818"/>
<path d="M185.493 120.18C185.044 119.392 184.651 118.769 184.332 118.275C183.883 117.578 183.564 117.12 183.396 116.901C183.321 116.791 183.265 116.736 183.265 116.736V116.571C183.265 116.571 183.34 116.516 183.396 116.498C183.733 116.333 184.014 116.113 184.332 115.93C185.905 114.959 187.254 113.713 188.359 112.266C188.696 111.826 188.996 111.35 189.295 110.873C191.112 107.869 192.067 104.315 192.067 100.889C192.067 96.8218 191.056 93.3776 189.295 90.5929C189.014 90.1533 188.696 89.7502 188.359 89.3289C187.235 87.8999 185.887 86.7091 184.332 85.7381C184.014 85.5366 183.733 85.3351 183.396 85.1702C182.703 84.8038 181.972 84.4557 181.204 84.1626C180.624 83.9427 180.006 83.7595 179.369 83.5947C179.069 83.5214 178.751 83.4481 178.433 83.3931C177.309 83.1733 175.998 83.0084 174.406 82.9168C174.106 82.9168 173.806 82.8802 173.469 82.8619C172.383 82.8252 171.166 82.7886 169.761 82.7886H149.29V140.295H163.674V120.913H170.416L180.867 140.295H196.899L185.475 120.18H185.493ZM169.948 108.84H163.693V94.8432H168.544C168.862 94.8432 169.162 94.8432 169.443 94.8615C171.091 94.9165 172.402 95.118 173.469 95.4661C173.806 95.576 174.125 95.6859 174.406 95.8325C176.747 96.95 177.421 99.0019 177.421 101.768C177.421 104.535 176.316 106.623 174.406 107.759C174.125 107.924 173.806 108.07 173.469 108.199C172.458 108.62 171.278 108.84 169.93 108.84H169.948Z" fill="#181818"/>
<path d="M114.734 80.352H109.396V142.732H114.734V80.352Z" fill="#181818"/>
</g>
<defs>
<clipPath id="clip0_74_1598">
<rect width="224" height="224" fill="white"/>
</clipPath>
</defs>
</svg>
