<svg width="48" height="48" viewBox="0 0 48 48" fill="none" xmlns="http://www.w3.org/2000/svg">
<g clip-path="url(#clip0_997_6722)">
<path fill-rule="evenodd" clip-rule="evenodd" d="M23 12H23.6818V17.8621C23.6818 18.5456 23.7722 18.9454 23.981 19.1867C24.1799 19.4167 24.5635 19.5862 25.3864 19.5862C26.5156 19.5862 27.3849 19.0776 28.4434 18.4582C28.5587 18.3907 28.6763 18.3219 28.7968 18.2523C30.0088 17.5518 31.4346 16.8276 33.5682 16.8276C34.6445 16.8276 35.4777 17.0777 36.1168 17.4907C36.7554 17.9034 37.1775 18.4641 37.4551 19.0491C38.0001 20.1976 38 21.4685 38 21.9897V22H37.3182C37.3182 21.4801 37.3145 20.3465 36.8404 19.3475C36.6066 18.8548 36.2616 18.4027 35.7497 18.0718C35.2382 17.7413 34.5374 17.5172 33.5682 17.5172C31.6109 17.5172 30.3094 18.1723 29.135 18.8511C29.0154 18.9203 28.8963 18.9903 28.7773 19.0602C27.741 19.6694 26.7094 20.2759 25.3864 20.2759C24.5047 20.2759 23.8655 20.1005 23.4679 19.6409C23.0801 19.1926 23 18.5578 23 17.8621V12Z" fill="#5E5E5E"/>
<path fill-rule="evenodd" clip-rule="evenodd" d="M34.3967 25.6995C35.6751 25.0831 37.1544 25.001 37.9992 25L38 25.6667C37.1783 25.6676 35.8244 25.7512 34.6863 26.3C34.1223 26.572 33.6213 26.9534 33.2605 27.4873C32.9011 28.0192 32.6666 28.7229 32.6666 29.6646V36H32V29.6646C32 28.6064 32.2655 27.769 32.7082 27.114C33.1494 26.4611 33.7525 26.0101 34.3967 25.6995Z" fill="#5E5E5E"/>
<path fill-rule="evenodd" clip-rule="evenodd" d="M14.3566 17.8002C12.7191 18.1087 11.2655 19.1263 10.4579 19.9211L10 19.4038C10.8702 18.5474 12.4366 17.4431 14.2385 17.1036C16.067 16.7592 18.121 17.2088 19.8822 19.4366C22.0478 22.1759 23.5013 23.2454 24.434 23.9319C24.4736 23.9609 24.5122 23.9893 24.5498 24.0172C25.009 24.3562 25.3944 24.6483 25.6456 25.0618C25.9055 25.4896 26 26.0043 26 26.7394C26 27.44 25.806 27.9449 25.5327 28.4252C25.4209 28.6217 25.2931 28.8186 25.1634 29.0183C25.1397 29.0548 25.116 29.0913 25.0923 29.1279C24.9364 29.3691 24.7746 29.6252 24.6136 29.9224C23.9785 31.0942 23.3156 32.9757 23.3156 37H22.6445C22.6445 32.8866 23.3237 30.8761 24.0309 29.5713C24.2054 29.2492 24.3792 28.9746 24.5378 28.7293C24.5631 28.6902 24.5879 28.652 24.6121 28.6147C24.7421 28.4145 24.8566 28.2379 24.9573 28.0611C25.1873 27.6568 25.3289 27.2772 25.3289 26.7394C25.3289 26.0599 25.2394 25.705 25.0805 25.4435C24.9129 25.1678 24.6447 24.951 24.1649 24.5968C24.1285 24.5699 24.0912 24.5425 24.053 24.5144C23.0947 23.8089 21.5886 22.7002 19.3667 19.8897C17.7724 17.873 15.9675 17.4967 14.3566 17.8002Z" fill="#5E5E5E"/>
<path fill-rule="evenodd" clip-rule="evenodd" d="M14.8614 28.6831C15.7409 30.3187 16 32.7264 16 36H15.2973C15.2973 32.7212 15.0294 30.4733 14.2399 29.0051C13.8516 28.2829 13.3376 27.7517 12.6599 27.3772C11.9772 26.9999 11.1092 26.7714 10 26.6877L10.0539 26C11.2285 26.0887 12.2052 26.3344 13.0047 26.7762C13.8093 27.2208 14.4152 27.8534 14.8614 28.6831Z" fill="#5E5E5E"/>
<path fill-rule="evenodd" clip-rule="evenodd" d="M27.7891 10.0527C27.985 9.98725 28.196 9.98265 28.3945 10.0395L37.257 12.5785C37.6968 12.7045 38 13.1075 38 13.5661V36.7932C38 37.4756 37.3486 37.9683 36.6942 37.7809L28.2069 35.3494C28.1407 35.3304 28.0704 35.332 28.0051 35.3538L20.2455 37.9473C20.0177 38.0234 19.7705 38.0169 19.547 37.9289L10.6498 34.4242C10.2578 34.2697 10 33.8905 10 33.4682V11.2183C10 10.5359 10.6514 10.0432 11.3058 10.2307L19.7931 12.6622C19.8593 12.6811 19.9296 12.6796 19.9949 12.6578L27.7891 10.0527ZM28.2069 10.6979C28.1407 10.679 28.0704 10.6805 28.0051 10.7023L20.2109 13.3074C20.015 13.3729 19.804 13.3775 19.6055 13.3206L11.1182 10.8891C10.9001 10.8266 10.6829 10.9909 10.6829 11.2183V33.4682C10.6829 33.6089 10.7689 33.7354 10.8995 33.7868L19.7967 37.2915C19.8712 37.3209 19.9536 37.323 20.0295 37.2977L27.7892 34.7042C27.985 34.6387 28.196 34.6341 28.3945 34.691L36.8818 37.1224C37.0999 37.1849 37.3171 37.0207 37.3171 36.7932V13.5661C37.3171 13.4132 37.216 13.2789 37.0694 13.2369L28.2069 10.6979Z" fill="black"/>
<circle cx="24" cy="24" r="23" stroke="#191919" stroke-width="2"/>
</g>
<defs>
<clipPath id="clip0_997_6722">
<rect width="48" height="48" fill="white"/>
</clipPath>
</defs>
</svg>
