<svg width="50" height="50" viewBox="0 0 50 50" fill="none" xmlns="http://www.w3.org/2000/svg">
<circle cx="25" cy="25" r="24" stroke="#191919" stroke-width="2"/>
<path fill-rule="evenodd" clip-rule="evenodd" d="M26.2803 9.22759C25.5104 8.43097 24.2336 8.43097 23.4636 9.22759L19.8302 12.987L14.6871 12.987C13.6053 12.987 12.7284 13.8639 12.7284 14.9456L12.7284 20.0887L8.96905 23.7222C8.17244 24.4921 8.17244 25.7689 8.96905 26.5389L12.7284 30.1723L12.7284 35.3154C12.7284 36.3972 13.6053 37.2741 14.6871 37.2741L19.8302 37.2741L23.4636 41.0335C24.2336 41.8301 25.5104 41.8301 26.2803 41.0335L29.9138 37.2741L35.0569 37.2741C36.1386 37.2741 37.0155 36.3972 37.0155 35.3154L37.0155 30.1723L40.7749 26.5389C41.5715 25.7689 41.5715 24.4921 40.7749 23.7222L37.0155 20.0887L37.0155 14.9456C37.0155 13.8639 36.1386 12.987 35.0569 12.987L29.9138 12.987L26.2803 9.22759ZM22.1965 30.1234C24.8196 31.6378 28.1737 30.7391 29.6881 28.116C31.2025 25.493 30.3038 22.1389 27.6807 20.6245C25.0577 19.1101 21.7036 20.0088 20.1892 22.6318C18.6748 25.2549 19.5735 28.609 22.1965 30.1234Z" fill="#505650"/>
</svg>
