<svg width="72" height="72" viewBox="0 0 72 72" fill="none" xmlns="http://www.w3.org/2000/svg">
<g clip-path="url(#clip0_449_4371)">
<path d="M36 72C16.15 72 0 55.85 0 36C0 16.15 16.15 0 36 0C55.85 0 72 16.15 72 36C72 55.85 55.85 72 36 72ZM36 1.12C16.77 1.12 1.12 16.77 1.12 36C1.12 55.23 16.77 70.88 36 70.88C55.23 70.88 70.88 55.23 70.88 36C70.88 16.77 55.23 1.12 36 1.12Z" fill="#231F20"/>
<path d="M23.4397 30.1711C13.9297 30.1711 6.57969 26.3911 6.42969 26.3211L6.94969 25.3311C7.23969 25.4811 36.0097 40.2311 52.9397 9.87109L53.9197 10.4111C45.0897 26.2311 33.1397 30.1711 23.4397 30.1711Z" fill="#231F20"/>
<path d="M34.3205 67.3414L33.3405 66.8114C33.3805 66.7314 37.4605 58.9714 35.4505 46.9314C33.4705 35.0614 5.76047 29.0914 5.48047 29.0314L5.71047 27.9414C6.88047 28.1914 34.4405 34.1214 36.5505 46.7514C38.6205 59.1914 34.5005 67.0114 34.3205 67.3414Z" fill="#231F20"/>
<path d="M46.719 49.7603C44.789 49.7603 42.949 49.4103 41.429 48.5203C39.079 47.1303 37.799 44.6303 37.609 41.0703C36.929 27.7703 54.589 12.7003 55.349 12.0703L56.069 12.9203C55.889 13.0703 38.069 28.2703 38.729 41.0103C38.889 44.1703 39.989 46.3703 41.999 47.5603C47.439 50.7803 57.769 46.0603 59.779 45.0903C64.839 42.6403 67.349 40.7703 67.369 40.7503L68.039 41.6503C67.939 41.7303 65.429 43.5903 60.259 46.1003C58.689 46.8603 52.319 49.7703 46.709 49.7703L46.719 49.7603Z" fill="#231F20"/>
<path d="M36.5387 67.2395L35.4688 66.9195C35.5787 66.5395 38.2987 57.5895 44.3487 53.4395C50.3187 49.3495 65.2587 45.6695 65.8887 45.5195L66.1588 46.6095C66.0088 46.6495 50.7888 50.3995 44.9888 54.3695C39.2588 58.2895 36.5787 67.1495 36.5487 67.2395H36.5387Z" fill="#231F20"/>
</g>
<defs>
<clipPath id="clip0_449_4371">
<rect width="72" height="72" fill="white"/>
</clipPath>
</defs>
</svg>
