<svg width="48" height="48" viewBox="0 0 48 48" fill="none" xmlns="http://www.w3.org/2000/svg">
<circle cx="24" cy="24" r="23" stroke="#191919" stroke-width="2"/>
<path d="M21.6301 24.392V16.688H26.0221C26.6701 16.688 27.2941 16.736 27.8941 16.832C28.4941 16.928 29.0221 17.12 29.4781 17.408C29.9341 17.672 30.2941 18.056 30.5581 18.56C30.8461 19.064 30.9901 19.724 30.9901 20.54C30.9901 21.356 30.8461 22.016 30.5581 22.52C30.2941 23.024 29.9341 23.42 29.4781 23.708C29.0221 23.972 28.4941 24.152 27.8941 24.248C27.2941 24.344 26.6701 24.392 26.0221 24.392H21.6301ZM15.9781 12.296V38H21.6301V28.784H27.5701C29.1781 28.784 30.5461 28.556 31.6741 28.1C32.8021 27.62 33.7141 26.996 34.4101 26.228C35.1301 25.46 35.6461 24.584 35.9581 23.6C36.2941 22.592 36.4621 21.572 36.4621 20.54C36.4621 19.484 36.2941 18.464 35.9581 17.48C35.6461 16.496 35.1301 15.62 34.4101 14.852C33.7141 14.084 32.8021 13.472 31.6741 13.016C30.5461 12.536 29.1781 12.296 27.5701 12.296H15.9781Z" fill="#505650"/>
</svg>
