<svg width="37" height="37" viewBox="0 0 37 37" fill="none" xmlns="http://www.w3.org/2000/svg">
<path d="M20.1688 25.2336C19.9514 25.2336 19.7043 25.1933 19.4177 25.1025C19.1608 25.0218 19.0126 24.7394 19.0916 24.4671C19.1707 24.2049 19.4474 24.0536 19.7142 24.1343C20.3764 24.3461 20.5938 24.1141 20.7322 23.8317C20.9298 23.4283 21.2164 23.267 21.4437 23.1459C21.5722 23.0753 21.671 23.0148 21.7698 22.914C21.8786 22.803 21.8983 22.6517 21.9082 22.3996C21.928 22.1172 21.9576 21.7441 22.264 21.4718C22.4518 21.3104 22.6 20.8767 22.6 20.4834C22.6 20.312 22.5407 20.1102 22.4814 19.9186C22.4023 19.6362 22.3233 19.374 22.3925 19.1219L22.432 18.9706C22.5012 18.7084 22.6198 18.305 22.4814 17.7805C22.3332 17.1956 22.3628 16.7518 22.4221 16.0761L22.4616 15.5315C22.4913 15.1079 22.3233 14.6642 22.1454 14.2002C21.9774 13.7363 21.7896 13.2623 21.7896 12.7681C21.7896 12.0016 21.6414 11.4974 21.3054 11.0738C20.8903 10.5594 20.8112 9.98456 20.742 9.42987C20.7223 9.27859 20.7025 9.11722 20.6729 8.94577C20.6234 8.66338 20.5147 8.55245 20.159 8.2398C19.9316 8.03809 19.6549 7.78596 19.3387 7.40272C18.8248 6.76734 18.5085 6.73708 18.5085 6.73708C18.4591 6.73708 18.4591 6.73708 18.4097 6.73708C18.4295 6.73708 18.1231 6.7976 17.6191 7.4128C17.3028 7.79604 17.0261 8.04818 16.7988 8.24988C16.4529 8.56253 16.3343 8.67347 16.2849 8.95586C16.2553 9.12731 16.2355 9.27859 16.2157 9.43995C16.1367 9.99465 16.0675 10.5695 15.6524 11.0839C15.3164 11.5074 15.1682 12.0117 15.1682 12.7782C15.1682 13.2825 14.9903 13.7565 14.8124 14.2103C14.6345 14.6742 14.4665 15.118 14.4961 15.5416L14.5357 16.0862C14.595 16.7619 14.6246 17.1956 14.4764 17.7906C14.338 18.3151 14.4566 18.7185 14.5258 18.9807L14.5653 19.132C14.6246 19.3942 14.5554 19.6564 14.4764 19.9388C14.4171 20.1405 14.3578 20.3422 14.3578 20.5036C14.3578 20.8969 14.506 21.3306 14.6938 21.4919C15.01 21.7542 15.0298 22.1374 15.0496 22.4198C15.0693 22.6719 15.0792 22.8232 15.1879 22.9341C15.2868 23.035 15.3856 23.0955 15.5141 23.1661C15.7414 23.2871 16.028 23.4485 16.2256 23.8519C16.364 24.1343 16.5814 24.3663 17.2435 24.1545C17.5005 24.0738 17.7772 24.215 17.8662 24.4873C17.9452 24.7495 17.8069 25.0319 17.54 25.1227C16.1861 25.5563 15.5832 24.7999 15.3461 24.3057C15.2868 24.1948 15.2275 24.1545 15.0496 24.0536C14.8915 23.9628 14.6938 23.8519 14.4863 23.6502C14.1107 23.267 14.0811 22.803 14.0613 22.5005C14.0613 22.4097 14.0415 22.2887 14.0317 22.2483C13.5474 21.8449 13.3596 21.0583 13.3695 20.5137C13.3695 20.201 13.4585 19.9085 13.5178 19.6665C13.5474 19.5555 13.5968 19.3942 13.5968 19.3438L13.577 19.2732C13.4881 18.9504 13.3201 18.3453 13.5178 17.5587C13.6265 17.1351 13.5968 16.8023 13.5474 16.1971L13.5079 15.6424C13.4683 14.997 13.6858 14.4019 13.8834 13.8876C14.0317 13.4943 14.17 13.1312 14.17 12.8185C14.17 11.81 14.3874 11.094 14.8816 10.4888C15.1188 10.1964 15.1682 9.84337 15.2275 9.34919C15.2472 9.17774 15.2769 9.00629 15.3065 8.82475C15.4152 8.18937 15.771 7.87673 16.1367 7.54391C16.3442 7.35229 16.5814 7.1405 16.8482 6.81777C17.6191 5.86974 18.2219 5.78906 18.469 5.78906C18.7161 5.78906 19.3189 5.86974 20.0898 6.81777C20.3566 7.1405 20.5938 7.35229 20.8013 7.54391C21.167 7.87673 21.5228 8.18937 21.6315 8.82475C21.6611 9.00629 21.6908 9.17774 21.7105 9.34919C21.7797 9.84337 21.8291 10.1964 22.0564 10.4888C22.5506 11.094 22.768 11.8201 22.768 12.8185C22.768 13.1312 22.9064 13.5043 23.0546 13.8876C23.2523 14.412 23.4697 14.997 23.4301 15.6424L23.3906 16.1971C23.3412 16.8023 23.3115 17.1351 23.4203 17.5587C23.6179 18.3453 23.4499 18.9504 23.361 19.2732L23.3313 19.3841C23.3313 19.3841 23.3807 19.5656 23.4104 19.6766C23.4796 19.9186 23.5586 20.2111 23.5586 20.5237C23.5586 21.0683 23.3807 21.855 22.8668 22.2887C22.8668 22.2887 22.8668 22.4198 22.8668 22.5106C22.8471 22.8131 22.8174 23.277 22.4419 23.6603C22.2442 23.8721 22.0367 23.9729 21.8786 24.0637C21.7007 24.1645 21.6414 24.1948 21.5821 24.3158C21.3943 24.6991 20.9792 25.2639 20.1392 25.2639L20.1688 25.2336Z" fill="black"/>
<path d="M17.2523 29.1476C17.2523 29.1476 17.2424 29.1476 17.2325 29.1476C16.9558 29.1375 16.7483 28.9056 16.7582 28.6232C17.1337 19.5464 17.3412 14.4735 17.3511 13.9692C17.3808 12.8598 18.0824 12.5068 18.458 12.4766C18.9126 12.5068 19.6143 12.8598 19.6439 13.9692C19.6538 14.4533 19.8514 19.3447 20.1973 27.7256C20.2072 28.008 19.9997 28.2399 19.723 28.25C19.4561 28.2803 19.219 28.0483 19.2091 27.7659C18.962 21.8257 18.6655 14.6247 18.6556 13.9894C18.6556 13.707 18.5766 13.5557 18.4975 13.4952C18.4283 13.5557 18.3493 13.707 18.3493 13.9894C18.3295 14.6348 18.0231 22.3299 17.7563 28.6635C17.7464 28.9358 17.529 29.1476 17.2622 29.1476H17.2523Z" fill="black"/>
<path d="M26.4426 23.6416C25.6816 23.6416 25.2962 23.1676 25.1282 22.8348C25.0886 22.7642 25.059 22.744 24.9008 22.6633C24.7625 22.5927 24.5747 22.5019 24.3968 22.3204C24.0411 21.9775 24.0114 21.564 23.9916 21.3119C23.9916 21.2514 23.9818 21.1707 23.9719 21.1404C23.5469 20.8278 23.3789 20.1521 23.3789 19.6781C23.3789 19.4057 23.458 19.1536 23.5173 18.9519C23.537 18.8712 23.5766 18.7603 23.5766 18.7199C23.4876 18.4476 23.3196 17.903 23.5074 17.2273C23.5963 16.9046 23.5766 16.6524 23.5271 16.1583L23.4876 15.7044C23.4481 15.1497 23.6457 14.6556 23.8236 14.2118C23.9521 13.8992 24.0707 13.6168 24.0707 13.3848C24.0707 12.5376 24.2684 11.9224 24.723 11.4081C24.9008 11.1963 24.9404 10.9643 25.0096 10.5306C25.0293 10.3895 25.0491 10.2483 25.0787 10.097C25.1874 9.5322 25.5037 9.26998 25.8397 8.98759C26.0275 8.83631 26.2251 8.66486 26.4623 8.40264C27.1541 7.61599 27.6977 7.5353 27.9151 7.54539C28.1325 7.52522 28.6761 7.61599 29.3678 8.40264C29.5952 8.66486 29.8027 8.83631 29.9905 8.98759C30.3265 9.26998 30.6427 9.5322 30.7514 10.097C30.7811 10.2483 30.8008 10.3895 30.8206 10.5306C30.8799 10.9643 30.9194 11.2064 31.1072 11.4081C31.5519 11.9224 31.7595 12.5376 31.7595 13.3848C31.7595 13.6168 31.8781 13.9092 32.0065 14.2118C32.1844 14.6455 32.3821 15.1497 32.3426 15.7044L32.303 16.1583C32.2635 16.6524 32.2338 16.9046 32.3228 17.2273C32.5106 17.903 32.3524 18.4376 32.2734 18.6998C32.2635 18.7603 32.2931 18.8712 32.3228 18.9519C32.3821 19.1536 32.4611 19.4057 32.4611 19.6781C32.4611 20.142 32.2931 20.8278 31.8287 21.2009C31.8583 21.1808 31.8583 21.2614 31.8484 21.3119C31.8287 21.564 31.799 21.9775 31.4432 22.3204C31.2555 22.4919 31.0677 22.5927 30.9392 22.6633C30.7811 22.744 30.7514 22.7642 30.7119 22.8348C30.4945 23.2483 29.9411 23.8937 28.7255 23.5407C28.4586 23.4601 28.3104 23.1877 28.3895 22.9154C28.4685 22.6532 28.7354 22.4919 29.0022 22.5725C29.6347 22.7642 29.773 22.5019 29.8422 22.3608C30.03 22.0078 30.2968 21.8666 30.4945 21.7657C30.6032 21.7052 30.6921 21.6649 30.7712 21.5943C30.8404 21.5338 30.8503 21.443 30.87 21.2413C30.8898 21.0093 30.9096 20.6563 31.2258 20.4143C31.374 20.3033 31.4828 19.9705 31.4828 19.6881C31.4828 19.5671 31.4333 19.4057 31.3839 19.2545C31.3148 19.0225 31.2357 18.7805 31.3049 18.5384L31.3444 18.4174C31.4037 18.2056 31.4926 17.903 31.3839 17.5097C31.2456 17.0054 31.2851 16.6121 31.3246 16.0776L31.3642 15.6338C31.3839 15.3212 31.2456 14.9682 31.0973 14.6051C30.9392 14.2219 30.7811 13.8185 30.7811 13.3848C30.7811 12.7797 30.6625 12.4065 30.3759 12.0737C29.9905 11.63 29.9213 11.1459 29.8521 10.6718C29.8323 10.5508 29.8126 10.4197 29.7928 10.2886C29.7533 10.097 29.6742 10.0163 29.3777 9.77425C29.1801 9.6028 28.9231 9.40109 28.6464 9.07836C28.2116 8.58418 27.9447 8.55392 27.9447 8.55392C27.9052 8.55392 27.6384 8.58418 27.2035 9.07836C26.9268 9.40109 26.6699 9.6028 26.4722 9.77425C26.1757 10.0163 26.0967 10.097 26.0571 10.2886C26.0275 10.4197 26.0176 10.5508 25.9978 10.6718C25.9287 11.1459 25.8595 11.63 25.474 12.0737C25.1874 12.4065 25.0689 12.7797 25.0689 13.3848C25.0689 13.8185 24.9107 14.2118 24.7526 14.6051C24.6044 14.9682 24.466 15.3212 24.4858 15.6338L24.5253 16.0776C24.5747 16.6222 24.6044 17.0155 24.466 17.5097C24.3573 17.903 24.4462 18.1955 24.5055 18.4174L24.5451 18.5485C24.6044 18.7905 24.5352 19.0326 24.466 19.2646C24.4166 19.4057 24.3672 19.5772 24.3672 19.6982C24.3672 19.9806 24.4858 20.3134 24.6241 20.4244C24.9305 20.6664 24.9601 21.0194 24.9799 21.2514C24.9997 21.4531 25.0096 21.5338 25.0787 21.6044C25.1578 21.685 25.2467 21.7254 25.3555 21.7758C25.5531 21.8767 25.8298 22.0178 26.0077 22.3708C26.0769 22.512 26.2153 22.7642 26.8477 22.5826C27.1146 22.5019 27.3814 22.6633 27.4605 22.9255C27.5395 23.1978 27.3814 23.4701 27.1245 23.5508C26.8774 23.6214 26.6501 23.6517 26.4623 23.6517L26.4426 23.6416Z" fill="black"/>
<path d="M28.9443 27.6029C28.6774 27.6029 28.46 27.3911 28.4501 27.1188C28.3711 25.1421 28.0054 15.2484 27.9856 14.5122C27.9856 14.3105 27.9461 14.1793 27.9066 14.1087C27.8769 14.1793 27.8374 14.3105 27.8275 14.5122C27.8176 15.0669 27.6002 20.9466 27.4124 25.7775C27.4026 26.0599 27.1654 26.2818 26.8985 26.2616C26.6218 26.2515 26.4143 26.0195 26.4242 25.7371C26.6021 20.9063 26.8195 15.0366 26.8294 14.4819C26.8491 13.3927 27.5113 13.0498 27.8473 13.0195C28.2821 13.0498 28.9344 13.4028 28.9542 14.4819C28.964 15.0467 29.2012 21.3601 29.4186 27.0785C29.4285 27.3609 29.221 27.5928 28.9443 27.6029C28.9443 27.6029 28.9344 27.6029 28.9245 27.6029H28.9443Z" fill="black"/>
<path d="M7.68564 24.4663C6.94444 24.4663 6.56889 24.0024 6.40089 23.6796C6.37124 23.6191 6.34159 23.599 6.19335 23.5183C6.06487 23.4477 5.8771 23.3569 5.69921 23.1855C5.35332 22.8526 5.32367 22.4492 5.3039 22.1971C5.3039 22.1366 5.29402 22.0559 5.28414 22.0357C4.86906 21.7433 4.71094 21.0776 4.71094 20.6238C4.71094 20.3616 4.79 20.1195 4.8493 19.9178C4.86906 19.8371 4.90859 19.7363 4.90859 19.6959C4.81965 19.4337 4.66152 18.9194 4.8493 18.2537C4.93824 17.9411 4.90859 17.7091 4.86906 17.225L4.82953 16.7813C4.79 16.2467 4.98765 15.7626 5.15566 15.3391C5.27425 15.0466 5.39285 14.7642 5.39285 14.5423C5.39285 13.7153 5.5905 13.1304 6.02534 12.6261C6.19335 12.4345 6.23288 12.2025 6.29218 11.789C6.31194 11.6579 6.33171 11.5167 6.36136 11.3755C6.46018 10.8309 6.78631 10.5586 7.10256 10.2964C7.28045 10.1451 7.47811 9.98375 7.69553 9.73161C8.36755 8.96513 8.89134 8.89453 9.10876 8.89453C9.33606 8.89453 9.85985 8.96513 10.522 9.73161C10.7394 9.98375 10.9371 10.1451 11.115 10.2964C11.4312 10.5586 11.7573 10.8309 11.8562 11.3755C11.8858 11.5167 11.9056 11.6579 11.9253 11.789C11.9846 12.2025 12.0242 12.4345 12.1922 12.6261C12.627 13.1304 12.8247 13.7254 12.8247 14.5423C12.8247 14.7642 12.9334 15.0365 13.0619 15.3391C13.2299 15.7626 13.4275 16.2467 13.388 16.7813L13.3485 17.225C13.3089 17.699 13.2892 17.9411 13.3682 18.2436C13.5461 18.8992 13.3979 19.4236 13.3188 19.6657C13.3089 19.7161 13.3386 19.817 13.3583 19.8976C13.4176 20.0993 13.4967 20.3414 13.4967 20.6036C13.4967 21.0574 13.3386 21.713 12.884 22.0761C12.9235 22.0559 12.9136 22.1265 12.9037 22.1769C12.884 22.419 12.8543 22.8325 12.5084 23.1653C12.3305 23.3367 12.1428 23.4275 12.0143 23.4981C11.8562 23.5788 11.8364 23.599 11.8067 23.6595C11.5893 24.0629 11.0557 24.6983 9.86973 24.3453C9.60289 24.2646 9.45465 23.9923 9.53372 23.72C9.61278 23.4477 9.87961 23.2964 10.1464 23.3771C10.7394 23.5485 10.8679 23.3065 10.9371 23.1855C11.1248 22.8426 11.3818 22.7014 11.5794 22.6005C11.6783 22.5501 11.7672 22.5097 11.8364 22.4291C11.8957 22.3786 11.9056 22.308 11.9253 22.1063C11.9451 21.8744 11.9649 21.5315 12.2712 21.2894C12.4096 21.1785 12.5183 20.8759 12.5183 20.6036C12.5183 20.4927 12.4689 20.3313 12.4294 20.1901C12.3602 19.9581 12.291 19.7262 12.3503 19.4841L12.3898 19.3631C12.4491 19.1614 12.5381 18.879 12.4294 18.5059C12.291 18.0218 12.3305 17.6385 12.3701 17.1242L12.4096 16.6905C12.4294 16.3879 12.3009 16.0551 12.1526 15.7021C12.0044 15.329 11.8463 14.9457 11.8463 14.5222C11.8463 13.9473 11.7376 13.5842 11.4609 13.2716C11.0853 12.848 11.026 12.374 10.9568 11.91C10.9371 11.789 10.9173 11.668 10.8975 11.5369C10.8679 11.3654 10.7987 11.2948 10.5022 11.0528C10.3046 10.8914 10.0674 10.6897 9.80055 10.3771C9.38547 9.90307 9.13841 9.87281 9.13841 9.87281C9.09888 9.87281 8.85181 9.90307 8.43673 10.3771C8.1699 10.6897 7.92283 10.8914 7.73506 11.0528C7.43857 11.2948 7.3694 11.3654 7.33975 11.5369C7.31998 11.668 7.30022 11.789 7.28045 11.91C7.21127 12.3639 7.14209 12.8379 6.77643 13.2716C6.5096 13.5842 6.391 13.9473 6.391 14.5222C6.391 14.9457 6.23288 15.329 6.08464 15.7021C5.94628 16.0551 5.80792 16.3879 5.82769 16.6905L5.86722 17.1141C5.91663 17.6385 5.94628 18.0117 5.80792 18.5059C5.70909 18.879 5.78816 19.1614 5.84745 19.3631L5.88698 19.4841C5.94628 19.7262 5.8771 19.9581 5.80792 20.1901C5.76839 20.3313 5.71898 20.4826 5.71898 20.6036C5.71898 20.8759 5.82769 21.1785 5.96605 21.2894C6.27241 21.5315 6.29218 21.8744 6.31194 22.1063C6.33171 22.308 6.34159 22.3786 6.40089 22.4291C6.47995 22.4997 6.55901 22.54 6.65784 22.6005C6.85549 22.7014 7.11244 22.8325 7.30022 23.1855C7.3694 23.3166 7.49787 23.5586 8.09084 23.3771C8.34779 23.2964 8.6245 23.4578 8.70357 23.72C8.78263 23.9822 8.6245 24.2646 8.36755 24.3453C8.13037 24.4159 7.91295 24.4461 7.71529 24.4461L7.68564 24.4663Z" fill="black"/>
<path d="M8.1019 28.1069C8.1019 28.1069 8.09202 28.1069 8.08213 28.1069C7.80542 28.0968 7.59788 27.8649 7.60776 27.5825C7.89436 20.1798 8.05248 16.0348 8.06237 15.6011C8.08213 14.5623 8.72451 14.2295 9.06052 14.1992C9.48548 14.2295 10.1279 14.5623 10.1476 15.6011C10.1575 16.2163 10.454 23.9316 10.5528 26.2714C10.5627 26.5538 10.3552 26.7857 10.0784 26.7958C9.83138 26.816 9.57443 26.5941 9.56454 26.3117C9.4756 23.9618 9.17912 16.2465 9.15935 15.6213C9.15935 15.47 9.1297 15.359 9.10006 15.2884C9.07041 15.359 9.05064 15.4599 9.04076 15.6213C9.03088 16.1759 8.78381 22.449 8.58615 27.6228C8.57627 27.8951 8.35885 28.1069 8.09202 28.1069H8.1019Z" fill="black"/>
<path d="M17.3025 31.7902H5.20602C4.94907 31.7902 4.74153 31.5986 4.71189 31.3364C4.71189 31.2456 4.50435 29.158 5.76934 27.9376C6.45125 27.272 7.39999 26.9997 8.60569 27.1308C9.21842 26.1525 10.6514 24.8213 12.707 25.2751C14.565 25.6886 15.3852 27.0804 15.662 28.1192C16.2154 27.978 17.0653 27.9074 17.9053 28.3713C18.1425 28.5024 18.2315 28.8151 18.103 29.0571C17.9745 29.2992 17.6682 29.3899 17.431 29.2588C16.4822 28.7344 15.5038 29.2286 15.494 29.2286C15.3457 29.2992 15.1678 29.2992 15.0295 29.2185C14.8812 29.1378 14.7923 28.9865 14.7824 28.8151C14.7824 28.7344 14.6045 26.7274 12.4995 26.2534C10.3945 25.7794 9.35677 27.8065 9.30736 27.8872C9.20853 28.0788 9.001 28.1898 8.79346 28.1595C7.75577 27.9881 6.96515 28.1595 6.45125 28.6537C5.83852 29.2487 5.71004 30.2068 5.69028 30.7716H17.3124C17.5891 30.7716 17.8065 30.9935 17.8065 31.2759C17.8065 31.5583 17.5891 31.7802 17.3124 31.7802L17.3025 31.7902Z" fill="black"/>
<path d="M32.1871 31.7908H17.3136C17.0665 31.7908 16.8491 31.5992 16.8194 31.337C16.8095 31.2361 16.5625 28.7451 18.5489 27.6256C19.5965 27.0406 20.5452 27.1415 21.1678 27.3331C21.3655 26.3246 22.0177 25.0034 23.6286 24.5193C25.9511 23.8133 27.5916 25.4371 28.2933 26.6271C29.6571 26.4759 30.7343 26.7784 31.5052 27.5247C32.9184 28.8963 32.6911 31.2361 32.6812 31.337C32.6516 31.5891 32.444 31.7908 32.1871 31.7908ZM17.7978 30.7823H31.7028C31.6929 30.1469 31.5546 28.977 30.8134 28.2509C30.2105 27.6659 29.2914 27.4743 28.0956 27.6659C27.8782 27.6962 27.6707 27.5853 27.5718 27.3936C27.5224 27.2827 26.2772 24.7714 23.9053 25.4875C22.077 26.0422 22.0869 27.9786 22.0869 28.0593C22.0869 28.2408 21.9881 28.4223 21.83 28.5131C21.6718 28.6039 21.4742 28.5938 21.3259 28.4929C21.2864 28.4627 20.2487 27.8273 19.0331 28.5131C18.035 29.0779 17.8275 30.1671 17.7978 30.7823Z" fill="black"/>
</svg>
