<svg width="48" height="48" viewBox="0 0 48 48" fill="none" xmlns="http://www.w3.org/2000/svg">
<path d="M26.4268 11.3205C26.1545 11.4273 25.8822 11.4807 25.7733 11.5341C25.2832 11.7478 24.6297 11.9614 23.9762 12.2285C23.2683 12.4955 22.7781 12.7092 22.4514 12.8694C22.3425 12.9228 22.288 12.9228 22.1791 12.9228H20.7087C20.6543 12.9228 20.6543 12.8694 20.7087 12.816L23.8128 11.7478C24.4663 11.4807 25.1743 11.2671 25.6644 11.0534C25.7189 11.0534 25.8278 11 25.8822 11H23.595C22.996 11 22.4514 11.1068 21.8524 11.2671C15.4263 13.1899 3.93575 16.5549 5.07936 22.003C6.60418 29.4807 27.7338 33.2196 18.5304 37.4392C13.0302 39.9496 14.4805 38.9169 8 41C7.07422 41.2671 9.5449 43 10.5251 43L19.4562 47L30.5 46.5C31.5892 46.5 32.635 46.0341 33.6153 45.5C37.2095 43.4169 45.3781 38.6142 43.5266 33.3264C41.1849 26.4896 24.3574 23.9258 20.382 22.4303C17.3324 21.3086 13.7382 18.3175 31.2736 12.1217C31.8726 11.908 31.7092 11.0534 31.0557 11.0534H27.516M15.0451 24.2463H13.4659C13.4114 24.2463 13.3569 24.2463 13.3025 24.1929C13.248 24.1395 13.1391 24.0861 13.0847 24.0326C12.649 23.7122 12.05 23.2849 11.5054 22.6973C11.2331 22.4303 11.0153 22.1098 10.8519 21.7893C10.6885 21.4688 10.5796 21.095 10.5251 20.7745C10.5251 20.7745 10.4707 20.454 10.5251 20.0801C10.5251 20.0267 10.5796 19.9733 10.6341 19.9733H11.2876C11.342 19.9733 11.342 20.0267 11.342 20.0801C11.342 20.4006 11.3965 20.6677 11.3965 20.6677C11.4509 20.8813 11.5054 21.0415 11.6688 21.362C11.7777 21.6291 11.9955 21.8427 12.2133 22.1098C12.649 22.5905 13.1391 22.9644 13.5748 23.2849C13.9015 23.4985 14.6639 23.9258 15.0451 24.1395C15.0986 24.1919 15.0451 24.2463 15.0451 24.2463ZM14.1738 17.1958C13.8471 17.4095 13.6292 17.6231 13.5203 17.6766C13.4659 17.73 13.4114 17.73 13.4114 17.73H12.2133C12.1589 17.73 12.1589 17.6766 12.2133 17.6766C12.5401 17.4629 13.4114 16.8754 13.7926 16.6083C14.2283 16.2878 14.8818 15.9139 15.4808 15.5935C16.1343 15.2196 16.7333 14.8991 17.2235 14.6855C17.2779 14.632 17.3868 14.632 17.4413 14.5786C17.4957 14.5786 17.5502 14.5252 17.6047 14.5252H18.9116C18.9661 14.5252 18.9661 14.5786 18.9116 14.5786C18.6394 14.6855 17.8769 15.0059 17.5502 15.2196C17.0601 15.4866 16.461 15.8071 15.862 16.181C15.1541 16.5015 14.555 16.8754 14.1738 17.1958ZM20.382 27.7181C20.1097 27.6113 19.783 27.451 19.4562 27.3442C18.8027 27.0772 18.1492 26.7567 17.6591 26.543C17.2779 26.3828 16.7333 26.1157 16.461 26.0089C16.4066 26.0089 16.461 25.9555 16.461 25.9555H18.5849C18.6394 25.9555 18.6938 25.9555 18.8027 26.0089C19.1295 26.1691 19.5107 26.276 19.8374 26.4362C20.7632 26.8101 22.3425 27.451 23.1594 27.7715C23.2138 27.7715 23.2138 27.8783 23.1594 27.8783H20.9266C20.7632 27.8249 20.5454 27.7715 20.382 27.7181ZM27.6793 41.6588C26.808 42.2463 24.0851 44.0623 23.3227 44.543C23.2138 44.6499 23.0504 44.6498 22.8871 44.6498H20.4909C20.382 44.6498 20.3275 44.543 20.4365 44.4896C21.4167 43.9021 24.4663 41.9792 25.1198 41.5519C25.2287 41.4985 25.2832 41.4451 25.3921 41.4451H27.5704C27.7338 41.4985 27.7883 41.6053 27.6793 41.6588ZM28.3328 31.1365C28.1695 31.0831 28.0061 30.9763 27.8427 30.9228C26.9169 30.4955 25.6644 29.9614 24.9565 29.6409C24.902 29.5875 24.902 29.4807 25.0109 29.4807H27.3526C27.4615 29.4807 27.5704 29.4807 27.6793 29.5341C27.8972 29.6409 28.115 29.7478 28.3873 29.8012C28.714 29.9614 29.0408 30.0682 29.3675 30.2285C29.6943 30.3887 29.9666 30.4955 30.2389 30.6558C30.5656 30.816 31.2736 31.2433 31.6548 31.457C31.7092 31.5104 31.7092 31.6172 31.6003 31.6172H29.8032C29.5854 31.6172 29.3675 31.5638 29.1497 31.457C29.0408 31.4036 28.9319 31.3501 28.823 31.2967C28.6596 31.2433 28.4962 31.1899 28.3328 31.1365ZM33.6153 35.0356C33.6153 35.3561 33.5063 35.73 33.343 36.1039C33.1796 36.4777 33.0162 36.7982 32.7984 37.1187C32.3627 37.7596 31.8181 38.2938 31.4369 38.6677L31.0013 39.095C30.8924 39.2018 30.7834 39.2018 30.6745 39.2018H28.9863C28.8774 39.2018 28.823 39.095 28.9319 38.9881C29.422 38.6142 30.2389 37.8665 30.5112 37.6528C30.8924 37.3323 31.328 36.7982 31.7092 36.3175C32.1993 35.6766 32.3083 34.7685 32.3083 34.3947C32.3083 34.3412 32.3627 34.2878 32.4172 34.2878H33.5063C33.5608 34.2878 33.6153 34.3412 33.6153 34.3947V35.0356Z" fill="#505650"/>
<circle cx="24" cy="24" r="23" stroke="#191919" stroke-width="2"/>
</svg>
