<svg width="72" height="72" viewBox="0 0 72 72" fill="none" xmlns="http://www.w3.org/2000/svg">
<g clip-path="url(#clip0_449_4325)">
<path d="M36 72C16.15 72 0 55.85 0 36C0 16.15 16.15 0 36 0C55.85 0 72 16.15 72 36C72 55.85 55.85 72 36 72ZM36 1.12C16.77 1.12 1.12 16.77 1.12 36C1.12 55.23 16.77 70.88 36 70.88C55.23 70.88 70.88 55.23 70.88 36C70.88 16.77 55.23 1.12 36 1.12Z" fill="#231F20"/>
<path d="M22.8014 54.6517C21.4914 54.6517 20.3114 53.7117 20.0714 52.3717C19.9414 51.6417 20.1014 50.9017 20.5214 50.2917C20.9414 49.6817 21.5814 49.2717 22.3114 49.1417C23.8214 48.8717 25.2614 49.8717 25.5414 51.3717C25.8214 52.8717 24.8114 54.3217 23.3114 54.6017C23.1414 54.6317 22.9814 54.6417 22.8114 54.6417L22.8014 54.6517ZM22.8014 50.2217C22.7014 50.2217 22.6014 50.2217 22.5014 50.2517C22.0614 50.3317 21.6914 50.5717 21.4414 50.9417C21.1914 51.3017 21.0914 51.7417 21.1714 52.1817C21.3314 53.0817 22.1914 53.6817 23.1014 53.5117C23.5414 53.4317 23.9114 53.1917 24.1614 52.8217C24.4114 52.4617 24.5114 52.0217 24.4314 51.5817C24.3514 51.1417 24.1114 50.7717 23.7414 50.5217C23.4614 50.3317 23.1314 50.2317 22.8014 50.2317V50.2217Z" fill="#231F20"/>
<path d="M35.3391 40.0883C31.5891 40.0883 28.5391 37.0383 28.5391 33.2883C28.5391 29.5383 31.5891 26.4883 35.3391 26.4883C39.0891 26.4883 42.1391 29.5383 42.1391 33.2883C42.1391 37.0383 39.0891 40.0883 35.3391 40.0883ZM35.3391 27.6683C32.2391 27.6683 29.7191 30.1883 29.7191 33.2883C29.7191 36.3883 32.2391 38.9083 35.3391 38.9083C38.4391 38.9083 40.9491 36.3883 40.9491 33.2883C40.9491 30.1883 38.4291 27.6683 35.3391 27.6683Z" fill="#231F20"/>
<path d="M47.3795 28.3314C46.0695 28.3314 44.8895 27.3914 44.6495 26.0514C44.3795 24.5414 45.3795 23.1014 46.8795 22.8214C47.6195 22.6914 48.3495 22.8514 48.9595 23.2714C49.5695 23.6914 49.9795 24.3314 50.1095 25.0614C50.3795 26.5714 49.3795 28.0114 47.8795 28.2914C47.7095 28.3214 47.5495 28.3314 47.3795 28.3314ZM47.3795 23.9014C47.2795 23.9014 47.1795 23.9014 47.0795 23.9314C46.1795 24.0914 45.5795 24.9614 45.7495 25.8614C45.9095 26.7614 46.7795 27.3514 47.6795 27.1914C48.5795 27.0314 49.1795 26.1614 49.0095 25.2614C48.9295 24.8214 48.6895 24.4514 48.3195 24.2014C48.0395 24.0114 47.7095 23.9114 47.3795 23.9114V23.9014Z" fill="#231F20"/>
<path d="M56.6008 23.6307C52.8108 17.0707 40.3508 17.1407 28.8208 23.8007C17.2908 30.4607 11.0008 41.2107 14.7908 47.7807C15.6408 49.2607 16.9508 50.3807 18.5708 51.1807V49.9607C17.3808 49.2707 16.4208 48.3507 15.7608 47.2107C12.2808 41.1807 18.3908 31.1107 29.3908 24.7607C35.0708 21.4807 40.9608 19.8307 45.8108 19.8307C50.3408 19.8307 53.9608 21.2807 55.6408 24.1907C57.2908 27.0607 56.8308 30.9507 54.3208 35.1507C51.7608 39.4507 47.3808 43.5307 42.0108 46.6307C36.8608 49.6007 31.5608 51.2207 27.0008 51.5007V52.5807C31.7708 52.3107 37.2608 50.6607 42.5708 47.5907C48.1108 44.3907 52.6208 40.1707 55.2808 35.7107C58.0008 31.1407 58.4708 26.8507 56.6008 23.6107V23.6307Z" fill="black"/>
<path d="M48.5802 30.6017C48.5602 31.8717 48.0602 33.3417 47.0702 34.9017C45.4202 37.5017 42.6602 40.0017 39.3002 41.9417C32.4702 45.8817 25.3002 46.2917 23.3102 42.8417C22.0002 40.5717 23.2802 37.1817 26.2502 34.0117L25.4502 33.2117C22.1002 36.7817 20.7602 40.6617 22.3402 43.4017C23.4602 45.3417 25.8002 46.3017 28.7702 46.3017C32.0002 46.3017 35.9602 45.1617 39.8602 42.9117C43.3702 40.8817 46.2702 38.2517 48.0102 35.5017C49.1402 33.7217 49.7002 32.0217 49.7002 30.5117L48.5802 30.6017Z" fill="#231F20"/>
</g>
<defs>
<clipPath id="clip0_449_4325">
<rect width="72" height="72" fill="white"/>
</clipPath>
</defs>
</svg>
