<svg width="33" height="20" viewBox="0 0 33 20" fill="none" xmlns="http://www.w3.org/2000/svg">
<path d="M15.207 12.4707V6.99609H16.7277V12.4707H15.207Z" fill="black"/>
<path fill-rule="evenodd" clip-rule="evenodd" d="M29.8066 12.4707V6.99609H31.0232L31.7832 9.1006V6.99609H32.9997V12.4696L33.0001 12.4707H32.9997H31.7836H31.7832V12.4696L31.0232 10.3651V12.4707H29.8066Z" fill="black"/>
<path fill-rule="evenodd" clip-rule="evenodd" d="M0 9.1254V8.21266V6.99609H1.52071H2.43314V8.21266H1.52071V9.1254H2.28107V10.342H1.52071V12.4707H0V10.342V9.1254Z" fill="black"/>
<path fill-rule="evenodd" clip-rule="evenodd" d="M15.8913 0.0009664L1.97754 18.88L2.53686 19.2911L15.8918 1.2169L29.1345 19.294L29.6938 18.8829L15.8921 0.00136674V0L15.8916 0.000680561L15.8913 0.000392146V0.0009664Z" fill="black"/>
</svg>
