<svg width="72" height="21" viewBox="0 0 72 21" fill="none" xmlns="http://www.w3.org/2000/svg">
<g clip-path="url(#clip0_841_6198)">
<path d="M10.9727 10.7816C10.5262 10.3348 10.0167 9.94876 9.45205 9.63943C8.8874 9.3301 8.30173 9.04721 7.71082 8.80398C7.11727 8.5581 6.53686 8.31751 5.96695 8.0875C5.39967 7.85484 4.88492 7.59046 4.43845 7.29699C3.98935 7.00617 3.62429 6.65718 3.35378 6.26325C3.08065 5.86932 2.94408 5.38021 2.94408 4.80385C2.94408 4.0768 3.02812 3.54803 3.20409 3.18847C3.37742 2.83419 3.5849 2.56188 3.82127 2.37681C4.05238 2.21289 4.37279 2.09392 4.8035 2.01196C5.22634 1.93265 5.72008 1.89299 6.27423 1.89299C6.98333 1.89299 7.75809 1.99081 8.57749 2.18381C9.35225 2.36623 10.1086 2.58567 10.8309 2.83419L10.9149 2.86328L11.5163 0.494398L11.4297 0.475891C10.7573 0.341055 10.0745 0.22737 9.39953 0.140123C8.6878 0.0475891 7.91567 0 7.10414 0C6.09564 0 5.18169 0.163918 4.38855 0.486466C3.5954 0.809014 2.91782 1.23203 2.37417 1.737C1.83053 2.24462 1.41032 2.81833 1.12143 3.44492C0.832537 4.07151 0.68809 4.70074 0.68809 5.3194C0.68809 6.21566 0.824658 6.98502 1.09254 7.60368C1.36042 8.22233 1.72285 8.76168 2.1667 9.2032C2.61054 9.64472 3.12267 10.0175 3.68732 10.3163C4.25198 10.6124 4.83502 10.8873 5.41806 11.1332C6.00109 11.3764 6.58413 11.6197 7.15141 11.8497C7.71869 12.0823 8.23345 12.3547 8.67992 12.6587C9.12902 12.9654 9.49407 13.3382 9.76458 13.7717C10.0351 14.2053 10.1743 14.742 10.1743 15.3686C10.1743 15.8445 10.1401 16.2596 10.0745 16.598C10.0088 16.9364 9.91691 17.2246 9.8066 17.452C9.69367 17.682 9.55973 17.8644 9.41528 17.9966C9.26821 18.1314 9.11326 18.2478 8.95568 18.3377C8.66416 18.5121 8.28598 18.6602 7.83163 18.7792C7.37465 18.8981 6.82313 18.959 6.19281 18.959C5.72796 18.959 5.24472 18.8955 4.75098 18.7686C4.25723 18.6417 3.77137 18.4857 3.31176 18.298C2.85216 18.1129 2.41094 17.9067 2.00124 17.6899C1.64144 17.4969 1.32103 17.3092 1.05577 17.1321L0.971731 17.0765L0 19.4269L0.0656575 19.4639C0.829911 19.8922 1.65982 20.2386 2.5265 20.4924C3.42469 20.7568 4.45946 20.8916 5.6019 20.8916C6.74434 20.8916 7.66879 20.7118 8.51446 20.3549C9.36013 19.998 10.0824 19.5247 10.6654 18.9431C11.2484 18.3615 11.6975 17.6952 11.9969 16.9655C12.299 16.2332 12.4513 15.4744 12.4513 14.7103C12.4513 13.814 12.3147 13.0394 12.0468 12.4049C11.779 11.773 11.4165 11.2257 10.9727 10.7763V10.7816Z" fill="#191919"/>
<path d="M30.764 6.29173C30.0996 5.56468 29.2592 4.99889 28.2664 4.61289C27.2737 4.22689 26.1024 4.03125 24.784 4.03125C23.4656 4.03125 22.2863 4.22689 21.3172 4.61289C20.3429 5.00154 19.5314 5.56732 18.8984 6.29437C18.2681 7.02143 17.7954 7.9124 17.496 8.94614C17.1992 9.9746 17.0469 11.1458 17.0469 12.4307C17.0469 13.7156 17.1939 14.8948 17.4881 15.9364C17.7822 16.9834 18.2445 17.8955 18.8643 18.6437C19.4841 19.3919 20.293 19.9815 21.2673 20.3887C22.2391 20.7958 23.4104 21.0047 24.7524 21.0047C26.0945 21.0047 27.2474 20.8038 28.2454 20.4072C29.2434 20.0106 30.0865 19.4316 30.7509 18.686C31.4127 17.9431 31.9196 17.0336 32.2558 15.9814C32.5919 14.9318 32.76 13.7368 32.76 12.4307C32.76 11.1247 32.5919 9.9746 32.2637 8.94614C31.9327 7.91505 31.4285 7.02143 30.7667 6.29702L30.764 6.29173ZM24.7524 19.5532C23.7623 19.5532 22.9272 19.3734 22.2706 19.0192C21.614 18.6649 21.0809 18.1678 20.6869 17.5413C20.2904 16.912 20.0041 16.1532 19.8308 15.2861C19.6574 14.4136 19.5707 13.4512 19.5707 12.4281C19.5707 11.7592 19.5918 11.1062 19.6338 10.4875C19.6758 9.87149 19.7441 9.29249 19.8386 8.76636C19.9332 8.24553 20.0592 7.7855 20.2168 7.39685C20.3718 7.01614 20.5609 6.72532 20.7815 6.53232C21.1938 6.18069 21.7611 5.91102 22.4676 5.73388C23.1793 5.5541 23.9593 5.46421 24.7866 5.46421C25.7347 5.46421 26.5593 5.63342 27.2395 5.96918C27.9198 6.30231 28.487 6.78084 28.9283 7.38628C29.3695 7.99436 29.7004 8.73199 29.9079 9.58331C30.118 10.4373 30.223 11.397 30.223 12.4307C30.223 13.0652 30.1994 13.7024 30.1521 14.3316C30.1048 14.9556 30.026 15.5425 29.9236 16.0766C29.8186 16.6106 29.6873 17.0865 29.5297 17.4884C29.3774 17.885 29.1856 18.1758 28.965 18.3608C28.4476 18.8103 27.8515 19.1249 27.1923 19.2968C26.5304 19.4713 25.7084 19.5585 24.7551 19.5585L24.7524 19.5532Z" fill="#191919"/>
<path d="M50.0627 10.4489C50.0627 10.7503 50.0653 11.0808 50.0706 11.4351C50.0758 11.8026 50.0811 12.1965 50.0864 12.6116C50.0916 13.0293 50.0942 13.4444 50.0942 13.8436C50.1047 14.7558 50.1179 15.7393 50.1389 16.7624L38.7512 4.15925L38.7276 4.13281H37.6377V20.8154H39.2686V15.2052C39.2686 15.11 39.266 14.9329 39.2608 14.6738C39.2555 14.4173 39.2502 14.1133 39.245 13.7617C39.2397 13.41 39.2345 13.0214 39.2292 12.601C39.224 12.178 39.2161 11.7497 39.2056 11.3267C39.1872 10.4384 39.1662 9.41256 39.1452 8.19639L50.5512 20.8683L50.5748 20.8947H51.6963V4.26236H50.0653V10.4489H50.0627Z" fill="#191919"/>
<path d="M71.5032 8.94086C71.1723 7.90976 70.6681 7.01614 70.0062 6.29173C69.3418 5.56468 68.5014 4.99889 67.5086 4.61289C66.5159 4.22689 65.3445 4.03125 64.0261 4.03125C62.7077 4.03125 61.5285 4.22689 60.5594 4.61289C59.5851 5.00154 58.7735 5.56732 58.1406 6.29437C57.5103 7.02143 57.0376 7.9124 56.7382 8.94614C56.4414 9.9746 56.2891 11.1458 56.2891 12.4307C56.2891 13.7156 56.4361 14.8948 56.7303 15.9364C57.0244 16.9834 57.4867 17.8955 58.1065 18.6437C58.7263 19.3919 59.5352 19.9815 60.5095 20.3887C61.4813 20.7958 62.6526 21.0047 63.9946 21.0047C65.3367 21.0047 66.4896 20.8038 67.4876 20.4072C68.4856 20.0106 69.3286 19.4316 69.9931 18.686C70.6549 17.9431 71.1618 17.0336 71.498 15.9814C71.8341 14.9318 72.0022 13.7368 72.0022 12.4307C72.0022 11.1247 71.8341 9.9746 71.5058 8.94614L71.5032 8.94086ZM69.4626 12.4254C69.4626 13.06 69.4389 13.6998 69.3917 14.3264C69.3444 14.9503 69.2682 15.5372 69.1632 16.0713C69.0581 16.6053 68.9268 17.0812 68.7692 17.4831C68.6169 17.8797 68.4252 18.1705 68.2046 18.3556C67.6872 18.805 67.091 19.1196 66.4318 19.2915C65.77 19.466 64.948 19.5532 63.9946 19.5532C63.0413 19.5532 62.1693 19.3734 61.5128 19.0192C60.8562 18.6649 60.3231 18.1678 59.9291 17.5413C59.5325 16.912 59.2463 16.1532 59.0729 15.2861C58.8996 14.4136 58.8129 13.4512 58.8129 12.4281C58.8129 11.7618 58.8339 11.1088 58.876 10.4875C58.918 9.87149 58.9863 9.29249 59.0808 8.76636C59.1754 8.24817 59.3014 7.7855 59.459 7.39685C59.614 7.01614 59.8031 6.72532 60.0237 6.53232C60.436 6.18069 61.0033 5.91102 61.7097 5.73388C62.4215 5.5541 63.2015 5.46421 64.0288 5.46421C64.9769 5.46421 65.8015 5.63342 66.4817 5.96918C67.1619 6.30231 67.7292 6.78084 68.1704 7.38628C68.6117 7.99436 68.9426 8.73199 69.15 9.58331C69.3602 10.4373 69.4652 11.397 69.4652 12.4307L69.4626 12.4254Z" fill="#191919"/>
</g>
<defs>
<clipPath id="clip0_841_6198">
<rect width="72" height="21" fill="white"/>
</clipPath>
</defs>
</svg>
