<svg width="167" height="218" viewBox="0 0 167 218" fill="none" xmlns="http://www.w3.org/2000/svg">
<g clip-path="url(#clip0_1002_6784)">
<path d="M158.081 114.981C157.391 114.221 156.671 113.511 155.861 112.941C155.191 111.911 154.521 110.871 153.731 109.921C153.541 109.701 153.331 109.521 153.141 109.301C151.791 107.771 150.321 106.431 148.741 105.281C149.401 105.081 150.031 104.871 150.631 104.641C166.101 98.6706 166.071 97.9906 165.171 80.6106C165.161 80.4006 165.151 80.1706 165.141 79.9606C166.621 72.8506 165.771 64.1306 164.971 56.1606C164.851 54.9506 164.751 53.8206 164.641 52.6606C164.671 51.2706 164.701 49.8706 164.761 48.3906C164.971 42.4106 165.581 37.2806 166.131 32.7506C166.951 25.9206 167.541 20.9906 166.041 18.5406C164.971 16.7906 162.451 15.8006 158.471 15.4706C157.781 14.7106 157.061 14.0006 156.251 13.4306C155.581 12.4006 154.911 11.3606 154.121 10.4106C153.931 10.1906 153.721 10.0106 153.531 9.79056C147.091 2.48056 138.081 -0.519436 126.681 0.940564C123.811 1.31056 117.011 -0.179437 108.051 0.900564C101.561 1.68056 93.8207 2.61056 85.5607 3.62056C60.0307 0.710563 34.4107 -2.26944 21.9507 2.53056C19.5707 3.45056 17.5107 4.30056 15.7107 5.14056C15.2207 5.17056 14.7707 5.21056 14.3607 5.24056C8.50073 5.71056 5.05073 10.6206 3.15073 13.9006C1.83073 16.1806 1.45073 18.9706 1.55073 22.2106C-0.619273 26.8406 0.620727 32.9006 2.21073 40.5706C2.26073 40.8006 2.31073 41.0406 2.35073 41.2706C1.78073 42.2106 1.11073 43.1406 0.600727 44.0906C1.03073 47.3606 1.46073 50.6306 1.89073 53.9106C4.52073 58.5606 6.19073 63.2006 1.65073 67.7506C1.90073 72.2706 2.16073 76.8006 2.41073 81.3206C2.78073 81.8606 3.15073 82.4006 3.50073 82.9406C2.61073 90.4006 2.02073 96.3206 4.58073 100.491C5.65073 102.231 7.19073 103.461 9.26073 104.311C9.96073 105.831 10.9007 107.091 12.1707 108.191C7.40073 108.841 4.46073 110.491 2.76073 113.411C1.44073 115.691 1.06073 118.481 1.16073 121.721C-1.00927 126.351 0.230727 132.411 1.82073 140.081C2.71073 144.381 3.72073 149.261 4.39073 154.881C4.42073 155.151 4.45073 155.401 4.48073 155.671C4.57073 158.251 4.63073 160.671 4.66073 162.941C4.63073 164.091 4.61073 165.231 4.57073 166.441C4.37073 172.111 3.78073 177.091 3.25073 181.471C2.30073 189.391 1.55073 195.641 4.21073 199.991C5.28073 201.731 6.82073 202.961 8.89073 203.811C11.1507 208.741 15.9107 210.971 26.4307 213.651C29.6307 214.461 33.6007 214.751 38.1707 214.631C43.1807 214.501 48.8907 213.871 55.0507 212.921C55.4807 213.131 55.9107 213.331 56.3607 213.491C59.1507 214.541 62.9407 216.281 65.0407 215.211C72.0707 211.621 77.4807 214.741 83.1707 217.771C89.6007 217.341 96.0407 216.921 102.471 216.491C110.301 212.811 118.911 214.611 125.941 217.621C130.641 217.671 135.331 217.721 140.031 217.771C142.531 215.961 151.631 214.951 154.411 214.221C162.091 212.211 160.081 206.431 161.271 203.061C169.341 199.241 165.541 194.151 164.811 180.131C164.801 179.921 164.791 179.691 164.781 179.481C166.261 172.371 165.411 163.651 164.611 155.681C164.491 154.471 164.391 153.341 164.281 152.181C164.311 150.791 164.341 149.391 164.401 147.911C164.611 141.931 165.221 136.801 165.771 132.271C166.591 125.441 167.181 120.511 165.681 118.061C164.611 116.311 162.091 115.321 158.111 114.991L158.081 114.981ZM14.3407 57.1506C13.7707 49.6706 13.7807 35.6506 20.2307 25.8306C22.1507 22.9106 24.5207 20.5806 27.3107 18.8106C35.4907 17.6506 46.0407 16.2506 57.1607 14.8106C58.4807 14.8106 59.8307 14.8106 61.2707 14.8106C74.9507 14.7806 94.3907 14.7406 112.171 14.7906C125.281 16.3406 136.181 17.3206 142.581 16.5706C143.571 16.4506 144.481 16.4506 145.361 16.4806C146.941 17.8206 148.371 19.3906 149.611 21.1806C156.321 30.8506 156.701 44.8606 156.341 52.3506C156.161 55.9306 156.341 60.0306 156.531 64.3806C156.601 65.9906 156.661 67.6306 156.721 69.2806C156.341 74.9006 155.191 81.1506 152.511 86.6006C150.741 87.6706 148.561 88.2806 145.801 88.2706C137.361 88.3706 121.201 92.4406 102.571 97.1806C98.1407 98.3106 93.6207 99.4606 89.0807 100.581C88.5007 100.671 87.9107 100.751 87.3307 100.831C78.0907 100.831 68.2207 100.831 58.8107 100.811C47.8907 99.5206 38.4807 98.6206 31.9607 98.7906C30.6607 98.8206 29.4807 98.9006 28.4207 99.0306C23.7707 99.5906 20.4507 98.4706 18.2507 95.6306C14.1407 90.3106 14.3207 79.0806 14.4807 69.1706C14.5507 64.8206 14.6207 60.7106 14.3507 57.1406L14.3407 57.1506ZM149.341 196.721C142.221 197.881 134.951 199.071 127.671 200.231C126.731 200.321 125.801 200.411 124.861 200.501C116.971 200.571 108.801 200.641 100.611 200.701L128.251 193.971C142.081 193.591 147.261 194.891 154.391 195.891C152.721 196.161 151.041 196.441 149.351 196.711L149.341 196.721ZM151.541 183.461C149.791 184.491 147.631 185.061 144.881 185.061C136.501 185.161 120.481 189.061 101.991 193.611C97.5907 194.691 93.1107 195.791 88.6107 196.871C88.0307 196.951 87.4507 197.031 86.8707 197.111C77.7007 197.131 67.9107 197.131 58.5807 197.111C47.7507 195.891 38.4107 195.031 31.9507 195.201C30.6707 195.231 29.4907 195.311 28.4407 195.431C23.8207 195.971 20.5307 194.901 18.3607 192.191C14.2807 187.111 14.4707 176.371 14.6407 166.901C14.7107 162.741 14.7807 158.821 14.5207 155.401C13.9607 148.251 13.9807 134.851 20.3807 125.461C22.2807 122.671 24.6407 120.441 27.4107 118.751C35.5207 117.631 45.9907 116.291 57.0207 114.901C58.3307 114.901 59.6707 114.901 61.1007 114.891C74.6707 114.851 93.9507 114.801 111.591 114.831C124.591 116.301 135.411 117.231 141.751 116.511C142.741 116.401 143.641 116.391 144.501 116.421C146.071 117.701 147.481 119.201 148.721 120.911C155.371 130.141 155.741 143.541 155.371 150.701C155.191 154.121 155.371 158.051 155.551 162.201C155.621 163.741 155.681 165.311 155.731 166.891C155.351 172.271 154.201 178.241 151.541 183.451V183.461Z" fill="black"/>
</g>
<defs>
<clipPath id="clip0_1002_6784">
<rect width="166.95" height="217.75" fill="white"/>
</clipPath>
</defs>
</svg>
