<svg width="96" height="116" viewBox="0 0 96 116" fill="none" xmlns="http://www.w3.org/2000/svg">
<path d="M91.0569 54.991C90.596 57.0248 85.6698 60.3823 85.6698 60.3823C94.5773 63.5957 95.6259 64.0655 95.0786 73.3427C95.0728 73.4548 95.0671 73.5776 95.0555 73.6897C95.8967 77.4903 95.3897 82.1396 94.9115 86.3939C94.8366 87.0398 94.779 87.643 94.7156 88.2622C94.7329 89.0041 94.7444 89.7514 94.7732 90.5414C94.8827 93.7335 95.2284 96.4718 95.5338 98.8899C95.9947 102.536 96.3289 105.173 95.4588 106.475C94.8366 107.404 93.3847 107.927 91.0915 108.098C90.694 108.503 90.2791 108.882 89.8067 109.181C89.4149 109.731 89.0288 110.281 88.5737 110.788C88.4642 110.906 88.3432 111.002 88.2337 111.119C84.5117 115.01 79.3089 116.596 72.7521 115.8C71.0985 115.598 67.1806 115.149 62.0239 114.562C58.2904 114.135 53.8251 113.623 49.0717 113.073C34.3507 114.589 19.5893 115.635 12.416 113.051C11.0447 112.555 9.8636 112.096 8.8265 111.647C8.54418 111.631 8.28491 111.61 8.04868 111.594C4.67235 111.333 2.68457 110.436 1.60138 108.68C0.846601 107.457 0.633419 105.973 0.696797 104.244C-0.54772 101.772 0.178249 98.5323 1.10588 94.4434C1.13468 94.3207 1.16349 94.1926 1.1923 94.0698C0.863887 93.568 0.483616 93.0716 0.189772 92.5645C0.443285 90.819 0.696799 89.0735 0.950312 87.328C2.47715 84.8459 3.44511 82.3744 0.840841 79.9404C0.996406 77.5276 1.14621 75.1096 1.30177 72.6968C1.51496 72.4086 1.72814 72.1203 1.93556 71.8321C1.43429 67.85 1.11164 64.69 2.59239 62.4694C3.20888 61.546 1.39973 59.3886 2.59239 58.9402C-0.714803 58.6092 2.53477 56.6031 1.56681 55.0337C0.812035 53.8113 0.598853 52.3274 0.662231 50.5979C-0.582286 48.1265 0.143683 45.4202 1.07131 41.3313C1.58986 39.036 2.18331 36.4365 2.58087 33.4366C2.58087 33.4366 2.88047 30.2979 2.70186 27.2713C2.52325 24.2447 2.26398 21.5864 1.97013 19.2431C1.4343 15.0155 1.0137 11.674 2.55782 9.35733C3.17432 8.43387 4.06738 7.77732 5.26004 7.32893C6.5737 4.70269 9.31626 3.51767 15.3833 2.10313C17.227 1.67609 19.5202 1.52663 22.1475 1.59603C25.0341 1.67609 28.324 2.01772 31.8732 2.54084C32.1209 2.42874 32.3687 2.32732 32.6279 2.23658C34.2354 1.68144 36.4249 0.757977 37.6291 1.33447C41.6737 3.26145 44.7908 1.6067 48.0807 -7.27069e-06C51.7855 0.240198 55.496 0.480415 59.2007 0.715283C62.4388 4.676 66.3798 3.82727 70.4302 2.23124C73.1382 2.20989 75.8404 2.19388 78.5484 2.17253C79.9888 3.13868 85.2262 3.69917 86.8279 4.09418C91.2471 5.18311 90.2618 7.2115 90.9475 9.01037C95.5914 11.0655 95.4934 12.7523 95.0498 20.2306C95.044 20.3427 95.0383 20.4655 95.0267 20.5776C95.8679 24.3782 95.3609 29.0275 94.8827 33.2818C94.8078 33.9277 94.7502 34.5309 94.6868 35.1501C94.7041 35.892 94.7214 36.6393 94.7444 37.4293C94.8539 40.6214 95.1996 43.3598 95.5049 45.7778C95.9659 49.4236 96.3001 52.0605 95.43 53.363C94.8078 54.2918 93.3558 54.8149 91.0627 54.9857L91.0569 54.991ZM13.5338 100.817C14.5478 102.338 15.8039 103.555 17.2846 104.479C21.6289 105.098 27.2293 105.84 33.135 106.609C33.8321 106.609 34.5581 106.614 35.3186 106.619C42.5898 106.657 52.9148 106.71 62.3639 106.71C69.3297 105.925 75.1259 105.434 78.5196 105.835C79.0496 105.899 79.5279 105.904 79.9945 105.883C80.8069 105.21 81.5387 104.431 82.1897 103.539L85.6986 103.23C85.4912 102.803 85.2838 99.824 85.0763 99.397C84.6212 98.655 84.7825 97.769 85.7216 97.5394C85.7216 97.5394 86.9143 97.2085 87.4098 94.1765C87.4098 94.1765 87.6576 93.0022 86.6723 91.8279C86.6205 90.5628 88.2683 84.8459 88.251 83.5488C88.2453 82.9456 88.2971 82.0382 88.5564 81.3816L86.0731 79.4333C86.0846 79.097 86.1019 78.766 86.1134 78.4297C85.9233 75.5046 87.0699 72.7876 85.6525 69.9425C84.7134 69.382 83.4285 67.6045 81.9593 67.6045C78.8019 67.5618 72.804 66.3981 66.0801 64.8448C64.8241 64.8341 63.5681 64.8181 62.312 64.8074C58.734 63.7665 55.2367 63.2061 52.2349 65.7309C48.9162 65.8697 45.5974 66.0085 42.2787 66.1419C39.3864 65.101 36.6496 64.0228 32.9794 65.2451C31.8847 65.6081 29.9603 65.0049 28.5372 64.6473C27.2235 64.311 25.1551 63.473 23.9278 62.9872C23.7434 62.7897 23.5591 62.5975 23.3747 62.4C22.8619 62.3894 22.3491 62.3733 21.8248 62.3573C21.1392 62.336 18.6674 63.2007 17.4056 63.2808C14.9223 63.4302 13.1708 64.1082 12.0012 65.5761C9.80599 68.3358 10.4686 73.0918 10.5377 78.2482C10.5665 80.5115 10.5953 82.6467 10.4455 84.5096C10.1286 88.4009 10.1114 95.6925 13.5223 100.812L13.5338 100.817ZM57.8986 15.4425C55.5421 14.9141 53.1337 13.3181 50.7196 12.7896C50.4084 12.7469 50.0973 12.7095 49.7862 12.6722C44.8657 12.6508 39.6111 12.6348 34.5984 12.6295C28.7792 13.206 24.2966 12.3038 20.8281 12.2078C20.1367 12.1918 19.5086 12.1491 18.944 12.0903C16.4665 11.8234 14.6976 12.3359 13.528 13.6437C13.1074 14.1134 12.7502 14.7753 12.4506 15.5653C12.3066 17.6204 12.6407 19.7929 12.9922 21.832C11.4423 22.9156 12.1279 24.4369 13.0844 26.4172C13.2515 26.7909 11.6555 32.2035 11.8283 32.5825L10.8892 33.5327C10.8834 33.6341 10.8777 33.7355 10.8719 33.8369C10.5608 37.3012 8.68823 43.5252 12.1107 48.0891C12.7387 48.9218 14.1042 49.509 15.4063 50.0268C16.2821 49.6211 17.106 49.0446 17.7917 48.7297L26.3304 50.4698C26.6589 51.6869 27.7824 52.3594 28.6236 52.8238C30.2599 53.0907 31.9365 53.3416 33.6247 53.5391C34.1721 53.5391 34.7425 53.5445 35.3244 53.5498C36.0388 53.2882 36.7533 53.0374 37.4735 52.9253C39.7493 52.5463 42.0252 52.1673 44.3011 51.7829C45.0789 51.4627 45.8567 51.1371 46.6345 50.8168C47.0206 50.4378 47.4008 50.0641 47.7869 49.6852C49.1697 49.6745 50.5813 49.8666 51.918 49.5891C52.8744 49.3916 53.7271 48.5535 54.626 48.0037C55.7783 48.1105 56.9249 48.2172 58.0772 48.324C58.7398 48.6336 59.4024 49.2154 60.0707 49.1941C61.805 49.1407 63.545 48.8151 65.285 48.6016C66.1493 48.8418 67.4053 48.8685 68.2696 49.1033C68.9495 49.4396 72.2394 51.4787 72.9135 51.815C74.665 52.5142 76.405 52.6904 78.1335 51.5L82.8466 49.856C83.3939 49.5944 83.9413 49.3275 84.4887 49.066C86.8048 44.7743 85.5027 39.4417 85.3356 36.3297C85.2492 34.6697 85.3471 32.7693 85.4509 30.7516C85.4912 30.0043 86.1019 29.241 86.1307 28.4777C85.9406 25.8675 85.906 22.4405 84.4887 19.9104C83.5495 19.4086 82.3914 19.1257 80.9164 19.1257C76.4223 19.067 67.8202 17.6791 57.9043 15.4479L57.8986 15.4425ZM83.9067 11.8715C80.4728 11.2363 76.9697 10.5957 73.4608 9.96052C73.0114 9.91248 72.5563 9.86443 72.1068 9.81105C68.3042 9.76301 64.3632 9.70963 60.4107 9.66693L73.7316 13.302C80.4036 13.5316 82.9042 12.843 86.3382 12.3199C85.5315 12.1704 84.7249 12.0209 83.9067 11.8715Z" fill="#191919"/>
</svg>
