<svg width="72" height="72" viewBox="0 0 72 72" fill="none" xmlns="http://www.w3.org/2000/svg">
<g clip-path="url(#clip0_449_4343)">
<path d="M36 72C16.15 72 0 55.85 0 36C0 16.15 16.15 0 36 0C55.85 0 72 16.15 72 36C72 55.85 55.85 72 36 72ZM36 1.12C16.77 1.12 1.12 16.77 1.12 36C1.12 55.23 16.77 70.88 36 70.88C55.23 70.88 70.88 55.23 70.88 36C70.88 16.77 55.23 1.12 36 1.12Z" fill="#231F20"/>
<path d="M13.4688 55.9688C11.8688 52.2887 9.40884 48.8488 8.07884 47.1288C7.18884 45.9688 6.69884 44.5788 6.67884 43.1088C6.65884 41.3388 6.67884 39.0688 6.77884 38.0188C6.92884 36.5088 7.55884 34.5588 8.82884 30.6688L9.59885 28.2788C11.3288 22.9188 10.6688 18.9187 10.6588 18.8787L11.5388 18.7188C11.5688 18.8888 12.2488 22.9587 10.4488 28.5487L9.66884 30.9388C8.42884 34.7588 7.79884 36.6787 7.65884 38.0987C7.55884 39.1187 7.53884 41.3988 7.56884 43.0888C7.58884 44.3588 8.00884 45.5688 8.77884 46.5788C10.1288 48.3388 12.6388 51.8387 14.2788 55.6087L13.4588 55.9688H13.4688Z" fill="#231F20"/>
<path d="M16.7609 58.9783L15.8709 58.9283C15.8709 58.9283 15.9209 57.8683 15.8709 56.4583C15.8309 55.3483 13.6409 51.6083 11.5009 48.3983C9.88091 45.9783 9.20091 41.1583 9.49091 38.0783C9.78091 34.9983 11.4409 28.3383 12.5409 25.2483C13.6209 22.2283 13.3309 15.5983 13.3209 15.5283L14.2109 15.4883C14.2209 15.7683 14.5109 22.3683 13.3709 25.5483C12.2809 28.5883 10.6509 35.1383 10.3709 38.1583C10.0909 41.0983 10.7709 45.7183 12.2309 47.8983C13.5709 49.8983 16.6909 54.7383 16.7609 56.4183C16.8209 57.8783 16.7609 58.9283 16.7609 58.9783Z" fill="#231F20"/>
<path d="M18.7898 60.6909L17.9298 60.4509C18.2098 59.4809 18.1698 59.2309 18.0498 58.3209C18.0098 58.0209 17.9598 57.6609 17.9098 57.2009C17.7898 56.0309 17.1598 54.8509 16.0098 52.7109C15.3998 51.5709 14.6398 50.1509 13.7298 48.3109C10.9698 42.7309 12.1998 34.9109 13.6898 27.3809C15.2398 19.5609 14.7998 14.0909 14.7898 14.0409L15.6798 13.9609C15.6798 14.0209 16.1398 19.6009 14.5598 27.5509C13.0998 34.9209 11.8898 42.5709 14.5198 47.9109C15.4198 49.7309 16.1798 51.1409 16.7898 52.2809C17.9898 54.5209 18.6498 55.7509 18.7898 57.1009C18.8398 57.5509 18.8798 57.9009 18.9198 58.1909C19.0498 59.1409 19.0998 59.5409 18.7698 60.6909H18.7898Z" fill="#231F20"/>
<path d="M21.0793 62.0684L20.1893 62.0284L20.2293 61.0784C20.2693 60.0884 20.1093 58.1984 18.1793 53.2784C16.0793 47.9184 14.5593 42.1284 14.2993 38.5084C14.0193 34.6584 15.7793 27.3184 16.7593 23.9784C17.7793 20.4684 17.2593 12.0384 17.2593 11.9584L18.1493 11.8984C18.1693 12.2484 18.6793 20.5684 17.6193 24.2284C16.5093 28.0484 14.9493 34.9884 15.1993 38.4484C15.4493 41.9284 16.9893 47.7584 19.0293 52.9584C21.0193 58.0284 21.1893 60.0484 21.1393 61.1184L21.0993 62.0684H21.0793Z" fill="#231F20"/>
<path d="M44.5294 64.9808C44.3494 64.1708 43.8394 61.4808 44.6594 60.7108C45.0594 60.3308 45.5194 60.1908 45.9894 60.3208C46.5194 60.4708 46.9594 60.9608 47.1494 61.6408C47.4194 62.6008 47.5294 64.0508 47.5394 64.1108L46.6494 64.1808C46.6494 64.1808 46.5394 62.7608 46.2894 61.8908C46.1894 61.5308 45.9694 61.2508 45.7494 61.1908C45.5994 61.1508 45.4394 61.2108 45.2794 61.3608C45.0094 61.6208 45.0694 63.2208 45.4094 64.7908L44.5394 64.9808H44.5294Z" fill="#231F20"/>
<path d="M38.4993 66.1317C38.3593 64.3217 37.9493 58.3417 38.5593 57.3117C39.0893 56.4317 40.4193 56.2717 41.6993 56.1217C42.1993 56.0617 42.6693 56.0117 43.0593 55.9117C44.2793 55.6217 45.8793 54.2917 46.1593 53.3217C46.3793 52.5717 46.9893 52.0817 47.6393 52.1417C48.2393 52.1917 48.6693 52.6917 48.7493 53.4017C48.8093 53.9017 48.7493 54.6217 48.6793 55.4617C48.5893 56.6217 48.4693 58.0617 48.7293 58.8117C49.0793 59.8417 50.6393 61.4617 51.2093 62.0017L50.5993 62.6517C50.5093 62.5617 48.3793 60.5417 47.8893 59.1017C47.5793 58.1817 47.6893 56.7017 47.7993 55.3917C47.8593 54.6317 47.9193 53.9217 47.8693 53.5017C47.8393 53.2217 47.7293 53.0517 47.5693 53.0317C47.3793 53.0317 47.1393 53.2017 47.0293 53.5717C46.6493 54.8517 44.8293 56.4117 43.2793 56.7817C42.8393 56.8917 42.3193 56.9517 41.8193 57.0017C40.7993 57.1217 39.6393 57.2517 39.3393 57.7617C39.0193 58.2917 39.1193 62.4817 39.3993 66.0617L38.5093 66.1317H38.4993Z" fill="#231F20"/>
<path d="M36.4416 66.319L35.5616 66.159C35.7116 65.329 35.9516 62.939 35.3316 61.929C34.9716 61.349 34.4316 60.649 33.8616 59.909C33.1116 58.939 32.3416 57.929 31.9516 57.149C31.3916 56.029 31.5516 55.389 31.7816 55.049C32.0116 54.719 32.4016 54.549 32.8616 54.589C33.2016 54.619 33.5016 54.789 33.7816 54.949C34.2316 55.209 34.6616 55.449 35.3816 55.209C35.9316 55.029 36.1616 54.709 36.4116 54.369C36.6916 53.989 37.0316 53.519 37.8016 53.469C38.1216 53.449 38.4416 53.489 38.7716 53.519C39.7016 53.629 40.5716 53.719 41.6016 52.729C42.7716 51.609 44.0316 50.109 45.3716 48.529C45.8216 47.989 46.2916 47.439 46.7616 46.899C48.0216 45.439 48.7316 44.769 49.4116 44.919C49.9516 45.049 50.1816 45.649 50.3316 46.219C50.5116 46.899 50.4516 47.789 50.3916 48.819C50.3016 50.249 50.2016 51.859 50.7116 53.229C51.5616 55.479 52.8716 56.999 53.8316 57.869C54.7116 58.679 55.2016 59.369 55.2216 59.399L54.4916 59.909C54.4916 59.909 54.0316 59.269 53.2316 58.519C52.2116 57.579 50.8016 55.949 49.8816 53.539C49.2916 51.989 49.4016 50.269 49.5016 48.759C49.5616 47.849 49.6116 46.979 49.4716 46.439C49.3216 45.879 49.2116 45.789 49.2016 45.779C49.0816 45.789 48.6416 46.089 47.4516 47.479C46.9816 48.029 46.5216 48.569 46.0716 49.109C44.7216 50.709 43.4416 52.229 42.2416 53.379C40.9016 54.659 39.6816 54.519 38.6916 54.409C38.3916 54.379 38.1116 54.349 37.8716 54.359C37.5316 54.379 37.4116 54.529 37.1516 54.889C36.8816 55.259 36.5116 55.779 35.6816 56.049C34.5916 56.419 33.8816 56.019 33.3616 55.719C33.1416 55.599 32.9516 55.489 32.8016 55.479C32.7116 55.469 32.5916 55.479 32.5416 55.549C32.4616 55.659 32.4216 56.039 32.7816 56.749C33.1416 57.459 33.8816 58.429 34.6016 59.369C35.1916 60.129 35.7416 60.849 36.1216 61.469C37.0616 62.979 36.5016 66.189 36.4816 66.329L36.4416 66.319Z" fill="#231F20"/>
<path d="M33.7797 66.1212L32.8897 66.0912C32.8897 66.0912 32.9897 63.0212 31.6197 60.3912C31.0197 59.2412 30.2297 58.1212 29.5397 57.1312C28.4997 55.6512 27.6797 54.4912 27.6797 53.5912C27.6797 52.4612 27.7197 51.7012 28.2297 51.4012C28.5097 51.2412 28.8297 51.2712 29.2097 51.4912C29.9097 51.9012 30.8997 52.1112 31.5797 52.1512C33.6697 52.2512 36.1997 52.2112 37.1397 51.8612C37.8897 51.5812 40.5597 50.4312 43.4397 47.4812C44.4697 46.4312 45.4297 45.3212 46.2897 44.3412C47.8497 42.5512 48.9697 41.2612 49.8297 40.9712C50.4197 40.7712 51.0397 40.6312 51.5197 40.9512C51.9397 41.2312 52.1597 41.7612 52.2497 42.7412C52.3397 43.7412 52.2797 44.6812 52.2297 45.6012C52.1397 46.9912 52.0597 48.3012 52.5497 49.5512C53.3597 51.6112 54.2697 53.6612 55.4697 54.7212C56.7197 55.8312 57.9097 56.8312 57.9097 56.8312L57.3397 57.5212C57.3397 57.5212 56.1397 56.5212 54.8797 55.3912C53.6197 54.2712 52.7097 52.3712 51.7297 49.8812C51.1697 48.4512 51.2497 47.0412 51.3497 45.5512C51.3997 44.6712 51.4597 43.7612 51.3697 42.8312C51.2897 41.9912 51.1297 41.7612 51.0397 41.7012C50.8497 41.5812 50.2997 41.7612 50.1197 41.8212C49.4897 42.0312 48.2697 43.4412 46.9697 44.9312C46.1097 45.9212 45.1297 47.0412 44.0897 48.1112C41.0797 51.1912 38.2597 52.4012 37.4597 52.7012C36.3297 53.1212 33.6597 53.1612 31.5397 53.0512C30.8097 53.0112 29.6497 52.7912 28.7697 52.2712C28.6697 52.2112 28.6197 52.2012 28.6197 52.2012C28.5797 52.3312 28.5797 53.2812 28.5797 53.5912C28.5797 54.2112 29.3997 55.3812 30.2697 56.6212C30.9797 57.6312 31.7897 58.7812 32.4097 59.9812C33.8897 62.8212 33.7897 65.9912 33.7897 66.1212H33.7797Z" fill="#231F20"/>
<path d="M30.2581 65.8282C30.2581 65.7682 29.5181 60.2782 27.7381 57.1382C26.2881 54.5882 25.3881 52.4882 24.5981 50.6382C24.3681 50.1082 24.1481 49.5882 23.9281 49.0882C22.5181 45.9282 22.8881 45.2182 23.3681 44.9582C23.7381 44.7582 23.9981 44.9182 24.1681 45.0282C24.3881 45.1682 24.8481 45.4582 26.3481 45.7082C28.3681 46.0582 28.5981 46.1782 29.7681 47.0182C30.0681 47.2382 30.4481 47.5082 30.9581 47.8482L31.3781 48.1282C33.4281 49.5182 34.5581 50.2782 36.6981 49.4282C39.3381 48.3682 41.9681 46.8082 43.3781 45.4482L43.6181 45.2182C45.1581 43.7482 48.0181 40.9982 49.1781 38.8582C50.4981 36.4082 51.4081 35.0282 52.3881 34.7182C52.7981 34.5882 53.0881 34.7182 53.2481 34.8382C53.7781 35.2482 53.8981 36.1882 53.7781 39.0182C53.6581 42.0082 53.6981 42.4882 55.2381 45.1082L55.7081 45.9082C57.1281 48.3182 58.5881 50.8182 59.2781 51.5082C60.0481 52.2782 61.0381 52.8982 61.0481 52.8982L60.5781 53.6582C60.5781 53.6582 59.4881 52.9782 58.6481 52.1382C57.8681 51.3582 56.4481 48.9282 54.9381 46.3582L54.4681 45.5582C52.7881 42.6982 52.7581 42.0382 52.8881 38.9782C52.9181 38.1982 53.0181 35.8182 52.7081 35.5382C51.9381 35.7882 50.9481 37.4782 49.9781 39.2682C48.7581 41.5282 45.9381 44.2282 44.2481 45.8382L44.0081 46.0682C42.4981 47.5182 39.8281 49.1182 37.0381 50.2282C34.4681 51.2582 32.9681 50.2482 30.8881 48.8382L30.4681 48.5582C29.9481 48.2082 29.5681 47.9282 29.2581 47.7082C28.2181 46.9582 28.1081 46.8782 26.2181 46.5582C24.7581 46.3082 24.1481 46.0082 23.8381 45.8282C23.8581 46.0982 23.9581 46.8682 24.7681 48.6982C24.9881 49.2082 25.2181 49.7182 25.4481 50.2582C26.2281 52.0882 27.1181 54.1682 28.5481 56.6682C30.4181 59.9582 31.1481 65.4582 31.1781 65.6882L30.2881 65.8082L30.2581 65.8282Z" fill="#231F20"/>
<path d="M22.9415 63.5194C22.9415 63.4594 22.5615 57.8094 21.2915 54.9094C20.8215 53.8394 20.3115 52.7294 19.8115 51.6494C18.9015 49.6694 18.0315 47.7994 17.5815 46.4794C16.9115 44.5294 15.2015 36.2494 15.8915 32.5394C16.0215 31.8494 16.1215 31.2294 16.2115 30.6794C16.5915 28.3794 16.8215 26.9894 18.2515 25.4294C18.9615 24.6594 19.5315 24.2094 19.9515 23.8794C20.5515 23.4094 20.7115 23.2694 20.7415 22.8194C20.7615 22.4294 20.7415 21.7994 20.7115 21.1394C20.6315 19.3394 20.6315 18.5694 20.9115 18.2394C21.1715 17.9194 21.5515 17.7894 21.9215 17.8794C22.7215 18.0794 23.3215 19.2294 23.8115 21.4994C24.0515 22.5994 24.2115 23.6394 24.3715 24.6394C24.7515 27.0794 25.1215 29.3794 26.4715 31.8494C28.8015 36.1194 32.2715 40.8194 34.1015 41.1194C37.7115 41.7194 39.1815 41.3294 39.7715 40.8894C41.0015 39.9794 46.5615 35.0794 47.5615 33.7194C47.8215 33.3694 48.2715 32.7094 48.8215 31.8894C51.2215 28.3494 53.4715 25.1094 54.5815 24.4094C55.5315 23.8094 56.3315 23.6494 56.9615 23.9194C57.5215 24.1694 57.8815 24.7294 58.0315 25.5794C58.2615 26.8894 59.6115 32.5894 61.5115 34.5494C63.4215 36.5294 66.2815 39.3394 66.3115 39.3694L65.6815 40.0094C65.6815 40.0094 62.7915 37.1594 60.8615 35.1794C58.7915 33.0394 57.4015 27.1894 57.1415 25.7394C57.0715 25.3594 56.9215 24.8894 56.5915 24.7394C56.2615 24.5994 55.7115 24.7394 55.0515 25.1594C54.0015 25.8194 51.1115 30.0894 49.5515 32.3894C48.9815 33.2194 48.5315 33.8994 48.2715 34.2494C47.1515 35.7594 41.4115 40.7794 40.2915 41.6094C39.2115 42.4094 37.1315 42.5394 33.9415 41.9994C31.3715 41.5694 27.4115 35.4494 25.6715 32.2694C24.2515 29.6594 23.8715 27.2894 23.4815 24.7694C23.3215 23.7794 23.1615 22.7494 22.9315 21.6794C22.3415 18.9294 21.7315 18.7494 21.7015 18.7394C21.6515 18.7294 21.6015 18.7794 21.5915 18.7994C21.5115 19.0194 21.5615 20.3194 21.5915 21.0894C21.6215 21.7694 21.6515 22.4194 21.6215 22.8594C21.5715 23.7294 21.1215 24.0794 20.4915 24.5694C20.0715 24.8894 19.5515 25.2994 18.9015 26.0094C17.6515 27.3694 17.4615 28.5194 17.0815 30.7994C16.9915 31.3594 16.8915 31.9794 16.7515 32.6794C16.1115 36.0894 17.7115 44.1394 18.4015 46.1594C18.8415 47.4294 19.6915 49.2794 20.5915 51.2394C21.0915 52.3294 21.6115 53.4494 22.0815 54.5194C23.4115 57.5594 23.7815 63.1894 23.8015 63.4294L22.9115 63.4894L22.9415 63.5194Z" fill="#231F20"/>
<path d="M25.7484 64.3203L24.8584 64.2703C24.8584 64.2203 25.1484 58.9703 22.9884 54.7503C20.7184 50.3203 19.3484 47.6403 18.6984 45.1403C18.1384 42.9603 16.5584 33.5103 17.2784 31.9003C17.7484 30.8603 18.3284 30.7103 18.7484 30.6003C18.9784 30.5403 19.1384 30.5003 19.2984 30.3303C19.8484 29.7303 20.6584 28.0803 20.9884 26.8803C21.2284 26.0203 21.6484 25.8203 21.9584 25.8203C22.3984 25.8203 22.8284 26.2103 23.0484 26.8603C23.0984 27.0003 23.1884 27.3403 23.3284 27.8203C23.9384 29.9903 25.3684 35.0703 26.5684 37.0003C28.0984 39.4503 29.8984 42.0303 31.6384 42.5403C32.8784 42.9003 36.1884 43.8603 38.0484 43.4103C39.6784 43.0203 42.0684 41.6603 43.7384 40.1903C45.3684 38.7503 48.6684 35.0503 50.0484 32.9603C50.5584 32.1803 51.0684 31.2403 51.5484 30.3303C52.6384 28.3003 53.3384 27.0503 54.1284 26.7203C54.6584 26.5003 55.3484 26.2903 55.9484 26.6103C56.4584 26.8803 56.7884 27.4603 56.9884 28.4203C57.1284 29.1103 57.1684 30.0003 57.2184 30.9503C57.2884 32.5903 57.3784 34.4603 57.9984 35.8303C58.9484 37.9203 61.6284 41.0403 65.4684 43.3103L65.0183 44.0803C61.0083 41.7103 58.1984 38.4203 57.1884 36.2003C56.4984 34.6703 56.4084 32.7203 56.3284 30.9903C56.2884 30.0803 56.2484 29.2203 56.1184 28.6003C55.9784 27.9503 55.7784 27.5303 55.5284 27.4003C55.3184 27.2903 54.9884 27.3303 54.4684 27.5503C53.9384 27.7703 53.0884 29.3603 52.3384 30.7503C51.8384 31.6803 51.3284 32.6403 50.7884 33.4503C49.3484 35.6403 46.0284 39.3503 44.3284 40.8603C42.5384 42.4403 40.0384 43.8503 38.2584 44.2803C36.3984 44.7303 33.6084 44.0503 31.3884 43.4003C29.3684 42.8103 27.5084 40.2103 25.8084 37.4803C24.5384 35.4403 23.0884 30.2803 22.4584 28.0703C22.3284 27.6103 22.2384 27.2803 22.1884 27.1503C22.1184 26.9403 22.0284 26.8103 21.9684 26.7503C21.9584 26.8003 21.8984 26.9103 21.8384 27.1303C21.5084 28.3103 20.6484 30.1703 19.9484 30.9403C19.6084 31.3103 19.2584 31.4003 18.9684 31.4803C18.6084 31.5703 18.3784 31.6303 18.0884 32.2803C17.5684 33.4203 18.8184 42.0603 19.5584 44.9303C20.1784 47.3303 21.5284 49.9803 23.7684 54.3503C26.0484 58.7903 25.7484 64.1103 25.7384 64.3303L25.7484 64.3203Z" fill="#231F20"/>
<path d="M27.259 64.9011C27.259 64.8411 27.059 59.3611 25.429 55.9811C25.029 55.1411 24.649 54.3911 24.289 53.6811C23.139 51.4011 22.149 49.4311 21.089 46.1611C20.789 45.2411 20.489 44.3711 20.209 43.5511C19.069 40.2611 18.309 38.0911 19.359 37.2311C19.979 36.7111 20.529 36.5811 22.339 37.1511C23.359 37.4711 23.969 38.2911 24.759 39.3311C25.559 40.4011 26.559 41.7211 28.399 43.1111C31.959 45.8011 33.499 46.7011 36.679 46.3411C39.909 45.9711 40.949 45.3711 43.119 43.3311C45.309 41.2711 50.629 35.0111 51.419 33.4411L51.539 33.2011C52.539 31.1911 53.449 29.5011 54.359 29.2311C54.609 29.1611 54.859 29.1811 55.069 29.3111C55.799 29.7411 55.939 31.4411 56.139 34.6811C56.219 35.9711 56.299 37.3011 56.459 38.4011C56.899 41.5911 57.129 43.3011 58.899 44.1311C60.839 45.0411 64.499 45.9011 64.539 45.9111L64.339 46.7811C64.189 46.7411 60.549 45.8911 58.519 44.9411C56.309 43.9111 56.019 41.8011 55.589 38.6011C55.419 37.3911 55.339 36.0411 55.259 34.7311C55.149 33.0011 54.989 30.4011 54.619 30.0711C54.099 30.0911 52.779 32.7311 52.349 33.5911L52.229 33.8311C51.399 35.5011 46.029 41.8211 43.739 43.9711C41.439 46.1411 40.249 46.8311 36.789 47.2211C33.299 47.6211 31.569 46.6011 27.869 43.8111C25.929 42.3511 24.889 40.9711 24.049 39.8611C23.339 38.9111 22.819 38.2311 22.079 38.0011C20.439 37.4911 20.229 37.6711 19.929 37.9211C19.369 38.3911 20.229 40.8711 21.059 43.2611C21.349 44.0811 21.649 44.9611 21.949 45.8911C22.989 49.1011 23.969 51.0311 25.099 53.2811C25.459 54.0011 25.839 54.7511 26.249 55.6011C27.959 59.1511 28.159 64.6411 28.169 64.8711L27.279 64.9011H27.259Z" fill="#231F20"/>
<path d="M38.0613 39.32C36.9013 39.32 35.7313 39.12 34.6313 38.9C31.8713 38.33 29.1213 33.75 27.9313 31.13C26.6713 28.36 26.9513 22.85 27.1513 18.83L27.1913 17.97C27.3813 14.11 28.5713 6.58 28.5913 6.5L29.4713 6.64C29.4613 6.72 28.2713 14.2 28.0813 18.01L28.0413 18.87C27.8513 22.58 27.5713 28.18 28.7413 30.76C30.1913 33.96 32.7113 37.59 34.8013 38.02C37.4813 38.57 40.2813 38.92 42.5413 36.68C45.8013 33.45 48.0513 30.95 49.4413 29.06C49.8913 28.44 50.4113 27.62 50.9513 26.76C52.4713 24.36 54.1913 21.63 55.8013 21.13C57.9713 20.45 59.6313 21.37 60.2713 22.51C60.4513 22.83 60.5813 23.27 60.7513 23.83C61.1013 24.99 61.6213 26.74 63.0113 28.76C65.0013 31.66 66.2813 32.73 66.2913 32.74L65.7213 33.43C65.6613 33.39 64.3413 32.29 62.2613 29.27C60.7913 27.13 60.2413 25.3 59.8813 24.09C59.7313 23.59 59.6113 23.19 59.4813 22.95C59.0913 22.26 57.8613 21.43 56.0613 21.99C54.7613 22.4 53.0613 25.08 51.7013 27.24C51.1513 28.12 50.6213 28.94 50.1513 29.59C48.7413 31.53 46.4513 34.05 43.1613 37.32C41.6013 38.86 39.8213 39.33 38.0413 39.33L38.0613 39.32Z" fill="#231F20"/>
<path d="M37.5991 35.3114C33.6691 35.3114 31.4991 32.4714 30.4791 31.1514C29.2391 29.5314 29.5091 25.5014 29.7791 21.6114C29.8491 20.6414 29.9091 19.6814 29.9491 18.7914C30.1391 14.5114 31.5491 6.03141 31.5591 5.94141L32.4391 6.09141C32.4291 6.17141 31.0291 14.6014 30.8391 18.8314C30.7991 19.7314 30.7391 20.6914 30.6691 21.6714C30.4291 25.2214 30.1491 29.2514 31.1891 30.6014C32.3591 32.1314 34.7991 35.3114 39.5591 34.1714C43.9691 33.1014 47.0291 29.7314 49.1991 26.9114L50.3891 25.3614C51.7691 23.5514 53.0691 21.8514 54.4891 20.1614C56.2991 17.9914 58.7491 16.2214 58.8491 16.1514L59.3691 16.8714C59.3691 16.8714 56.9091 18.6514 55.1691 20.7314C53.7691 22.4114 52.4691 24.1114 51.0891 25.9014L49.8991 27.4514C47.6391 30.3914 44.4391 33.9014 39.7591 35.0414C38.9791 35.2314 38.2591 35.3114 37.5891 35.3114H37.5991Z" fill="#231F20"/>
<path d="M37.351 30.6092C35.961 30.6092 34.831 30.2592 34.001 29.5592C32.531 28.3292 32.171 26.2292 32.021 24.3392C31.871 22.5092 32.421 21.0392 33.061 19.3392C33.521 18.0992 34.051 16.6992 34.341 14.9692C35.011 11.0092 34.341 5.86922 34.341 5.81922L35.231 5.69922C35.261 5.91922 35.921 11.0192 35.231 15.1092C34.921 16.9292 34.381 18.3692 33.901 19.6492C33.301 21.2492 32.781 22.6392 32.911 24.2692C33.051 25.9792 33.361 27.8592 34.571 28.8792C35.391 29.5692 36.551 29.8292 38.121 29.6792C42.001 29.3192 45.071 27.7092 47.771 24.6292C48.951 23.2892 49.991 22.0492 50.951 20.8992C51.831 19.8592 52.631 18.8892 53.411 18.0092C55.051 16.1492 57.241 14.5392 57.331 14.4692L57.861 15.1892C57.861 15.1892 55.651 16.8192 54.081 18.5992C53.311 19.4792 52.511 20.4292 51.631 21.4692C50.671 22.6192 49.621 23.8592 48.441 25.2092C45.571 28.4692 42.321 30.1692 38.201 30.5592C37.901 30.5892 37.621 30.5992 37.341 30.5992L37.351 30.6092Z" fill="#231F20"/>
<path d="M44.5718 20.31C44.2018 20.31 43.8018 20.29 43.3718 20.25C40.4918 19.96 38.3518 17.73 37.1718 13.8C36.2218 10.62 36.6318 5.94 36.6518 5.75L37.5418 5.83C37.5418 5.83 37.1218 10.53 38.0218 13.54C38.7618 16.02 40.3118 19.04 43.4618 19.36C46.3018 19.64 47.6618 18.89 49.5518 17.6C51.3118 16.41 55.2418 12.89 55.3818 12.76L55.6918 13.07H55.7018L56.1518 13.09C56.1318 13.61 50.1218 18.3 50.0618 18.34C48.3818 19.48 46.9518 20.31 44.5718 20.31Z" fill="#231F20"/>
<path d="M46.1908 15.3103C46.0808 15.3103 45.9708 15.3103 45.8508 15.3103C42.9708 15.1803 42.2608 14.0803 41.0708 12.2603C39.7408 10.2203 40.0908 6.24031 40.1108 6.07031L41.0008 6.15031C41.0008 6.15031 40.6608 9.99031 41.7708 11.7003C42.9908 13.5603 43.4708 14.3003 45.8908 14.4203C48.0608 14.5203 50.4408 13.5403 53.5908 11.2503L54.1208 11.9703C51.9608 13.5403 49.1308 15.3203 46.1808 15.3203L46.1908 15.3103Z" fill="#231F20"/>
<path d="M24.6418 13.8894C24.5118 13.8894 24.3818 13.8794 24.2518 13.8494C23.8218 13.7594 23.5118 13.3694 23.1818 12.9494C23.0218 12.7394 22.7118 12.3494 22.5818 12.3294C22.4018 12.4294 22.1718 12.5694 21.9318 12.7194C21.3118 13.1094 20.6118 13.5394 19.9618 13.5394C19.7418 13.5394 19.5318 13.4494 19.3718 13.2794C18.8218 12.7094 18.8518 11.1994 18.8718 10.7494L19.7618 10.7894C19.7218 11.6094 19.8418 12.5094 20.0118 12.6594C20.3418 12.6394 20.9618 12.2594 21.4518 11.9494C21.7218 11.7794 21.9718 11.6294 22.2018 11.5194C22.9218 11.1694 23.4718 11.8694 23.8818 12.3894C24.0418 12.5894 24.3118 12.9294 24.4218 12.9594C24.6818 13.0094 24.8918 12.9794 25.0718 12.8494C25.3518 12.6494 25.5518 12.2094 25.6418 11.5794C25.8818 9.96937 25.6418 7.47937 25.6418 7.44937L26.5318 7.35938C26.5418 7.46937 26.7818 9.97937 26.5318 11.6994C26.4018 12.5994 26.0818 13.2294 25.5918 13.5694C25.3118 13.7594 24.9918 13.8594 24.6418 13.8594V13.8894Z" fill="#231F20"/>
<path d="M6.90172 29.9116L6.01172 29.8616C6.11172 28.1416 7.82172 24.0316 7.89172 23.8516L8.72172 24.1916C8.72172 24.1916 6.99172 28.3416 6.91172 29.9016L6.90172 29.9116Z" fill="#231F20"/>
<path d="M49.6202 9.3C46.8202 7.81 45.1802 7.37 45.1602 7.37L45.3802 6.5C45.4502 6.52 47.1302 6.96 50.0302 8.51L49.6102 9.3H49.6202Z" fill="#231F20"/>
</g>
<defs>
<clipPath id="clip0_449_4343">
<rect width="72" height="72" fill="white"/>
</clipPath>
</defs>
</svg>
