<svg width="72" height="72" viewBox="0 0 72 72" fill="none" xmlns="http://www.w3.org/2000/svg">
<g clip-path="url(#clip0_449_4333)">
<path d="M36 72C16.15 72 0 55.85 0 36C0 16.15 16.15 0 36 0C55.85 0 72 16.15 72 36C72 55.85 55.85 72 36 72ZM36 1.12C16.77 1.12 1.12 16.77 1.12 36C1.12 55.23 16.77 70.88 36 70.88C55.23 70.88 70.88 55.23 70.88 36C70.88 16.77 55.23 1.12 36 1.12Z" fill="#231F20"/>
<path d="M38.2298 29.8894H17.0698C14.0498 29.8894 11.5898 27.4394 11.5898 24.4194C11.5898 21.3994 14.0498 18.9394 17.0698 18.9394C17.4798 18.9394 17.8698 18.9794 18.2598 19.0694C18.2398 18.8494 18.2198 18.6294 18.2198 18.4094C18.2198 15.0794 20.9298 12.3594 24.2698 12.3594C26.7298 12.3594 28.9498 13.8694 29.8698 16.1094C30.6298 15.7794 31.4598 15.5994 32.2998 15.5994C35.4498 15.5994 38.0398 18.0194 38.3198 21.0994C40.6998 21.1494 42.6198 23.0994 42.6198 25.4894C42.6198 27.8794 40.6498 29.8794 38.2298 29.8794V29.8894ZM17.0698 20.0594C14.6698 20.0594 12.7098 22.0194 12.7098 24.4194C12.7098 26.8194 14.6698 28.7694 17.0698 28.7694H38.2298C40.0398 28.7694 41.4998 27.2994 41.4998 25.4994C41.4998 23.6994 40.0298 22.2194 38.2298 22.2194C38.1098 22.2194 37.9998 22.2194 37.8798 22.2494L37.2398 22.3494V21.6994C37.2398 18.9394 35.0298 16.7294 32.3098 16.7294C31.4398 16.7294 30.5798 16.9594 29.8398 17.3894L29.2198 17.7494L29.0198 17.0594C28.4098 14.9494 26.4598 13.4894 24.2698 13.4894C21.5498 13.4894 19.3398 15.6994 19.3398 18.4194C19.3398 18.8994 19.3998 19.3394 19.5298 19.7394L19.8898 20.8994L18.7698 20.4194C18.2398 20.1894 17.6698 20.0794 17.0698 20.0794V20.0594Z" fill="#231F20"/>
<path d="M27.1117 41.1303C26.1217 41.1303 25.2117 40.6303 24.6917 39.7903C24.1717 38.9503 24.1117 37.9203 24.5517 37.0303L26.7117 32.6103L27.4717 32.5703L27.6817 32.9203L29.6817 37.0303C30.1117 37.9203 30.0617 38.9503 29.5417 39.7903C29.0117 40.6303 28.1117 41.1303 27.1217 41.1303H27.1117ZM27.1117 34.3203L25.5517 37.5203C25.2917 38.0603 25.3217 38.6903 25.6417 39.2003C25.9617 39.7103 26.5117 40.0203 27.1117 40.0203C27.7117 40.0203 28.2617 39.7103 28.5817 39.2003C28.9017 38.6903 28.9317 38.0603 28.6717 37.5203L27.1117 34.3203Z" fill="#231F20"/>
<path d="M35.2013 38.6483C34.4413 38.6483 33.7513 38.2583 33.3513 37.6083C32.9613 36.9583 32.9313 36.1683 33.2913 35.4883L34.5813 33.0283C34.8213 32.5583 35.5813 32.5583 35.8313 33.0283L37.1213 35.4883C37.4713 36.1683 37.4513 36.9583 37.0513 37.6083C36.6613 38.2583 35.9713 38.6483 35.2013 38.6483ZM35.2013 34.2483L34.2813 36.0083C34.1113 36.3383 34.1213 36.7183 34.3113 37.0283C34.6913 37.6583 35.7113 37.6583 36.0913 37.0283C36.2813 36.7183 36.2913 36.3283 36.1213 36.0083L35.2013 34.2483Z" fill="#231F20"/>
<path d="M19.2106 38.6483C18.4506 38.6483 17.7606 38.2583 17.3606 37.6083C16.9706 36.9583 16.9406 36.1683 17.2906 35.4883L18.6106 32.9783C18.8406 32.5383 19.5706 32.5283 19.8006 32.9783L21.1206 35.4883C21.4706 36.1683 21.4506 36.9583 21.0506 37.6083C20.6606 38.2583 19.9706 38.6483 19.2006 38.6483H19.2106ZM19.2106 34.2483L18.2906 36.0083C18.1206 36.3383 18.1306 36.7183 18.3206 37.0283C18.7006 37.6583 19.7206 37.6583 20.1006 37.0283C20.2906 36.7183 20.3006 36.3283 20.1306 36.0083L19.2106 34.2483Z" fill="#231F20"/>
<path d="M44.7611 33.4883C42.3711 33.4883 40.4211 35.4383 40.4211 37.8283H41.5411C41.5411 36.0483 42.9811 34.6083 44.7611 34.6083C46.5411 34.6083 47.9811 36.0583 47.9811 37.8283C47.9811 39.5983 46.5311 41.0483 44.7611 41.0483H32.3711V42.1683H44.7611C47.1511 42.1683 49.1011 40.2183 49.1011 37.8283C49.1011 35.4383 47.1511 33.4883 44.7611 33.4883Z" fill="#231F20"/>
<path d="M58.1806 35.8616C56.4306 35.8616 55.0306 36.4116 54.0306 37.4916C52.4506 39.1916 52.2906 41.7316 52.4306 43.5616L53.5406 43.4716C53.3706 41.1916 53.8306 39.3416 54.8506 38.2416C55.6306 37.4016 56.7506 36.9716 58.1806 36.9716C60.7306 36.9716 62.8106 39.0516 62.8106 41.6016C62.8106 44.1516 60.7306 46.2316 58.1806 46.2316V47.3516C61.3506 47.3516 63.9306 44.7716 63.9306 41.6016C63.9306 38.4316 61.3506 35.8516 58.1806 35.8516V35.8616Z" fill="#231F20"/>
<path d="M58.1809 46.2383H28.7109V47.3583H58.1809V46.2383Z" fill="#231F20"/>
<path d="M49.8308 51.4297H34.5508V52.5497H49.8308C50.8708 52.5497 51.7208 53.3997 51.7208 54.4397C51.7208 55.4797 50.8708 56.3297 49.8308 56.3297C48.7908 56.3297 47.9408 55.4797 47.9408 54.4397H46.8208C46.8208 56.0997 48.1708 57.4497 49.8308 57.4497C51.4908 57.4497 52.8408 56.0997 52.8408 54.4397C52.8408 52.7797 51.4908 51.4297 49.8308 51.4297Z" fill="#231F20"/>
</g>
<defs>
<clipPath id="clip0_449_4333">
<rect width="72" height="72" fill="white"/>
</clipPath>
</defs>
</svg>
