<svg width="48" height="48" viewBox="0 0 48 48" fill="none" xmlns="http://www.w3.org/2000/svg">
<g clip-path="url(#clip0_1084_6779)">
<circle cx="24" cy="24" r="23" stroke="#191919" stroke-width="2"/>
<path d="M30.3703 43.5759C30.5384 43.4918 30.7289 43.4024 30.9311 43.3077C32.3253 42.6543 34.2334 41.7582 34.557 40.0352C34.8933 38.2399 34.5751 36.0231 33.7641 34.5182C33.5864 34.1873 33.4172 33.8244 33.2395 33.4402C32.6818 32.2376 32.0486 30.8733 30.7194 29.544C30.2479 29.0726 29.8435 28.5979 29.4508 28.1382C28.4483 26.9633 27.4117 25.749 25.229 24.5017C21.9757 22.6425 19.5758 21.6783 16.9461 21.1718C14.0833 20.6215 12.3327 20.7471 10.1031 21.1718C7.73522 21.623 6.39961 22.1083 4.14877 23.3364C3.42935 23.7291 2.68758 24.2335 2.00009 24.7476C2.03308 25.1637 2.07672 25.5787 2.12993 25.9916C2.91852 25.3723 3.81354 24.7316 4.65854 24.2708C6.82211 23.0906 8.03533 22.6489 10.3032 22.2179C12.4029 21.8177 14.0514 21.6996 16.746 22.2179C19.2523 22.7 21.5574 23.6291 24.7022 25.4265C26.7243 26.5823 27.6555 27.6742 28.642 28.8299C29.0475 29.3046 29.4668 29.7963 29.967 30.2965C31.1631 31.4926 31.7527 32.7655 32.2742 33.8882C32.4594 34.2873 32.6339 34.664 32.8276 35.0238C33.5204 36.3104 33.8014 38.2909 33.5108 39.8405C33.2884 41.0281 31.6644 41.7901 30.4788 42.3456C30.2703 42.4436 30.0734 42.5361 29.8935 42.6255C28.7484 43.1981 24.5532 44.241 19.9632 44.6284C17.8975 44.8029 16.0894 44.8551 14.6793 44.8487C15.321 45.2223 15.9809 45.5671 16.6566 45.8853C17.7145 45.8523 18.8628 45.7906 20.0526 45.6895C24.4383 45.3191 28.9283 44.2985 30.3692 43.578L30.3703 43.5759Z" fill="black"/>
<path d="M23.7006 37.3084C27.0008 37.3084 28.5067 37.3084 28.9558 35.7845C29.3325 34.5074 28.8802 33.1398 27.7457 32.1256C27.6521 32.0416 27.5446 31.9437 27.4233 31.834C26.2537 30.7709 23.8209 28.5573 21.3614 27.6782C20.8229 27.4856 20.3281 27.2898 19.8481 27.1003C18.0421 26.3873 16.4819 25.7711 14.4716 26.1511C11.927 26.6321 9.09087 27.3888 7.34873 29.3512C5.80772 31.0869 5.2639 32.3576 5.2639 32.9983C5.2639 33.0217 5.2639 33.0451 5.26603 33.0664C5.27561 33.2122 5.30115 33.6007 6.57822 34.7468L6.63356 34.7968L6.70061 34.8298C6.88047 34.9182 11.1693 36.9881 15.754 37.3074C18.6625 37.5106 19.6704 37.4564 20.9464 37.3882C21.6466 37.351 22.4416 37.3084 23.6995 37.3084L23.7006 37.3084ZM15.8296 36.2453C11.7546 35.9611 7.78932 34.1636 7.23379 33.904C6.83364 33.5389 6.44307 33.1228 6.33239 32.9472C6.3707 32.6397 6.74531 31.6361 8.14584 30.0578C9.67513 28.3359 12.3016 27.6452 14.6706 27.1972C16.3787 26.8737 17.6707 27.3845 19.4586 28.0901C19.946 28.2827 20.4494 28.4807 21.0038 28.6797C23.2621 29.4874 25.5896 31.6042 26.7081 32.6216C26.8316 32.7344 26.9422 32.8344 27.038 32.9195C27.6829 33.4953 28.0246 34.186 28.0246 34.8799C28.0246 35.0821 27.9958 35.2843 27.9362 35.4833C27.7436 36.1378 27.1498 36.2442 23.7017 36.2442C22.415 36.2442 21.6051 36.2878 20.891 36.3251C19.6512 36.3911 18.6732 36.4432 15.8296 36.2453Z" fill="black"/>
<path d="M30.3444 46.5609C34.5247 44.9081 37.6259 42.6381 38.5273 41.2504C39.8363 39.2358 40.9196 35.9037 39.6649 33.1399C39.4212 32.6035 39.1935 32.0416 38.9721 31.4967C38.0271 29.1703 37.0501 26.7641 34.4587 24.9709C33.9138 24.5941 33.3647 24.2046 32.7826 23.7917C30.0762 21.8729 27.2784 19.8892 24.8136 19.0899C24.4656 18.9771 24.1229 18.8643 23.7834 18.7526C21.2751 17.9289 18.9061 17.1498 16.2232 16.8678C15.376 16.7784 14.6087 16.6731 13.8659 16.5709C11.9875 16.3123 10.0442 16.0452 6.59189 16.0015C5.18285 15.9835 3.86534 16.1261 2.70001 16.3389C2.60423 16.7167 2.51696 17.0977 2.43927 17.4798C3.65569 17.2275 5.06685 17.0466 6.57912 17.0658C9.9655 17.1083 11.8747 17.3712 13.7212 17.6256C14.4714 17.7288 15.2473 17.8363 16.1114 17.9267C18.6815 18.197 20.9984 18.958 23.4503 19.7647C23.792 19.8764 24.1357 19.9903 24.4848 20.1031C26.7941 20.8523 29.525 22.7881 32.1664 24.6612C32.7506 25.0752 33.3019 25.4668 33.8521 25.8467C36.1828 27.459 37.0576 29.6152 37.9845 31.8969C38.2091 32.4513 38.4421 33.0239 38.6943 33.5794C39.2041 34.7011 39.2946 36.0176 38.9636 37.4915C38.6145 39.0485 37.9164 40.233 37.6322 40.6693C36.7181 42.0751 33.3434 44.2281 29.9506 45.5701C27.9914 46.3448 25.5235 47.3069 23.677 48.0231C24.4411 48.1391 25.2127 48.2189 25.9906 48.2658C27.4401 47.7017 29.0088 47.0877 30.3412 46.5598L30.3444 46.5609Z" fill="black"/>
<path d="M17.2847 10.3986C17.6358 10.2812 17.9993 10.1605 18.7789 10.2562C19.7487 10.3747 20.3656 10.5933 21.219 10.8956C22.0421 11.187 23.0661 11.5502 24.7817 11.9558C27.3169 12.556 27.7702 12.7627 29.2716 13.451C29.8058 13.6957 30.4707 14.0001 31.4032 14.4014C34.0006 15.5193 34.9171 16.2641 36.3038 17.3907C36.7678 17.768 37.2931 18.1943 37.9438 18.6847C39.8719 20.1365 40.4639 20.9324 41.7599 22.6767C42.1377 23.1856 42.5661 23.7619 43.1022 24.4535C44.2666 25.9563 45.1493 27.6755 45.7351 29C45.8373 28.4606 45.9253 27.9169 46 27.3689C45.424 26.2075 44.6737 24.9015 43.7475 23.7054C43.2186 23.0225 42.7928 22.4494 42.4177 21.9448C41.1039 20.1778 40.4452 19.2904 38.4096 17.7583C37.7714 17.2776 37.2531 16.8568 36.7953 16.4849C35.4051 15.3551 34.4006 14.5384 31.6983 13.3749C30.7739 12.9769 30.1143 12.6746 29.5836 12.4321C28.0698 11.7383 27.5596 11.5056 24.9515 10.8879C23.2759 10.491 22.2732 10.1365 21.4679 9.85055C20.603 9.5439 19.9194 9.30249 18.8687 9.17309C17.9256 9.05782 17.4411 9.21876 17.0527 9.34925C16.6189 9.49388 16.3051 9.59827 15.2873 9.19701C13.9993 8.68919 10.7485 7.08307 8.59112 6C8.38845 6.28816 8.19112 6.58068 8 6.87972C10.1565 7.96388 13.6312 9.68635 15.0153 10.2322C16.2846 10.7335 16.7718 10.5704 17.2873 10.3986L17.2847 10.3986Z" fill="black"/>
<path d="M23.6433 6.27213C25.1055 6.42218 26.6178 6.57756 28.8282 6.9394C31.1727 7.32252 32.5328 7.67691 34.1079 8.08557C35.369 8.41336 36.7982 8.78477 38.9416 9.21366C40.4304 9.51164 41.5223 9.62658 42.3418 9.64148C41.9385 9.24133 41.5234 8.85608 41.0977 8.48572C40.5486 8.42187 39.9068 8.32183 39.1502 8.17071C37.0366 7.74821 35.684 7.39595 34.375 7.05646C32.8414 6.65738 31.3919 6.28171 28.9996 5.89007C26.7583 5.52291 25.2301 5.36647 23.7519 5.21428C22.3535 5.07061 21.0317 4.93546 19.1821 4.63322C17.8858 4.42143 16.3416 4.20007 14.8645 4C14.6772 4.07449 14.4909 4.15006 14.3058 4.22881C13.8641 4.41611 13.4288 4.61619 12.9999 4.82584C14.9134 5.07487 17.2058 5.38988 19.0107 5.68467C20.8923 5.99224 22.2289 6.12846 23.6433 6.27426L23.6433 6.27213Z" fill="black"/>
</g>
<defs>
<clipPath id="clip0_1084_6779">
<rect width="48" height="48" fill="white"/>
</clipPath>
</defs>
</svg>
