<svg width="1920" height="1080" viewBox="0 0 1920 1080" fill="none" xmlns="http://www.w3.org/2000/svg">
<path d="M837.157 339.172C821.35 343.728 803.879 354.187 797.12 358.847C796.08 360.228 794 364.646 794 371.274C794 379.558 800.76 385.771 806.999 391.467C813.239 397.162 817.398 391.467 829.358 391.467C841.317 391.467 851.196 395.091 855.876 397.162C859.62 398.819 857.436 404.411 855.876 407H877.715C893.314 407 914.112 397.162 931.271 391.467C948.43 385.771 961.429 365.06 967.149 354.187C972.868 343.314 964.029 332.958 958.309 328.299C952.59 323.639 936.471 320.532 919.832 320.014C903.193 319.496 856.916 333.476 837.157 339.172Z" fill="#F1C2A0" fill-opacity="0.3"/>
</svg>
