<svg width="1920" height="1080" viewBox="0 0 1920 1080" fill="none" xmlns="http://www.w3.org/2000/svg">
<path d="M1012.73 356.089H974.169C972.113 354.843 968 352.885 968 355.021V368.372C976.055 369.619 994.734 372.218 1005.02 372.645C1017.87 373.179 1083.68 368.372 1094.99 368.372H1225.58C1237.4 368.372 1282.64 377.985 1290.87 376.917C1297.45 376.063 1321.03 370.865 1332 368.372V339L1310.92 342.738C1305.27 343.806 1290.56 346.37 1276.99 348.079C1260.02 350.215 1200.38 356.089 1187.53 356.089C1174.68 356.089 1115.04 352.351 1100.13 352.351C1085.22 352.351 1038.44 356.089 1012.73 356.089Z" fill="#F1C2A0" fill-opacity="0.3"/>
</svg>
