<svg width="96" height="130" viewBox="0 0 96 130" fill="none" xmlns="http://www.w3.org/2000/svg">
<path d="M91.0562 61.5245C90.5953 63.7999 85.6691 67.5563 85.6691 67.5563C94.5765 71.1514 95.6251 71.677 95.0778 82.0564C95.072 82.1818 95.0663 82.3191 95.0547 82.4446C95.8959 86.6966 95.3889 91.8983 94.9107 96.658C94.8358 97.3806 94.7782 98.0554 94.7148 98.7482C94.7321 99.5783 94.7436 100.414 94.7724 101.298C94.8819 104.87 95.2276 107.933 95.533 110.639C95.9939 114.717 96.328 117.668 95.458 119.125C94.8358 120.164 93.3839 120.749 91.0908 120.94C90.6932 121.394 90.2784 121.818 89.8059 122.153C89.4141 122.768 89.0281 123.383 88.5729 123.95C88.4634 124.082 88.3425 124.189 88.233 124.32C84.511 128.674 79.3082 130.448 72.7515 129.558C71.0979 129.331 67.18 128.829 62.0234 128.172C58.2899 127.695 53.8246 127.121 49.0713 126.506C34.3504 128.202 19.5891 129.373 12.4159 126.482C11.0447 125.927 9.86352 125.413 8.82643 124.912C8.54411 124.894 8.28484 124.87 8.04861 124.852C4.67231 124.559 2.68455 123.556 1.60136 121.591C0.846594 120.224 0.633414 118.563 0.696792 116.628C-0.547715 113.863 0.178248 110.238 1.10587 105.664C1.13468 105.526 1.16348 105.383 1.19229 105.246C0.86388 104.684 0.483613 104.129 0.189771 103.562C0.443282 101.609 0.696794 99.6559 0.950304 97.7031C2.47713 94.9261 3.44508 92.161 0.840835 89.4378C0.996398 86.7384 1.1462 84.0331 1.30176 81.3337C1.51494 81.0113 1.72812 80.6888 1.93554 80.3663C1.43428 75.9111 1.11163 72.3757 2.59237 69.8913C3.20886 68.8582 1.39971 66.4445 2.59237 65.9428C-0.714795 65.5726 2.53475 63.3281 1.5668 61.5723C0.81203 60.2047 0.59885 58.5445 0.662227 56.6095C-0.582279 53.8445 0.143684 50.8166 1.0713 46.2421C1.58985 43.6741 2.1833 40.7657 2.58085 37.4094C2.58085 37.4094 2.88045 33.8979 2.70184 30.5117C2.52323 27.1256 2.26396 24.1515 1.97012 21.5298C1.43429 16.8 1.01369 13.0615 2.5578 10.4696C3.17429 9.43645 4.06735 8.7019 5.26 8.20024C6.57365 5.26201 9.31618 3.9362 15.3832 2.35362C17.2269 1.87586 19.52 1.70864 22.1473 1.78628C25.0339 1.87586 28.3237 2.25807 31.8729 2.84333C32.1206 2.71791 32.3684 2.60445 32.6277 2.50292C34.2352 1.88183 36.4246 0.848667 37.6287 1.49364C41.6734 3.64955 44.7904 1.79821 48.0803 0.000629814C51.785 0.269383 55.4955 0.538137 59.2002 0.800908C62.4383 5.23215 66.3792 4.28259 70.4296 2.49695C73.1376 2.47307 75.8398 2.45515 78.5477 2.43127C79.9881 3.5122 85.2254 4.13927 86.8272 4.5812C91.2463 5.79949 90.2611 8.06886 90.9467 10.0814C95.5906 12.3807 95.4926 14.2678 95.049 22.6347C95.0432 22.7601 95.0375 22.8974 95.0259 23.0228C95.8671 27.2749 95.3601 32.4766 94.8819 37.2363C94.807 37.9589 94.7494 38.6337 94.686 39.3265C94.7033 40.1566 94.7206 40.9927 94.7436 41.8765C94.8531 45.4478 95.1988 48.5115 95.5041 51.2168C95.9651 55.2957 96.2993 58.2459 95.4293 59.703C94.807 60.7422 93.3551 61.3274 91.0619 61.5185L91.0562 61.5245ZM13.5337 112.794C14.5477 114.496 15.8037 115.858 17.2845 116.891C21.6287 117.584 27.229 118.414 33.1347 119.274C33.8318 119.274 34.5578 119.28 35.3183 119.286C42.5895 119.328 52.9143 119.388 62.3633 119.388C69.3291 118.51 75.1253 117.96 78.5189 118.408C79.049 118.48 79.5272 118.486 79.9939 118.462C80.8063 117.709 81.538 116.837 82.189 115.84L85.6979 115.494C85.4905 115.016 85.283 111.684 85.0756 111.206C84.6205 110.376 84.7818 109.384 85.7209 109.128C85.7209 109.128 86.9136 108.757 87.4091 105.365C87.4091 105.365 87.6568 104.051 86.6716 102.738C86.6197 101.322 88.2676 94.9261 88.2503 93.4749C88.2445 92.8 88.2964 91.7848 88.5556 91.0502L86.0724 88.8705C86.0839 88.4942 86.1012 88.124 86.1127 87.7477C85.9226 84.475 87.0691 81.4353 85.6518 78.2522C84.7127 77.6251 83.4278 75.6364 81.9586 75.6364C78.8012 75.5887 72.8034 74.2868 66.0796 72.5489C64.8236 72.537 63.5675 72.519 62.3115 72.5071C58.7335 71.3425 55.2362 70.7155 52.2344 73.5402C48.9157 73.6955 45.597 73.8508 42.2784 74.0001C39.386 72.8355 36.6493 71.6292 32.9791 72.9968C31.8844 73.4029 29.96 72.728 28.5369 72.3279C27.2233 71.9517 25.1548 71.0141 23.9276 70.4706C23.7433 70.2497 23.5589 70.0347 23.3745 69.8137C22.8617 69.8018 22.3489 69.7838 21.8246 69.7659C21.139 69.742 18.6673 70.7095 17.4055 70.7991C14.9222 70.9663 13.1707 71.7247 12.0011 73.3671C9.80591 76.4546 10.4685 81.7757 10.5376 87.5447C10.5664 90.0768 10.5952 92.4656 10.4454 94.5498C10.1286 98.9034 10.1113 107.061 13.5221 112.788L13.5337 112.794ZM57.8981 17.2777C55.5416 16.6865 53.1332 14.9009 50.7191 14.3096C50.408 14.2619 50.0969 14.2201 49.7858 14.1782C44.8653 14.1544 39.6107 14.1364 34.5981 14.1305C28.7789 14.7754 24.2964 13.7662 20.8279 13.6587C20.1365 13.6408 19.5085 13.593 18.9438 13.5273C16.4663 13.2287 14.6975 13.802 13.5279 15.2652C13.1073 15.7907 12.7501 16.5312 12.4505 17.4151C12.3065 19.7143 12.6406 22.1449 12.9921 24.4262C11.4422 25.6386 12.1278 27.3406 13.0843 29.5562C13.2514 29.9743 11.6554 36.0299 11.8282 36.4539L10.8891 37.5169C10.8833 37.6304 10.8776 37.7439 10.8718 37.8574C10.5607 41.7332 8.68816 48.6966 12.1106 53.8027C12.7386 54.7343 14.1041 55.3912 15.4062 55.9705C16.282 55.5166 17.1059 54.8717 17.7915 54.5193L26.3302 56.4662C26.6586 57.8278 27.7821 58.5803 28.6233 59.0999C30.2596 59.3985 31.9363 59.6792 33.6244 59.9001C34.1718 59.9001 34.7422 59.9061 35.3241 59.9121C36.0385 59.6194 36.753 59.3387 37.4732 59.2133C39.749 58.7893 42.0249 58.3653 44.3007 57.9353C45.0785 57.577 45.8563 57.2127 46.6342 56.8544C47.0202 56.4304 47.4004 56.0123 47.7865 55.5883C49.1693 55.5764 50.5809 55.7914 51.9175 55.4808C52.874 55.2598 53.7267 54.3222 54.6255 53.7071C55.7778 53.8266 56.9244 53.946 58.0767 54.0654C58.7393 54.4118 59.4019 55.0628 60.0702 55.0389C61.8045 54.9792 63.5445 54.6149 65.2845 54.376C66.1487 54.6447 67.4048 54.6746 68.269 54.9374C68.9489 55.3136 72.2388 57.5949 72.9129 57.9712C74.6644 58.7535 76.4044 58.9506 78.1329 57.6188L82.8459 55.7794C83.3932 55.4868 83.9406 55.1882 84.4879 54.8956C86.8041 50.094 85.502 44.128 85.3349 40.6463C85.2485 38.789 85.3464 36.6629 85.4501 34.4055C85.4905 33.5694 86.1012 32.7154 86.13 31.8614C85.9399 28.9411 85.9053 25.1071 84.4879 22.2763C83.5488 21.715 82.3907 21.3984 80.9157 21.3984C76.4217 21.3327 67.8196 19.78 57.9039 17.2837L57.8981 17.2777ZM83.906 13.2824C80.4721 12.5718 76.969 11.8551 73.4602 11.1445C73.0108 11.0907 72.5557 11.037 72.1062 10.9772C68.3036 10.9235 64.3626 10.8638 60.4102 10.816L73.731 14.8829C80.403 15.1397 82.9035 14.3694 86.3374 13.7841C85.5308 13.6169 84.7242 13.4497 83.906 13.2824Z" fill="#C9BB94"/>
</svg>
