<svg width="1920" height="1080" viewBox="0 0 1920 1080" fill="none" xmlns="http://www.w3.org/2000/svg">
<path d="M1429.65 522.393H1435.62V523.447H1430.81V526.061H1435.04V527.086H1430.81V531H1429.65V522.393ZM1436.76 522.393H1437.81V531H1436.76V522.393ZM1441.89 530.32C1442.59 530.32 1443.07 530.057 1443.33 529.529C1443.59 528.998 1443.72 528.408 1443.72 527.76C1443.72 527.174 1443.63 526.697 1443.44 526.33C1443.14 525.752 1442.63 525.463 1441.9 525.463C1441.26 525.463 1440.79 525.709 1440.5 526.201C1440.21 526.693 1440.06 527.287 1440.06 527.982C1440.06 528.65 1440.21 529.207 1440.5 529.652C1440.79 530.098 1441.26 530.32 1441.89 530.32ZM1441.93 524.543C1442.74 524.543 1443.43 524.812 1443.98 525.352C1444.54 525.891 1444.82 526.684 1444.82 527.73C1444.82 528.742 1444.58 529.578 1444.08 530.238C1443.59 530.898 1442.83 531.229 1441.79 531.229C1440.93 531.229 1440.24 530.938 1439.74 530.355C1439.23 529.77 1438.97 528.984 1438.97 528C1438.97 526.945 1439.24 526.105 1439.78 525.48C1440.31 524.855 1441.03 524.543 1441.93 524.543ZM1448.57 530.32C1449.27 530.32 1449.75 530.057 1450.01 529.529C1450.27 528.998 1450.4 528.408 1450.4 527.76C1450.4 527.174 1450.31 526.697 1450.12 526.33C1449.82 525.752 1449.31 525.463 1448.58 525.463C1447.94 525.463 1447.47 525.709 1447.18 526.201C1446.88 526.693 1446.74 527.287 1446.74 527.982C1446.74 528.65 1446.88 529.207 1447.18 529.652C1447.47 530.098 1447.94 530.32 1448.57 530.32ZM1448.61 524.543C1449.42 524.543 1450.11 524.812 1450.66 525.352C1451.22 525.891 1451.5 526.684 1451.5 527.73C1451.5 528.742 1451.26 529.578 1450.76 530.238C1450.27 530.898 1449.51 531.229 1448.47 531.229C1447.61 531.229 1446.92 530.938 1446.42 530.355C1445.91 529.77 1445.65 528.984 1445.65 528C1445.65 526.945 1445.92 526.105 1446.46 525.48C1446.99 524.855 1447.71 524.543 1448.61 524.543ZM1452.79 524.725H1453.79V525.809C1453.88 525.598 1454.08 525.342 1454.4 525.041C1454.72 524.736 1455.09 524.584 1455.5 524.584C1455.52 524.584 1455.56 524.586 1455.6 524.59C1455.65 524.594 1455.73 524.602 1455.84 524.613V525.727C1455.78 525.715 1455.72 525.707 1455.67 525.703C1455.62 525.699 1455.56 525.697 1455.5 525.697C1454.97 525.697 1454.56 525.869 1454.27 526.213C1453.99 526.553 1453.85 526.945 1453.85 527.391V531H1452.79V524.725ZM1459.82 527.115H1462.76V528.199H1459.82V527.115ZM1464.47 525.059V524.25C1465.23 524.176 1465.76 524.053 1466.06 523.881C1466.36 523.705 1466.59 523.293 1466.74 522.645H1467.57V531H1466.44V525.059H1464.47Z" fill="white"/>
<path d="M339.119 540.336C339.666 540.336 340.098 540.227 340.414 540.008C340.734 539.789 340.895 539.395 340.895 538.824C340.895 538.211 340.672 537.793 340.227 537.57C339.988 537.453 339.67 537.395 339.271 537.395H336.424V540.336H339.119ZM335.258 536.393H339.242C339.898 536.393 340.439 536.488 340.865 536.68C341.674 537.047 342.078 537.725 342.078 538.713C342.078 539.229 341.971 539.65 341.756 539.979C341.545 540.307 341.248 540.57 340.865 540.77C341.201 540.906 341.453 541.086 341.621 541.309C341.793 541.531 341.889 541.893 341.908 542.393L341.949 543.547C341.961 543.875 341.988 544.119 342.031 544.279C342.102 544.553 342.227 544.729 342.406 544.807V545H340.977C340.938 544.926 340.906 544.83 340.883 544.713C340.859 544.596 340.84 544.369 340.824 544.033L340.754 542.598C340.727 542.035 340.518 541.658 340.127 541.467C339.904 541.361 339.555 541.309 339.078 541.309H336.424V545H335.258V536.393ZM346.262 538.584C346.707 538.584 347.139 538.689 347.557 538.9C347.975 539.107 348.293 539.377 348.512 539.709C348.723 540.025 348.863 540.395 348.934 540.816C348.996 541.105 349.027 541.566 349.027 542.199H344.428C344.447 542.836 344.598 543.348 344.879 543.734C345.16 544.117 345.596 544.309 346.186 544.309C346.736 544.309 347.176 544.127 347.504 543.764C347.691 543.553 347.824 543.309 347.902 543.031H348.939C348.912 543.262 348.82 543.52 348.664 543.805C348.512 544.086 348.34 544.316 348.148 544.496C347.828 544.809 347.432 545.02 346.959 545.129C346.705 545.191 346.418 545.223 346.098 545.223C345.316 545.223 344.654 544.939 344.111 544.373C343.568 543.803 343.297 543.006 343.297 541.982C343.297 540.975 343.57 540.156 344.117 539.527C344.664 538.898 345.379 538.584 346.262 538.584ZM347.943 541.361C347.9 540.904 347.801 540.539 347.645 540.266C347.355 539.758 346.873 539.504 346.197 539.504C345.713 539.504 345.307 539.68 344.979 540.031C344.65 540.379 344.477 540.822 344.457 541.361H347.943ZM350.955 543.031C350.986 543.383 351.074 543.652 351.219 543.84C351.484 544.18 351.945 544.35 352.602 544.35C352.992 544.35 353.336 544.266 353.633 544.098C353.93 543.926 354.078 543.662 354.078 543.307C354.078 543.037 353.959 542.832 353.721 542.691C353.568 542.605 353.268 542.506 352.818 542.393L351.98 542.182C351.445 542.049 351.051 541.9 350.797 541.736C350.344 541.451 350.117 541.057 350.117 540.553C350.117 539.959 350.33 539.479 350.756 539.111C351.186 538.744 351.762 538.561 352.484 538.561C353.43 538.561 354.111 538.838 354.529 539.393C354.791 539.744 354.918 540.123 354.91 540.529H353.914C353.895 540.291 353.811 540.074 353.662 539.879C353.42 539.602 353 539.463 352.402 539.463C352.004 539.463 351.701 539.539 351.494 539.691C351.291 539.844 351.189 540.045 351.189 540.295C351.189 540.568 351.324 540.787 351.594 540.951C351.75 541.049 351.98 541.135 352.285 541.209L352.982 541.379C353.74 541.562 354.248 541.74 354.506 541.912C354.916 542.182 355.121 542.605 355.121 543.184C355.121 543.742 354.908 544.225 354.482 544.631C354.061 545.037 353.416 545.24 352.549 545.24C351.615 545.24 350.953 545.029 350.562 544.607C350.176 544.182 349.969 543.656 349.941 543.031H350.955ZM356.539 536.973H357.605V538.725H358.607V539.586H357.605V543.682C357.605 543.9 357.68 544.047 357.828 544.121C357.91 544.164 358.047 544.186 358.238 544.186C358.289 544.186 358.344 544.186 358.402 544.186C358.461 544.182 358.529 544.176 358.607 544.168V545C358.486 545.035 358.359 545.061 358.227 545.076C358.098 545.092 357.957 545.1 357.805 545.1C357.312 545.1 356.979 544.975 356.803 544.725C356.627 544.471 356.539 544.143 356.539 543.74V539.586H355.689V538.725H356.539V536.973ZM360.477 543.33C360.477 543.635 360.588 543.875 360.811 544.051C361.033 544.227 361.297 544.314 361.602 544.314C361.973 544.314 362.332 544.229 362.68 544.057C363.266 543.771 363.559 543.305 363.559 542.656V541.807C363.43 541.889 363.264 541.957 363.061 542.012C362.857 542.066 362.658 542.105 362.463 542.129L361.824 542.211C361.441 542.262 361.154 542.342 360.963 542.451C360.639 542.635 360.477 542.928 360.477 543.33ZM363.031 541.197C363.273 541.166 363.436 541.064 363.518 540.893C363.564 540.799 363.588 540.664 363.588 540.488C363.588 540.129 363.459 539.869 363.201 539.709C362.947 539.545 362.582 539.463 362.105 539.463C361.555 539.463 361.164 539.611 360.934 539.908C360.805 540.072 360.721 540.316 360.682 540.641H359.697C359.717 539.867 359.967 539.33 360.447 539.029C360.932 538.725 361.492 538.572 362.129 538.572C362.867 538.572 363.467 538.713 363.928 538.994C364.385 539.275 364.613 539.713 364.613 540.307V543.922C364.613 544.031 364.635 544.119 364.678 544.186C364.725 544.252 364.82 544.285 364.965 544.285C365.012 544.285 365.064 544.283 365.123 544.279C365.182 544.271 365.244 544.262 365.311 544.25V545.029C365.146 545.076 365.021 545.105 364.936 545.117C364.85 545.129 364.732 545.135 364.584 545.135C364.221 545.135 363.957 545.006 363.793 544.748C363.707 544.611 363.646 544.418 363.611 544.168C363.396 544.449 363.088 544.693 362.686 544.9C362.283 545.107 361.84 545.211 361.355 545.211C360.773 545.211 360.297 545.035 359.926 544.684C359.559 544.328 359.375 543.885 359.375 543.354C359.375 542.771 359.557 542.32 359.92 542C360.283 541.68 360.76 541.482 361.35 541.408L363.031 541.197ZM367.402 538.725V542.891C367.402 543.211 367.453 543.473 367.555 543.676C367.742 544.051 368.092 544.238 368.604 544.238C369.338 544.238 369.838 543.91 370.104 543.254C370.248 542.902 370.32 542.42 370.32 541.807V538.725H371.375V545H370.379L370.391 544.074C370.254 544.312 370.084 544.514 369.881 544.678C369.479 545.006 368.99 545.17 368.416 545.17C367.521 545.17 366.912 544.871 366.588 544.273C366.412 543.953 366.324 543.525 366.324 542.99V538.725H367.402ZM373.057 538.725H374.059V539.809C374.141 539.598 374.342 539.342 374.662 539.041C374.982 538.736 375.352 538.584 375.77 538.584C375.789 538.584 375.822 538.586 375.869 538.59C375.916 538.594 375.996 538.602 376.109 538.613V539.727C376.047 539.715 375.988 539.707 375.934 539.703C375.883 539.699 375.826 539.697 375.764 539.697C375.232 539.697 374.824 539.869 374.539 540.213C374.254 540.553 374.111 540.945 374.111 541.391V545H373.057V538.725ZM377.832 543.33C377.832 543.635 377.943 543.875 378.166 544.051C378.389 544.227 378.652 544.314 378.957 544.314C379.328 544.314 379.688 544.229 380.035 544.057C380.621 543.771 380.914 543.305 380.914 542.656V541.807C380.785 541.889 380.619 541.957 380.416 542.012C380.213 542.066 380.014 542.105 379.818 542.129L379.18 542.211C378.797 542.262 378.51 542.342 378.318 542.451C377.994 542.635 377.832 542.928 377.832 543.33ZM380.387 541.197C380.629 541.166 380.791 541.064 380.873 540.893C380.92 540.799 380.943 540.664 380.943 540.488C380.943 540.129 380.814 539.869 380.557 539.709C380.303 539.545 379.938 539.463 379.461 539.463C378.91 539.463 378.52 539.611 378.289 539.908C378.16 540.072 378.076 540.316 378.037 540.641H377.053C377.072 539.867 377.322 539.33 377.803 539.029C378.287 538.725 378.848 538.572 379.484 538.572C380.223 538.572 380.822 538.713 381.283 538.994C381.74 539.275 381.969 539.713 381.969 540.307V543.922C381.969 544.031 381.99 544.119 382.033 544.186C382.08 544.252 382.176 544.285 382.32 544.285C382.367 544.285 382.42 544.283 382.479 544.279C382.537 544.271 382.6 544.262 382.666 544.25V545.029C382.502 545.076 382.377 545.105 382.291 545.117C382.205 545.129 382.088 545.135 381.939 545.135C381.576 545.135 381.312 545.006 381.148 544.748C381.062 544.611 381.002 544.418 380.967 544.168C380.752 544.449 380.443 544.693 380.041 544.9C379.639 545.107 379.195 545.211 378.711 545.211C378.129 545.211 377.652 545.035 377.281 544.684C376.914 544.328 376.73 543.885 376.73 543.354C376.73 542.771 376.912 542.32 377.275 542C377.639 541.68 378.115 541.482 378.705 541.408L380.387 541.197ZM383.703 538.725H384.705V539.615C385.002 539.248 385.316 538.984 385.648 538.824C385.98 538.664 386.35 538.584 386.756 538.584C387.646 538.584 388.248 538.895 388.561 539.516C388.732 539.855 388.818 540.342 388.818 540.975V545H387.746V541.045C387.746 540.662 387.689 540.354 387.576 540.119C387.389 539.729 387.049 539.533 386.557 539.533C386.307 539.533 386.102 539.559 385.941 539.609C385.652 539.695 385.398 539.867 385.18 540.125C385.004 540.332 384.889 540.547 384.834 540.77C384.783 540.988 384.758 541.303 384.758 541.713V545H383.703V538.725ZM390.594 536.973H391.66V538.725H392.662V539.586H391.66V543.682C391.66 543.9 391.734 544.047 391.883 544.121C391.965 544.164 392.102 544.186 392.293 544.186C392.344 544.186 392.398 544.186 392.457 544.186C392.516 544.182 392.584 544.176 392.662 544.168V545C392.541 545.035 392.414 545.061 392.281 545.076C392.152 545.092 392.012 545.1 391.859 545.1C391.367 545.1 391.033 544.975 390.857 544.725C390.682 544.471 390.594 544.143 390.594 543.74V539.586H389.744V538.725H390.594V536.973ZM397.203 536.393H398.369V543.975H402.729V545H397.203V536.393ZM406.355 538.584C406.801 538.584 407.232 538.689 407.65 538.9C408.068 539.107 408.387 539.377 408.605 539.709C408.816 540.025 408.957 540.395 409.027 540.816C409.09 541.105 409.121 541.566 409.121 542.199H404.521C404.541 542.836 404.691 543.348 404.973 543.734C405.254 544.117 405.689 544.309 406.279 544.309C406.83 544.309 407.27 544.127 407.598 543.764C407.785 543.553 407.918 543.309 407.996 543.031H409.033C409.006 543.262 408.914 543.52 408.758 543.805C408.605 544.086 408.434 544.316 408.242 544.496C407.922 544.809 407.525 545.02 407.053 545.129C406.799 545.191 406.512 545.223 406.191 545.223C405.41 545.223 404.748 544.939 404.205 544.373C403.662 543.803 403.391 543.006 403.391 541.982C403.391 540.975 403.664 540.156 404.211 539.527C404.758 538.898 405.473 538.584 406.355 538.584ZM408.037 541.361C407.994 540.904 407.895 540.539 407.738 540.266C407.449 539.758 406.967 539.504 406.291 539.504C405.807 539.504 405.4 539.68 405.072 540.031C404.744 540.379 404.57 540.822 404.551 541.361H408.037ZM410.938 538.725L412.613 543.834L414.365 538.725H415.52L413.152 545H412.027L409.713 538.725H410.938ZM419.035 538.584C419.48 538.584 419.912 538.689 420.33 538.9C420.748 539.107 421.066 539.377 421.285 539.709C421.496 540.025 421.637 540.395 421.707 540.816C421.77 541.105 421.801 541.566 421.801 542.199H417.201C417.221 542.836 417.371 543.348 417.652 543.734C417.934 544.117 418.369 544.309 418.959 544.309C419.51 544.309 419.949 544.127 420.277 543.764C420.465 543.553 420.598 543.309 420.676 543.031H421.713C421.686 543.262 421.594 543.52 421.438 543.805C421.285 544.086 421.113 544.316 420.922 544.496C420.602 544.809 420.205 545.02 419.732 545.129C419.479 545.191 419.191 545.223 418.871 545.223C418.09 545.223 417.428 544.939 416.885 544.373C416.342 543.803 416.07 543.006 416.07 541.982C416.07 540.975 416.344 540.156 416.891 539.527C417.438 538.898 418.152 538.584 419.035 538.584ZM420.717 541.361C420.674 540.904 420.574 540.539 420.418 540.266C420.129 539.758 419.646 539.504 418.971 539.504C418.486 539.504 418.08 539.68 417.752 540.031C417.424 540.379 417.25 540.822 417.23 541.361H420.717ZM423.131 536.393H424.186V545H423.131V536.393Z" fill="white"/>
<path d="M339.119 511.336C339.666 511.336 340.098 511.227 340.414 511.008C340.734 510.789 340.895 510.395 340.895 509.824C340.895 509.211 340.672 508.793 340.227 508.57C339.988 508.453 339.67 508.395 339.271 508.395H336.424V511.336H339.119ZM335.258 507.393H339.242C339.898 507.393 340.439 507.488 340.865 507.68C341.674 508.047 342.078 508.725 342.078 509.713C342.078 510.229 341.971 510.65 341.756 510.979C341.545 511.307 341.248 511.57 340.865 511.77C341.201 511.906 341.453 512.086 341.621 512.309C341.793 512.531 341.889 512.893 341.908 513.393L341.949 514.547C341.961 514.875 341.988 515.119 342.031 515.279C342.102 515.553 342.227 515.729 342.406 515.807V516H340.977C340.938 515.926 340.906 515.83 340.883 515.713C340.859 515.596 340.84 515.369 340.824 515.033L340.754 513.598C340.727 513.035 340.518 512.658 340.127 512.467C339.904 512.361 339.555 512.309 339.078 512.309H336.424V516H335.258V507.393ZM346.262 509.584C346.707 509.584 347.139 509.689 347.557 509.9C347.975 510.107 348.293 510.377 348.512 510.709C348.723 511.025 348.863 511.395 348.934 511.816C348.996 512.105 349.027 512.566 349.027 513.199H344.428C344.447 513.836 344.598 514.348 344.879 514.734C345.16 515.117 345.596 515.309 346.186 515.309C346.736 515.309 347.176 515.127 347.504 514.764C347.691 514.553 347.824 514.309 347.902 514.031H348.939C348.912 514.262 348.82 514.52 348.664 514.805C348.512 515.086 348.34 515.316 348.148 515.496C347.828 515.809 347.432 516.02 346.959 516.129C346.705 516.191 346.418 516.223 346.098 516.223C345.316 516.223 344.654 515.939 344.111 515.373C343.568 514.803 343.297 514.006 343.297 512.982C343.297 511.975 343.57 511.156 344.117 510.527C344.664 509.898 345.379 509.584 346.262 509.584ZM347.943 512.361C347.9 511.904 347.801 511.539 347.645 511.266C347.355 510.758 346.873 510.504 346.197 510.504C345.713 510.504 345.307 510.68 344.979 511.031C344.65 511.379 344.477 511.822 344.457 512.361H347.943ZM350.955 514.031C350.986 514.383 351.074 514.652 351.219 514.84C351.484 515.18 351.945 515.35 352.602 515.35C352.992 515.35 353.336 515.266 353.633 515.098C353.93 514.926 354.078 514.662 354.078 514.307C354.078 514.037 353.959 513.832 353.721 513.691C353.568 513.605 353.268 513.506 352.818 513.393L351.98 513.182C351.445 513.049 351.051 512.9 350.797 512.736C350.344 512.451 350.117 512.057 350.117 511.553C350.117 510.959 350.33 510.479 350.756 510.111C351.186 509.744 351.762 509.561 352.484 509.561C353.43 509.561 354.111 509.838 354.529 510.393C354.791 510.744 354.918 511.123 354.91 511.529H353.914C353.895 511.291 353.811 511.074 353.662 510.879C353.42 510.602 353 510.463 352.402 510.463C352.004 510.463 351.701 510.539 351.494 510.691C351.291 510.844 351.189 511.045 351.189 511.295C351.189 511.568 351.324 511.787 351.594 511.951C351.75 512.049 351.98 512.135 352.285 512.209L352.982 512.379C353.74 512.562 354.248 512.74 354.506 512.912C354.916 513.182 355.121 513.605 355.121 514.184C355.121 514.742 354.908 515.225 354.482 515.631C354.061 516.037 353.416 516.24 352.549 516.24C351.615 516.24 350.953 516.029 350.562 515.607C350.176 515.182 349.969 514.656 349.941 514.031H350.955ZM356.539 507.973H357.605V509.725H358.607V510.586H357.605V514.682C357.605 514.9 357.68 515.047 357.828 515.121C357.91 515.164 358.047 515.186 358.238 515.186C358.289 515.186 358.344 515.186 358.402 515.186C358.461 515.182 358.529 515.176 358.607 515.168V516C358.486 516.035 358.359 516.061 358.227 516.076C358.098 516.092 357.957 516.1 357.805 516.1C357.312 516.1 356.979 515.975 356.803 515.725C356.627 515.471 356.539 515.143 356.539 514.74V510.586H355.689V509.725H356.539V507.973ZM360.477 514.33C360.477 514.635 360.588 514.875 360.811 515.051C361.033 515.227 361.297 515.314 361.602 515.314C361.973 515.314 362.332 515.229 362.68 515.057C363.266 514.771 363.559 514.305 363.559 513.656V512.807C363.43 512.889 363.264 512.957 363.061 513.012C362.857 513.066 362.658 513.105 362.463 513.129L361.824 513.211C361.441 513.262 361.154 513.342 360.963 513.451C360.639 513.635 360.477 513.928 360.477 514.33ZM363.031 512.197C363.273 512.166 363.436 512.064 363.518 511.893C363.564 511.799 363.588 511.664 363.588 511.488C363.588 511.129 363.459 510.869 363.201 510.709C362.947 510.545 362.582 510.463 362.105 510.463C361.555 510.463 361.164 510.611 360.934 510.908C360.805 511.072 360.721 511.316 360.682 511.641H359.697C359.717 510.867 359.967 510.33 360.447 510.029C360.932 509.725 361.492 509.572 362.129 509.572C362.867 509.572 363.467 509.713 363.928 509.994C364.385 510.275 364.613 510.713 364.613 511.307V514.922C364.613 515.031 364.635 515.119 364.678 515.186C364.725 515.252 364.82 515.285 364.965 515.285C365.012 515.285 365.064 515.283 365.123 515.279C365.182 515.271 365.244 515.262 365.311 515.25V516.029C365.146 516.076 365.021 516.105 364.936 516.117C364.85 516.129 364.732 516.135 364.584 516.135C364.221 516.135 363.957 516.006 363.793 515.748C363.707 515.611 363.646 515.418 363.611 515.168C363.396 515.449 363.088 515.693 362.686 515.9C362.283 516.107 361.84 516.211 361.355 516.211C360.773 516.211 360.297 516.035 359.926 515.684C359.559 515.328 359.375 514.885 359.375 514.354C359.375 513.771 359.557 513.32 359.92 513C360.283 512.68 360.76 512.482 361.35 512.408L363.031 512.197ZM367.402 509.725V513.891C367.402 514.211 367.453 514.473 367.555 514.676C367.742 515.051 368.092 515.238 368.604 515.238C369.338 515.238 369.838 514.91 370.104 514.254C370.248 513.902 370.32 513.42 370.32 512.807V509.725H371.375V516H370.379L370.391 515.074C370.254 515.312 370.084 515.514 369.881 515.678C369.479 516.006 368.99 516.17 368.416 516.17C367.521 516.17 366.912 515.871 366.588 515.273C366.412 514.953 366.324 514.525 366.324 513.99V509.725H367.402ZM373.057 509.725H374.059V510.809C374.141 510.598 374.342 510.342 374.662 510.041C374.982 509.736 375.352 509.584 375.77 509.584C375.789 509.584 375.822 509.586 375.869 509.59C375.916 509.594 375.996 509.602 376.109 509.613V510.727C376.047 510.715 375.988 510.707 375.934 510.703C375.883 510.699 375.826 510.697 375.764 510.697C375.232 510.697 374.824 510.869 374.539 511.213C374.254 511.553 374.111 511.945 374.111 512.391V516H373.057V509.725ZM377.832 514.33C377.832 514.635 377.943 514.875 378.166 515.051C378.389 515.227 378.652 515.314 378.957 515.314C379.328 515.314 379.688 515.229 380.035 515.057C380.621 514.771 380.914 514.305 380.914 513.656V512.807C380.785 512.889 380.619 512.957 380.416 513.012C380.213 513.066 380.014 513.105 379.818 513.129L379.18 513.211C378.797 513.262 378.51 513.342 378.318 513.451C377.994 513.635 377.832 513.928 377.832 514.33ZM380.387 512.197C380.629 512.166 380.791 512.064 380.873 511.893C380.92 511.799 380.943 511.664 380.943 511.488C380.943 511.129 380.814 510.869 380.557 510.709C380.303 510.545 379.938 510.463 379.461 510.463C378.91 510.463 378.52 510.611 378.289 510.908C378.16 511.072 378.076 511.316 378.037 511.641H377.053C377.072 510.867 377.322 510.33 377.803 510.029C378.287 509.725 378.848 509.572 379.484 509.572C380.223 509.572 380.822 509.713 381.283 509.994C381.74 510.275 381.969 510.713 381.969 511.307V514.922C381.969 515.031 381.99 515.119 382.033 515.186C382.08 515.252 382.176 515.285 382.32 515.285C382.367 515.285 382.42 515.283 382.479 515.279C382.537 515.271 382.6 515.262 382.666 515.25V516.029C382.502 516.076 382.377 516.105 382.291 516.117C382.205 516.129 382.088 516.135 381.939 516.135C381.576 516.135 381.312 516.006 381.148 515.748C381.062 515.611 381.002 515.418 380.967 515.168C380.752 515.449 380.443 515.693 380.041 515.9C379.639 516.107 379.195 516.211 378.711 516.211C378.129 516.211 377.652 516.035 377.281 515.684C376.914 515.328 376.73 514.885 376.73 514.354C376.73 513.771 376.912 513.32 377.275 513C377.639 512.68 378.115 512.482 378.705 512.408L380.387 512.197ZM383.703 509.725H384.705V510.615C385.002 510.248 385.316 509.984 385.648 509.824C385.98 509.664 386.35 509.584 386.756 509.584C387.646 509.584 388.248 509.895 388.561 510.516C388.732 510.855 388.818 511.342 388.818 511.975V516H387.746V512.045C387.746 511.662 387.689 511.354 387.576 511.119C387.389 510.729 387.049 510.533 386.557 510.533C386.307 510.533 386.102 510.559 385.941 510.609C385.652 510.695 385.398 510.867 385.18 511.125C385.004 511.332 384.889 511.547 384.834 511.77C384.783 511.988 384.758 512.303 384.758 512.713V516H383.703V509.725ZM390.594 507.973H391.66V509.725H392.662V510.586H391.66V514.682C391.66 514.9 391.734 515.047 391.883 515.121C391.965 515.164 392.102 515.186 392.293 515.186C392.344 515.186 392.398 515.186 392.457 515.186C392.516 515.182 392.584 515.176 392.662 515.168V516C392.541 516.035 392.414 516.061 392.281 516.076C392.152 516.092 392.012 516.1 391.859 516.1C391.367 516.1 391.033 515.975 390.857 515.725C390.682 515.471 390.594 515.143 390.594 514.74V510.586H389.744V509.725H390.594V507.973ZM397.203 507.393H398.369V514.975H402.729V516H397.203V507.393ZM406.355 509.584C406.801 509.584 407.232 509.689 407.65 509.9C408.068 510.107 408.387 510.377 408.605 510.709C408.816 511.025 408.957 511.395 409.027 511.816C409.09 512.105 409.121 512.566 409.121 513.199H404.521C404.541 513.836 404.691 514.348 404.973 514.734C405.254 515.117 405.689 515.309 406.279 515.309C406.83 515.309 407.27 515.127 407.598 514.764C407.785 514.553 407.918 514.309 407.996 514.031H409.033C409.006 514.262 408.914 514.52 408.758 514.805C408.605 515.086 408.434 515.316 408.242 515.496C407.922 515.809 407.525 516.02 407.053 516.129C406.799 516.191 406.512 516.223 406.191 516.223C405.41 516.223 404.748 515.939 404.205 515.373C403.662 514.803 403.391 514.006 403.391 512.982C403.391 511.975 403.664 511.156 404.211 510.527C404.758 509.898 405.473 509.584 406.355 509.584ZM408.037 512.361C407.994 511.904 407.895 511.539 407.738 511.266C407.449 510.758 406.967 510.504 406.291 510.504C405.807 510.504 405.4 510.68 405.072 511.031C404.744 511.379 404.57 511.822 404.551 512.361H408.037ZM410.938 509.725L412.613 514.834L414.365 509.725H415.52L413.152 516H412.027L409.713 509.725H410.938ZM419.035 509.584C419.48 509.584 419.912 509.689 420.33 509.9C420.748 510.107 421.066 510.377 421.285 510.709C421.496 511.025 421.637 511.395 421.707 511.816C421.77 512.105 421.801 512.566 421.801 513.199H417.201C417.221 513.836 417.371 514.348 417.652 514.734C417.934 515.117 418.369 515.309 418.959 515.309C419.51 515.309 419.949 515.127 420.277 514.764C420.465 514.553 420.598 514.309 420.676 514.031H421.713C421.686 514.262 421.594 514.52 421.438 514.805C421.285 515.086 421.113 515.316 420.922 515.496C420.602 515.809 420.205 516.02 419.732 516.129C419.479 516.191 419.191 516.223 418.871 516.223C418.09 516.223 417.428 515.939 416.885 515.373C416.342 514.803 416.07 514.006 416.07 512.982C416.07 511.975 416.344 511.156 416.891 510.527C417.438 509.898 418.152 509.584 419.035 509.584ZM420.717 512.361C420.674 511.904 420.574 511.539 420.418 511.266C420.129 510.758 419.646 510.504 418.971 510.504C418.486 510.504 418.08 510.68 417.752 511.031C417.424 511.379 417.25 511.822 417.23 512.361H420.717ZM423.131 507.393H424.186V516H423.131V507.393Z" fill="white"/>
<path d="M339.119 472.336C339.666 472.336 340.098 472.227 340.414 472.008C340.734 471.789 340.895 471.395 340.895 470.824C340.895 470.211 340.672 469.793 340.227 469.57C339.988 469.453 339.67 469.395 339.271 469.395H336.424V472.336H339.119ZM335.258 468.393H339.242C339.898 468.393 340.439 468.488 340.865 468.68C341.674 469.047 342.078 469.725 342.078 470.713C342.078 471.229 341.971 471.65 341.756 471.979C341.545 472.307 341.248 472.57 340.865 472.77C341.201 472.906 341.453 473.086 341.621 473.309C341.793 473.531 341.889 473.893 341.908 474.393L341.949 475.547C341.961 475.875 341.988 476.119 342.031 476.279C342.102 476.553 342.227 476.729 342.406 476.807V477H340.977C340.938 476.926 340.906 476.83 340.883 476.713C340.859 476.596 340.84 476.369 340.824 476.033L340.754 474.598C340.727 474.035 340.518 473.658 340.127 473.467C339.904 473.361 339.555 473.309 339.078 473.309H336.424V477H335.258V468.393ZM346.262 470.584C346.707 470.584 347.139 470.689 347.557 470.9C347.975 471.107 348.293 471.377 348.512 471.709C348.723 472.025 348.863 472.395 348.934 472.816C348.996 473.105 349.027 473.566 349.027 474.199H344.428C344.447 474.836 344.598 475.348 344.879 475.734C345.16 476.117 345.596 476.309 346.186 476.309C346.736 476.309 347.176 476.127 347.504 475.764C347.691 475.553 347.824 475.309 347.902 475.031H348.939C348.912 475.262 348.82 475.52 348.664 475.805C348.512 476.086 348.34 476.316 348.148 476.496C347.828 476.809 347.432 477.02 346.959 477.129C346.705 477.191 346.418 477.223 346.098 477.223C345.316 477.223 344.654 476.939 344.111 476.373C343.568 475.803 343.297 475.006 343.297 473.982C343.297 472.975 343.57 472.156 344.117 471.527C344.664 470.898 345.379 470.584 346.262 470.584ZM347.943 473.361C347.9 472.904 347.801 472.539 347.645 472.266C347.355 471.758 346.873 471.504 346.197 471.504C345.713 471.504 345.307 471.68 344.979 472.031C344.65 472.379 344.477 472.822 344.457 473.361H347.943ZM350.955 475.031C350.986 475.383 351.074 475.652 351.219 475.84C351.484 476.18 351.945 476.35 352.602 476.35C352.992 476.35 353.336 476.266 353.633 476.098C353.93 475.926 354.078 475.662 354.078 475.307C354.078 475.037 353.959 474.832 353.721 474.691C353.568 474.605 353.268 474.506 352.818 474.393L351.98 474.182C351.445 474.049 351.051 473.9 350.797 473.736C350.344 473.451 350.117 473.057 350.117 472.553C350.117 471.959 350.33 471.479 350.756 471.111C351.186 470.744 351.762 470.561 352.484 470.561C353.43 470.561 354.111 470.838 354.529 471.393C354.791 471.744 354.918 472.123 354.91 472.529H353.914C353.895 472.291 353.811 472.074 353.662 471.879C353.42 471.602 353 471.463 352.402 471.463C352.004 471.463 351.701 471.539 351.494 471.691C351.291 471.844 351.189 472.045 351.189 472.295C351.189 472.568 351.324 472.787 351.594 472.951C351.75 473.049 351.98 473.135 352.285 473.209L352.982 473.379C353.74 473.562 354.248 473.74 354.506 473.912C354.916 474.182 355.121 474.605 355.121 475.184C355.121 475.742 354.908 476.225 354.482 476.631C354.061 477.037 353.416 477.24 352.549 477.24C351.615 477.24 350.953 477.029 350.562 476.607C350.176 476.182 349.969 475.656 349.941 475.031H350.955ZM356.539 468.973H357.605V470.725H358.607V471.586H357.605V475.682C357.605 475.9 357.68 476.047 357.828 476.121C357.91 476.164 358.047 476.186 358.238 476.186C358.289 476.186 358.344 476.186 358.402 476.186C358.461 476.182 358.529 476.176 358.607 476.168V477C358.486 477.035 358.359 477.061 358.227 477.076C358.098 477.092 357.957 477.1 357.805 477.1C357.312 477.1 356.979 476.975 356.803 476.725C356.627 476.471 356.539 476.143 356.539 475.74V471.586H355.689V470.725H356.539V468.973ZM360.477 475.33C360.477 475.635 360.588 475.875 360.811 476.051C361.033 476.227 361.297 476.314 361.602 476.314C361.973 476.314 362.332 476.229 362.68 476.057C363.266 475.771 363.559 475.305 363.559 474.656V473.807C363.43 473.889 363.264 473.957 363.061 474.012C362.857 474.066 362.658 474.105 362.463 474.129L361.824 474.211C361.441 474.262 361.154 474.342 360.963 474.451C360.639 474.635 360.477 474.928 360.477 475.33ZM363.031 473.197C363.273 473.166 363.436 473.064 363.518 472.893C363.564 472.799 363.588 472.664 363.588 472.488C363.588 472.129 363.459 471.869 363.201 471.709C362.947 471.545 362.582 471.463 362.105 471.463C361.555 471.463 361.164 471.611 360.934 471.908C360.805 472.072 360.721 472.316 360.682 472.641H359.697C359.717 471.867 359.967 471.33 360.447 471.029C360.932 470.725 361.492 470.572 362.129 470.572C362.867 470.572 363.467 470.713 363.928 470.994C364.385 471.275 364.613 471.713 364.613 472.307V475.922C364.613 476.031 364.635 476.119 364.678 476.186C364.725 476.252 364.82 476.285 364.965 476.285C365.012 476.285 365.064 476.283 365.123 476.279C365.182 476.271 365.244 476.262 365.311 476.25V477.029C365.146 477.076 365.021 477.105 364.936 477.117C364.85 477.129 364.732 477.135 364.584 477.135C364.221 477.135 363.957 477.006 363.793 476.748C363.707 476.611 363.646 476.418 363.611 476.168C363.396 476.449 363.088 476.693 362.686 476.9C362.283 477.107 361.84 477.211 361.355 477.211C360.773 477.211 360.297 477.035 359.926 476.684C359.559 476.328 359.375 475.885 359.375 475.354C359.375 474.771 359.557 474.32 359.92 474C360.283 473.68 360.76 473.482 361.35 473.408L363.031 473.197ZM367.402 470.725V474.891C367.402 475.211 367.453 475.473 367.555 475.676C367.742 476.051 368.092 476.238 368.604 476.238C369.338 476.238 369.838 475.91 370.104 475.254C370.248 474.902 370.32 474.42 370.32 473.807V470.725H371.375V477H370.379L370.391 476.074C370.254 476.312 370.084 476.514 369.881 476.678C369.479 477.006 368.99 477.17 368.416 477.17C367.521 477.17 366.912 476.871 366.588 476.273C366.412 475.953 366.324 475.525 366.324 474.99V470.725H367.402ZM373.057 470.725H374.059V471.809C374.141 471.598 374.342 471.342 374.662 471.041C374.982 470.736 375.352 470.584 375.77 470.584C375.789 470.584 375.822 470.586 375.869 470.59C375.916 470.594 375.996 470.602 376.109 470.613V471.727C376.047 471.715 375.988 471.707 375.934 471.703C375.883 471.699 375.826 471.697 375.764 471.697C375.232 471.697 374.824 471.869 374.539 472.213C374.254 472.553 374.111 472.945 374.111 473.391V477H373.057V470.725ZM377.832 475.33C377.832 475.635 377.943 475.875 378.166 476.051C378.389 476.227 378.652 476.314 378.957 476.314C379.328 476.314 379.688 476.229 380.035 476.057C380.621 475.771 380.914 475.305 380.914 474.656V473.807C380.785 473.889 380.619 473.957 380.416 474.012C380.213 474.066 380.014 474.105 379.818 474.129L379.18 474.211C378.797 474.262 378.51 474.342 378.318 474.451C377.994 474.635 377.832 474.928 377.832 475.33ZM380.387 473.197C380.629 473.166 380.791 473.064 380.873 472.893C380.92 472.799 380.943 472.664 380.943 472.488C380.943 472.129 380.814 471.869 380.557 471.709C380.303 471.545 379.938 471.463 379.461 471.463C378.91 471.463 378.52 471.611 378.289 471.908C378.16 472.072 378.076 472.316 378.037 472.641H377.053C377.072 471.867 377.322 471.33 377.803 471.029C378.287 470.725 378.848 470.572 379.484 470.572C380.223 470.572 380.822 470.713 381.283 470.994C381.74 471.275 381.969 471.713 381.969 472.307V475.922C381.969 476.031 381.99 476.119 382.033 476.186C382.08 476.252 382.176 476.285 382.32 476.285C382.367 476.285 382.42 476.283 382.479 476.279C382.537 476.271 382.6 476.262 382.666 476.25V477.029C382.502 477.076 382.377 477.105 382.291 477.117C382.205 477.129 382.088 477.135 381.939 477.135C381.576 477.135 381.312 477.006 381.148 476.748C381.062 476.611 381.002 476.418 380.967 476.168C380.752 476.449 380.443 476.693 380.041 476.9C379.639 477.107 379.195 477.211 378.711 477.211C378.129 477.211 377.652 477.035 377.281 476.684C376.914 476.328 376.73 475.885 376.73 475.354C376.73 474.771 376.912 474.32 377.275 474C377.639 473.68 378.115 473.482 378.705 473.408L380.387 473.197ZM383.703 470.725H384.705V471.615C385.002 471.248 385.316 470.984 385.648 470.824C385.98 470.664 386.35 470.584 386.756 470.584C387.646 470.584 388.248 470.895 388.561 471.516C388.732 471.855 388.818 472.342 388.818 472.975V477H387.746V473.045C387.746 472.662 387.689 472.354 387.576 472.119C387.389 471.729 387.049 471.533 386.557 471.533C386.307 471.533 386.102 471.559 385.941 471.609C385.652 471.695 385.398 471.867 385.18 472.125C385.004 472.332 384.889 472.547 384.834 472.77C384.783 472.988 384.758 473.303 384.758 473.713V477H383.703V470.725ZM390.594 468.973H391.66V470.725H392.662V471.586H391.66V475.682C391.66 475.9 391.734 476.047 391.883 476.121C391.965 476.164 392.102 476.186 392.293 476.186C392.344 476.186 392.398 476.186 392.457 476.186C392.516 476.182 392.584 476.176 392.662 476.168V477C392.541 477.035 392.414 477.061 392.281 477.076C392.152 477.092 392.012 477.1 391.859 477.1C391.367 477.1 391.033 476.975 390.857 476.725C390.682 476.471 390.594 476.143 390.594 475.74V471.586H389.744V470.725H390.594V468.973ZM397.203 468.393H398.369V475.975H402.729V477H397.203V468.393ZM406.355 470.584C406.801 470.584 407.232 470.689 407.65 470.9C408.068 471.107 408.387 471.377 408.605 471.709C408.816 472.025 408.957 472.395 409.027 472.816C409.09 473.105 409.121 473.566 409.121 474.199H404.521C404.541 474.836 404.691 475.348 404.973 475.734C405.254 476.117 405.689 476.309 406.279 476.309C406.83 476.309 407.27 476.127 407.598 475.764C407.785 475.553 407.918 475.309 407.996 475.031H409.033C409.006 475.262 408.914 475.52 408.758 475.805C408.605 476.086 408.434 476.316 408.242 476.496C407.922 476.809 407.525 477.02 407.053 477.129C406.799 477.191 406.512 477.223 406.191 477.223C405.41 477.223 404.748 476.939 404.205 476.373C403.662 475.803 403.391 475.006 403.391 473.982C403.391 472.975 403.664 472.156 404.211 471.527C404.758 470.898 405.473 470.584 406.355 470.584ZM408.037 473.361C407.994 472.904 407.895 472.539 407.738 472.266C407.449 471.758 406.967 471.504 406.291 471.504C405.807 471.504 405.4 471.68 405.072 472.031C404.744 472.379 404.57 472.822 404.551 473.361H408.037ZM410.938 470.725L412.613 475.834L414.365 470.725H415.52L413.152 477H412.027L409.713 470.725H410.938ZM419.035 470.584C419.48 470.584 419.912 470.689 420.33 470.9C420.748 471.107 421.066 471.377 421.285 471.709C421.496 472.025 421.637 472.395 421.707 472.816C421.77 473.105 421.801 473.566 421.801 474.199H417.201C417.221 474.836 417.371 475.348 417.652 475.734C417.934 476.117 418.369 476.309 418.959 476.309C419.51 476.309 419.949 476.127 420.277 475.764C420.465 475.553 420.598 475.309 420.676 475.031H421.713C421.686 475.262 421.594 475.52 421.438 475.805C421.285 476.086 421.113 476.316 420.922 476.496C420.602 476.809 420.205 477.02 419.732 477.129C419.479 477.191 419.191 477.223 418.871 477.223C418.09 477.223 417.428 476.939 416.885 476.373C416.342 475.803 416.07 475.006 416.07 473.982C416.07 472.975 416.344 472.156 416.891 471.527C417.438 470.898 418.152 470.584 419.035 470.584ZM420.717 473.361C420.674 472.904 420.574 472.539 420.418 472.266C420.129 471.758 419.646 471.504 418.971 471.504C418.486 471.504 418.08 471.68 417.752 472.031C417.424 472.379 417.25 472.822 417.23 473.361H420.717ZM423.131 468.393H424.186V477H423.131V468.393Z" fill="white"/>
<path d="M1429.64 493.393H1435.61V494.447H1430.81V497.061H1435.03V498.086H1430.81V502H1429.64V493.393ZM1436.76 493.393H1437.81V502H1436.76V493.393ZM1441.89 501.32C1442.59 501.32 1443.07 501.057 1443.32 500.529C1443.59 499.998 1443.72 499.408 1443.72 498.76C1443.72 498.174 1443.62 497.697 1443.44 497.33C1443.14 496.752 1442.63 496.463 1441.9 496.463C1441.26 496.463 1440.79 496.709 1440.49 497.201C1440.2 497.693 1440.05 498.287 1440.05 498.982C1440.05 499.65 1440.2 500.207 1440.49 500.652C1440.79 501.098 1441.25 501.32 1441.89 501.32ZM1441.93 495.543C1442.74 495.543 1443.42 495.812 1443.98 496.352C1444.54 496.891 1444.82 497.684 1444.82 498.73C1444.82 499.742 1444.57 500.578 1444.08 501.238C1443.59 501.898 1442.82 502.229 1441.79 502.229C1440.93 502.229 1440.24 501.938 1439.73 501.355C1439.22 500.77 1438.97 499.984 1438.97 499C1438.97 497.945 1439.24 497.105 1439.77 496.48C1440.31 495.855 1441.03 495.543 1441.93 495.543ZM1448.57 501.32C1449.27 501.32 1449.75 501.057 1450 500.529C1450.27 499.998 1450.4 499.408 1450.4 498.76C1450.4 498.174 1450.3 497.697 1450.12 497.33C1449.82 496.752 1449.31 496.463 1448.58 496.463C1447.94 496.463 1447.47 496.709 1447.17 497.201C1446.88 497.693 1446.73 498.287 1446.73 498.982C1446.73 499.65 1446.88 500.207 1447.17 500.652C1447.47 501.098 1447.93 501.32 1448.57 501.32ZM1448.61 495.543C1449.42 495.543 1450.1 495.812 1450.66 496.352C1451.22 496.891 1451.5 497.684 1451.5 498.73C1451.5 499.742 1451.25 500.578 1450.76 501.238C1450.27 501.898 1449.5 502.229 1448.47 502.229C1447.61 502.229 1446.92 501.938 1446.41 501.355C1445.9 500.77 1445.65 499.984 1445.65 499C1445.65 497.945 1445.92 497.105 1446.45 496.48C1446.99 495.855 1447.71 495.543 1448.61 495.543ZM1452.79 495.725H1453.79V496.809C1453.87 496.598 1454.07 496.342 1454.39 496.041C1454.71 495.736 1455.08 495.584 1455.5 495.584C1455.52 495.584 1455.55 495.586 1455.6 495.59C1455.65 495.594 1455.73 495.602 1455.84 495.613V496.727C1455.78 496.715 1455.72 496.707 1455.66 496.703C1455.61 496.699 1455.56 496.697 1455.49 496.697C1454.96 496.697 1454.55 496.869 1454.27 497.213C1453.98 497.553 1453.84 497.945 1453.84 498.391V502H1452.79V495.725ZM1462.57 493.609C1463.65 493.609 1464.44 494.057 1464.92 494.951C1465.3 495.643 1465.48 496.59 1465.48 497.793C1465.48 498.934 1465.31 499.877 1464.97 500.623C1464.48 501.693 1463.68 502.229 1462.56 502.229C1461.55 502.229 1460.8 501.791 1460.31 500.916C1459.9 500.186 1459.7 499.205 1459.7 497.975C1459.7 497.021 1459.82 496.203 1460.06 495.52C1460.53 494.246 1461.36 493.609 1462.57 493.609ZM1462.55 501.268C1463.1 501.268 1463.54 501.025 1463.86 500.541C1464.19 500.057 1464.35 499.154 1464.35 497.834C1464.35 496.881 1464.23 496.098 1464 495.484C1463.76 494.867 1463.31 494.559 1462.63 494.559C1462.01 494.559 1461.55 494.852 1461.27 495.438C1460.98 496.02 1460.84 496.879 1460.84 498.016C1460.84 498.871 1460.93 499.559 1461.11 500.078C1461.39 500.871 1461.88 501.268 1462.55 501.268Z" fill="white"/>
<path d="M1429.64 453.393H1435.61V454.447H1430.81V457.061H1435.03V458.086H1430.81V462H1429.64V453.393ZM1436.76 453.393H1437.81V462H1436.76V453.393ZM1441.89 461.32C1442.59 461.32 1443.07 461.057 1443.32 460.529C1443.59 459.998 1443.72 459.408 1443.72 458.76C1443.72 458.174 1443.62 457.697 1443.44 457.33C1443.14 456.752 1442.63 456.463 1441.9 456.463C1441.26 456.463 1440.79 456.709 1440.49 457.201C1440.2 457.693 1440.05 458.287 1440.05 458.982C1440.05 459.65 1440.2 460.207 1440.49 460.652C1440.79 461.098 1441.25 461.32 1441.89 461.32ZM1441.93 455.543C1442.74 455.543 1443.42 455.812 1443.98 456.352C1444.54 456.891 1444.82 457.684 1444.82 458.73C1444.82 459.742 1444.57 460.578 1444.08 461.238C1443.59 461.898 1442.82 462.229 1441.79 462.229C1440.93 462.229 1440.24 461.938 1439.73 461.355C1439.22 460.77 1438.97 459.984 1438.97 459C1438.97 457.945 1439.24 457.105 1439.77 456.48C1440.31 455.855 1441.03 455.543 1441.93 455.543ZM1448.57 461.32C1449.27 461.32 1449.75 461.057 1450 460.529C1450.27 459.998 1450.4 459.408 1450.4 458.76C1450.4 458.174 1450.3 457.697 1450.12 457.33C1449.82 456.752 1449.31 456.463 1448.58 456.463C1447.94 456.463 1447.47 456.709 1447.17 457.201C1446.88 457.693 1446.73 458.287 1446.73 458.982C1446.73 459.65 1446.88 460.207 1447.17 460.652C1447.47 461.098 1447.93 461.32 1448.57 461.32ZM1448.61 455.543C1449.42 455.543 1450.1 455.812 1450.66 456.352C1451.22 456.891 1451.5 457.684 1451.5 458.73C1451.5 459.742 1451.25 460.578 1450.76 461.238C1450.27 461.898 1449.5 462.229 1448.47 462.229C1447.61 462.229 1446.92 461.938 1446.41 461.355C1445.9 460.77 1445.65 459.984 1445.65 459C1445.65 457.945 1445.92 457.105 1446.45 456.48C1446.99 455.855 1447.71 455.543 1448.61 455.543ZM1452.79 455.725H1453.79V456.809C1453.87 456.598 1454.07 456.342 1454.39 456.041C1454.71 455.736 1455.08 455.584 1455.5 455.584C1455.52 455.584 1455.55 455.586 1455.6 455.59C1455.65 455.594 1455.73 455.602 1455.84 455.613V456.727C1455.78 456.715 1455.72 456.707 1455.66 456.703C1455.61 456.699 1455.56 456.697 1455.49 456.697C1454.96 456.697 1454.55 456.869 1454.27 457.213C1453.98 457.553 1453.84 457.945 1453.84 458.391V462H1452.79V455.725ZM1460.47 456.059V455.25C1461.23 455.176 1461.76 455.053 1462.06 454.881C1462.36 454.705 1462.59 454.293 1462.74 453.645H1463.57V462H1462.44V456.059H1460.47Z" fill="white"/>
<path d="M1410 527H1183L986 584L827 540.5H442" stroke="white" stroke-width="2" stroke-dasharray="2 2"/>
<path d="M1410 498H1183L986 555L827 511.5H442" stroke="white" stroke-width="2" stroke-dasharray="2 2"/>
<path d="M1410 458H1183L986 515L827 471.5H442" stroke="white" stroke-width="2" stroke-dasharray="2 2"/>
</svg>
