<svg width="1920" height="1080" viewBox="0 0 1920 1080" fill="none" xmlns="http://www.w3.org/2000/svg">
<path d="M622.141 413.556C621.73 420.544 622.313 431.884 622.655 436.681C634.98 454.153 654.496 458.264 667.336 461.861C680.175 465.458 720.747 467 738.722 467H799.324V449.014C799.324 447.472 796.242 440.278 796.242 435.139C796.242 430 797.269 408.417 797.269 404.306C797.269 401.017 798.639 397.796 799.324 396.597H806V391.458C804.63 390.944 800.762 388.889 796.242 384.778C791.723 380.667 790.935 373.13 791.106 369.875L741.804 356L728.964 365.764L720.747 365.25L697.636 383.236L662.714 369.875C659.975 372.102 653.572 377.275 649.874 380.153C645.252 383.75 632.926 394.542 630.872 396.597L630.872 396.597C628.818 398.653 622.655 404.82 622.141 413.556Z" fill="#F1C2A0" fill-opacity="0.3"/>
</svg>
