<svg width="1529" height="917" viewBox="0 0 1529 917" fill="none" xmlns="http://www.w3.org/2000/svg">
<g clip-path="url(#clip0_471_138)">
<path d="M764.074 915.189L1526.55 475.205V467.354L764.074 907.338V915.189Z" stroke="black" stroke-width="2" stroke-linecap="round" stroke-linejoin="round"/>
<path d="M764.059 915.189L1.59961 475.205L764.059 915.189ZM764.059 915.189V907.338L1.59961 467.354V475.205V467.354V475.205" stroke="black" stroke-width="2" stroke-linecap="round" stroke-linejoin="round"/>
<path d="M1.59961 467.353L278.424 307.601L286.903 298.989L287.696 298.471L291.066 296.524L292.301 295.778L306.071 283.879L314.062 278.98L328.778 269.667L335.503 264.54L335.975 264.266L364.157 246.052L429.302 208.454L429.562 208.256L440.434 199.598L442.905 197.574L482.325 168.771L482.737 168.512L508.569 153.524L509.682 152.794L519.747 146.449L520.022 146.281L525.054 143.375L540.121 131.461L764.075 2.2168C846.468 58.0289 946.413 82.2375 1040.4 109.383C1071.64 119.623 1101.23 135.661 1131.8 147.788C1160.64 161.589 1202.42 173.214 1228.86 192.005C1269.21 234.519 1316.73 270.276 1361.03 308.559C1378.9 324.049 1398.06 338.611 1414.45 355.82C1429.87 371.143 1441.95 390.543 1453.5 408.65C1463.86 416.988 1477.48 433.056 1485.68 443.753L1526.55 467.338L764.059 907.322L1.59961 467.353Z" stroke="black" stroke-width="2" stroke-linecap="round" stroke-linejoin="round"/>
<path d="M1228.86 192.036C1214.01 194.896 1194.11 201.074 1203.47 177.383" stroke="black" stroke-linecap="round" stroke-linejoin="round"/>
<path d="M429.332 208.469C429.332 208.469 429.515 208.302 429.576 208.271C445.176 218.207 437.231 212.988 441.471 226.302C469.072 234.321 499.968 247.255 526.929 256.582C544.466 258.073 522.903 230.319 541.873 229.863C556.315 229.711 574.324 238.703 587.363 228.752C591.465 227.2 595.872 220.733 600.858 222.392C628.567 234.123 572.967 265.012 566.379 277.398C563.604 290.316 562.201 305.151 554.134 316.289C548.949 325.221 555.339 336.557 554.896 346.189C552.868 367.689 529.186 373.197 517.749 385.431C517.367 389.143 520.86 400.342 519.762 403.933C517.871 406.444 507.699 404.42 511.588 409.213C530.619 418.997 526.624 442.293 524.397 459.882C521.119 476.255 511.725 491.455 505.259 506.732C499.007 520.609 492.831 535.703 485.999 549.048C490.162 553.187 505.015 559.41 509.133 563.61C511.588 568.326 513.601 573.911 519.701 574.93C528.805 576.36 539.083 569.437 547.882 567.185C551.557 566.196 556.604 567.383 559.731 564.888C570.954 551.802 569.216 548.774 586.661 556.032C602.124 561.358 619.92 557.325 634.712 551.619C638.753 548.88 643.603 545.061 648.696 544.757C667.926 544.757 690.205 540.938 708.886 536.099C716.602 534.973 727.063 536.708 734.551 534.395C746.125 526.543 760.932 523.637 774.855 524.413C795.152 532.326 816.197 550.083 833.276 563.031C840.748 564.538 848.282 569.544 855.586 571.294C862.052 572.191 863.47 568.433 857.203 565.801C857.203 565.801 845.033 560.384 845.049 560.399C844.545 556.61 865.59 561.053 868.167 560.551C879.696 558.725 892.52 559.851 904.034 561.175C922.165 562.164 946.565 556.732 964.849 556.184C978.939 555.18 987.662 552.35 997.605 542.961C1004.91 522.055 1001.58 540.07 1007.15 539.325C1009.67 537.849 1017.44 533.695 1016.03 530.043C1016.65 527.274 1022.29 527.015 1024.44 525.159C1034.8 516.973 1021.7 516.957 1017.19 511.814C1013.24 507.037 1023.22 500.387 1027.3 503.339C1034.74 511.997 1040.35 508.269 1047.7 501.818C1049.77 500.555 1057.67 499.413 1059.52 497.709C1060.71 494.788 1064.12 492.095 1067.22 491.623C1074.22 487.073 1089.97 490.451 1092.84 481.443C1083.79 467.156 1108.79 469.347 1117.42 467.262C1129.71 466.714 1142.15 474.809 1154.54 470.336C1160.15 469.225 1164.74 464.402 1169.3 461.374C1177.37 457.189 1188.15 455.926 1196.15 451.772C1201.14 445.808 1183.65 431.063 1202.37 436.587C1209.13 439.037 1218.42 441.73 1225.2 438.215C1229.58 431.398 1240.5 430.653 1246.34 425.327C1251.13 411.587 1255.7 399.475 1269.88 391.35C1281.4 382.433 1296.92 379.481 1309.27 388.2C1312.96 388.626 1322.83 386.724 1326.54 387.728C1334.83 392.537 1347.2 402.746 1353.67 409.761C1370 413.961 1394.7 405.714 1400.66 426.696C1407.95 431.003 1421.62 437.028 1425.28 425.662C1432.14 419.378 1453.28 410.446 1452.13 423.79C1456.32 426.849 1463.1 422.405 1467.46 421.219" stroke="black" stroke-linecap="round" stroke-linejoin="round"/>
<path d="M1444.57 394.91C1406.75 406.565 1369.98 384.761 1335.26 372.634C1317.97 368.617 1298.1 367.004 1280.42 367.689C1263.07 371.34 1241.06 392.81 1226.32 402.472C1213.95 409.593 1189.76 416.258 1176.8 422.192C1162.97 428.355 1145.07 436.617 1129.91 437.499C1108.73 437.301 1087.29 438.595 1068.58 449.429C1049.64 456.945 1026.17 461.434 1009.62 473.926C995.882 485.932 995.181 509.258 977.415 517.55C935.372 531.199 888.19 548.56 844.18 533.679C819.476 526.406 800.399 503.019 774.947 498.18C729.305 502.852 682.718 516.531 637.397 524.443C628.491 526.832 608.85 535.992 599.776 537.742C584.588 537.575 575.103 525.128 559.838 536.19C551.359 539.72 541.859 547.069 532.495 547.693C522.705 546.917 505.336 540.116 508.859 527.897C511.68 516.227 521.912 507.599 528.47 497.907C535.835 486.647 541.493 473.744 545.244 460.871C565.892 403.902 515.279 394.499 564.977 354.192C587.943 325.297 551.832 295.519 604.122 254.117C616.551 243.116 630.595 231.704 640.477 218.314C654.095 198.609 661.857 172.514 681.376 157.389C695.391 145.855 722.031 133.637 737.342 123.868C754.04 112.076 768.969 93.695 784.31 80.594C798.492 69.2734 836.891 58.9722 821.519 35.3418" stroke="black" stroke-linecap="round" stroke-linejoin="round"/>
<path d="M1429.53 373.182C1394.47 373.243 1362.25 358.24 1329.62 347.665C1284.27 334.046 1253.77 334.609 1222.08 372.558C1181.61 396.645 1132.43 411.039 1086.08 418.084C1061.44 426.133 1027.4 432.844 1005.99 447.984C993.64 457.98 984.353 472.238 974.533 484.532C951.186 508.467 913.626 514.508 881.48 515.329C859.613 515.268 838.202 506.337 819.811 495.107C806.636 488.58 793.552 478.385 778.378 477.548C758.691 478.02 738.821 483.832 719.637 487.895C688.803 494.59 656.977 503.765 626.31 510.886C605.403 515.405 580.592 510.856 559.899 516.623C549.209 518.083 529.598 525.843 524.459 512.362C527.387 492.429 566.639 470.868 565.999 418.054C564.657 386.481 566.471 367.035 587.5 337.531C597.626 320.398 600.295 295.794 613.135 280.304C630.87 258.012 666.142 249.948 678.418 223.913C689.642 206.339 690.16 179.985 696.534 161.528C753.019 109.55 836.632 102.49 903.912 69.8672" stroke="black" stroke-linecap="round" stroke-linejoin="round"/>
<path d="M822.876 120.719C804.501 120.217 781.886 117.752 765.355 127.52C741.673 143.421 707.941 164.236 716.679 197.483C716.252 208.058 713.842 221.342 705.821 228.767C688.574 243.587 665.761 253.402 647.72 267.172C634.499 294.12 614.049 323.228 597.885 348.456C578.701 378.279 591.983 418.982 569.917 447.314C564.458 455.439 558.389 463.382 552.411 471.127C549.697 476.772 533.822 488.595 541.05 493.692C549.849 497.116 559.899 494.909 569.155 495.244C591.282 494.438 615.559 495.792 637.152 490.451C683.358 478.598 729.747 463.853 777.402 459.517C801.13 457.995 821.595 472.024 842.807 480.332C878.598 495.274 924.438 486.936 955.943 465.573C980.953 440.543 981.486 422.268 1020.63 412.424C1076.58 393.145 1138.5 390.102 1191.14 360.902C1210.35 351.636 1227.49 329.344 1247.59 321.782C1300.22 302.534 1352.66 336.481 1403.97 345.321" stroke="black" stroke-linecap="round" stroke-linejoin="round"/>
<path d="M880.215 114.45C903.699 105.031 924.667 88.8264 949.753 83.2422" stroke="black" stroke-linecap="round" stroke-linejoin="round"/>
<path d="M1357.28 305.334C1306.93 292.02 1256.77 270.535 1209.54 304.771C1144.72 357.844 1058.39 366.761 980.251 387.956C945.482 397.862 948.883 409.137 928.967 433.254C877.454 479.45 816.471 421.066 753.506 441.806C750.441 442.536 746.552 443.449 743.472 444.179C728.558 447.588 713.11 451.711 698.349 455.515C697.525 455.728 693.057 456.885 692.325 457.067C668.734 463.245 644.533 469.438 620.531 473.698C610.832 475.996 600.188 475.798 590.26 476.331C580.302 475.92 563.147 478.309 557.169 469.149C560.082 462.941 565.571 458.3 570.085 453.263C581.339 440.771 594.591 429.222 602.689 414.326C607.843 405.242 608.941 392.658 611.549 382.585C615.193 364.174 621.796 346.021 627.149 328.066C635.185 308.286 653.149 291.426 667.453 275.906C679.699 265.651 699.386 255.365 708.871 242.279C729.61 219.546 739.538 189.83 748.825 161.102C765.126 135.813 796.403 120.764 826.338 120.719" stroke="black" stroke-linecap="round" stroke-linejoin="round"/>
<path d="M901.091 113.005C930.141 110.509 966.831 101.349 995.714 96.6934" stroke="black" stroke-linecap="round" stroke-linejoin="round"/>
<path d="M1307.84 263.733C1279.13 256.932 1247.71 255.791 1219.09 263.094C1193.06 270.793 1168 289.098 1144.98 302.534C1084.53 333.498 1017.34 344.393 953.091 362.287C937.064 367.369 922.623 377.472 912.558 391.06C872.33 437.043 801.771 405.013 750.487 421.462C733.926 426.422 717.029 431.535 700.316 436.312C698.577 436.815 696.427 437.454 694.673 437.941C692.355 438.625 688.65 439.675 686.271 440.375C669.756 445.214 652.768 450.037 635.704 452.533C618.96 454.024 596.36 463.884 580.714 458.132C567.416 454.952 580.683 444.012 584.77 437.925C597.153 427.076 611.06 417.582 622.879 406.124C636.512 394.621 635.094 374.703 640.095 358.894C643.786 350.251 649.108 341.898 653.637 333.681C675.901 293.754 705.851 257.388 734.795 222.422C751.417 201.257 762.625 173.305 779.308 152.17C807.032 118.923 830.409 118.254 870.775 115.697C926.771 109.55 984.033 106.02 1040.39 109.398" stroke="black" stroke-linecap="round" stroke-linejoin="round"/>
<path d="M1262.93 224.765C1247.68 223.457 1231.97 221.692 1216.71 221.372H1214.76C1214.67 221.372 1214.06 221.372 1213.93 221.372H1213.8H1213.6H1210.95C1201.66 221.692 1192.28 223.822 1184.26 228.6C1155.06 248.639 1124.27 269.257 1092.41 285.173C1043.48 305.273 990.453 315.118 939.2 327.291C936.272 328.173 932.886 328.934 930.05 330.09C921.266 333.483 912.97 338.535 905.529 344.378C890.066 359.777 872.025 374.536 850.783 380.622C815.785 388.885 778.821 389.676 743.96 397.482C736.427 398.805 728.756 400.297 721.559 402.686C705.47 407.631 689.398 413.306 673.919 419.773C666.264 422.664 658.136 426.711 649.825 427.077H649.261C639.562 427.198 619.982 422.862 625.99 409.67C630.092 402.488 636.146 396.569 641.377 390.208C653.881 375.951 662.711 358.818 670.869 341.822C700.667 299.08 727.887 253.478 759.911 212.486C761.192 210.721 763.998 207.008 765.249 205.289C796.068 166.184 796.403 133.089 852.201 123.077C905.986 111.787 966.313 103.479 1019.87 119.273C1064.21 136.863 1073.59 144.775 1123.99 144.562" stroke="black" stroke-linecap="round" stroke-linejoin="round"/>
<path d="M956.02 158.44C973.008 167.889 975.326 175.299 957.469 186.011C939.078 198.854 913.901 201.806 891.957 202.14C859.658 203.297 861.26 149.113 885.598 138.157C909.494 127.004 935.845 147.135 956.005 158.425" stroke="black" stroke-linecap="round" stroke-linejoin="round"/>
<path d="M809.991 308.987C794.07 315.119 763.205 313.78 773.956 285.798C789.114 264.282 806.071 243.421 819.796 221.024V221.008C832.194 205.868 834.13 184.368 836.021 165.592C838.812 134.749 878.491 130.686 902.753 125.559C935.189 118.681 966.908 137.321 994.815 151.304C1013.42 163.264 1037.88 170.567 1053.45 186.453C1058.15 204.621 1023.25 215.455 1010.16 221.069C968.402 238.552 904.873 232.238 870.577 265.013C855.678 277.17 841.191 290.226 824.889 300.892C817.173 305.944 815.16 306.994 810.006 308.972L809.991 308.987Z" stroke="black" stroke-linecap="round" stroke-linejoin="round"/>
<path d="M806.422 167.417C809.685 141.367 834.862 130.64 857.858 126.288C896.18 117.935 939.901 111.94 979.077 116.093C1005.82 119.624 1023.07 145.065 1049.19 151.045C1073.73 160.798 1103.76 163.78 1122.64 183.668C1134.68 199.188 1116.76 215.271 1106.07 225.785C1096.31 236.756 1085.76 250.496 1074.94 260.554C1066.76 268.694 1055.39 271.509 1044.13 271.037C1036.17 271.768 1013.28 272.742 1004.92 273.426C974.456 277.215 942.92 282.16 914.998 295.17C913.504 295.9 911.826 296.585 910.378 297.422C908.441 298.441 906.184 299.567 904.324 300.724C830.028 347.269 849.334 356.962 749.892 363.003H745.698C738.699 363.003 730.922 363.064 723.937 362.774C660.377 362.714 713.308 315.407 727.445 290.286C742.145 267.827 758.645 245.094 775.13 224.218C789.891 206.05 801.542 191.062 806.452 167.417H806.422Z" stroke="black" stroke-linecap="round" stroke-linejoin="round"/>
<path d="M869.418 577.746C885.018 579.039 901.777 584.364 917.439 585.399C946.611 578.552 985.665 581.428 1011.86 567.733C1022.87 561.814 1030.73 566.592 1028.39 549.855C1044.63 547.998 1050.23 531.702 1062.35 523.059C1066.73 520.153 1077.3 518.784 1082.47 517.612C1087.01 515.467 1092.78 511.328 1097.23 508.985C1105.28 504.283 1116.95 505.941 1124.02 499.459C1147.49 498.805 1173.01 495.397 1194.71 484.989C1196.84 485.856 1208.2 468.723 1209.68 467.978C1205.38 464.432 1198.78 453.081 1210.11 461.176C1228.27 470.291 1256.92 454.998 1273.67 448.288C1275.7 448.349 1273.04 444.971 1274.14 444.515C1276.23 438.702 1292.5 438.078 1298.28 435.583C1309.59 434.259 1323.04 434.974 1333.98 436.161C1339.42 444.332 1361.21 446.021 1369.1 449.992C1391.19 455.364 1418.08 455.242 1439.81 450.738C1449.23 452.884 1478.59 452.99 1485.7 443.754" stroke="black" stroke-linecap="round" stroke-linejoin="round"/>
<path d="M278.424 307.617C295.808 319.212 324.584 332.739 342.563 345.125C349.563 343.679 357.309 344.729 362.357 350.1C363.135 353.691 400.115 382.023 404.568 384.929C398.178 391.29 412.558 395.155 414.846 399.095C432.627 412.592 459.085 428.31 478.131 440.787C479.366 441.928 481.135 447.543 481.669 449.262C481.944 452.001 487.006 455.258 487.327 457.875C484.765 466.091 492.984 473.319 488.44 481.672C483.255 492.111 480.998 505.835 480.159 517.171C477.994 547.131 449.325 560.278 425.825 572.238C454.357 628.537 428.021 624.885 498.581 617.779C509.179 616.531 519.244 603.841 528.973 600.007C536.552 598.881 544.497 598.105 551.969 596.325C571.092 597.709 592.701 600.052 611.595 597.694C626.783 589.995 645.464 592.095 661.873 589.356C676.482 586.662 691.731 587.21 706.447 586.51C718.357 585.095 730.434 582.219 742.451 581.672C774.246 580.135 804.547 593.753 836.083 592.171C860.772 597.907 896.486 600.311 861.412 570.168" stroke="black" stroke-linecap="round" stroke-linejoin="round"/>
</g>
<defs>
<clipPath id="clip0_471_138">
<rect width="1528" height="916" fill="white" transform="translate(0.0742188 0.710938)"/>
</clipPath>
</defs>
</svg>
